<svg width="1139" height="357" viewBox="0 0 1139 357" fill="none" xmlns="http://www.w3.org/2000/svg">
<g filter="url(#filter0_d_5921_115559)">
<path d="M115 74H1013.4C1022.36 74 1026.84 74 1030.26 75.7439C1033.27 77.2779 1035.72 79.7256 1037.26 82.7362C1039 86.1587 1039 90.6392 1039 99.6V291.4C1039 300.361 1039 304.841 1037.26 308.264C1035.72 311.274 1033.27 313.722 1030.26 315.256C1026.84 317 1022.36 317 1013.4 317H140.6C131.639 317 127.159 317 123.736 315.256C120.726 313.722 118.278 311.274 116.744 308.264C115 304.841 115 300.361 115 291.4V74Z" fill="white" shape-rendering="crispEdges"/>
<rect x="131" y="90" width="211" height="211" rx="8" fill="#FF9383"/>
<path d="M148.744 125V111.613H151.138V117.179H157.65V111.613H160.035V125H157.65V119.192H151.138V125H148.744ZM167.191 125.204C164.176 125.204 162.348 123.182 162.348 119.953V119.944C162.348 116.752 164.194 114.665 167.079 114.665C169.965 114.665 171.746 116.688 171.746 119.749V120.51H164.658C164.686 122.328 165.669 123.386 167.237 123.386C168.49 123.386 169.204 122.755 169.427 122.291L169.454 122.226H171.653L171.625 122.31C171.301 123.618 169.946 125.204 167.191 125.204ZM167.107 116.474C165.818 116.474 164.853 117.346 164.677 118.96H169.492C169.334 117.3 168.397 116.474 167.107 116.474ZM174.672 127.644H172.556V123.191H173.354C174.106 122.746 174.421 121.549 174.514 120.185L174.866 114.86H182.502V123.191H184.06V127.644H181.945V125H174.672V127.644ZM180.182 123.191V116.669H176.843L176.583 120.306C176.499 121.419 176.267 122.393 175.822 123.033V123.191H180.182ZM189.964 125.204C186.921 125.204 185.084 123.219 185.084 119.935V119.916C185.084 116.66 186.949 114.665 189.964 114.665C192.988 114.665 194.844 116.65 194.844 119.916V119.935C194.844 123.219 192.998 125.204 189.964 125.204ZM189.964 123.33C191.569 123.33 192.478 122.078 192.478 119.944V119.925C192.478 117.792 191.56 116.53 189.964 116.53C188.359 116.53 187.441 117.792 187.441 119.925V119.944C187.441 122.078 188.359 123.33 189.964 123.33ZM196.898 125V114.86H199.18V121.651H199.365L203.642 114.86H205.924V125H203.642V118.172H203.447L199.18 125H196.898ZM210.687 125H208.479V114.86H211.42L214.416 121.92H214.583L217.589 114.86H220.475V125H218.267V118.079H218.09L215.298 124.545H213.646L210.863 118.079H210.687V125ZM225.859 120.621H225.339V125H223.029V114.86H225.339V118.933H225.84L229.18 114.86H231.833L227.742 119.554L232.028 125H229.236L225.859 120.621ZM236.086 125.167C234.156 125.167 232.755 123.979 232.755 122.133V122.115C232.755 120.306 234.137 119.248 236.605 119.1L239.212 118.942V118.07C239.212 117.059 238.553 116.502 237.31 116.502C236.253 116.502 235.566 116.882 235.334 117.55L235.325 117.587H233.145L233.154 117.504C233.377 115.797 235.01 114.665 237.422 114.665C240.029 114.665 241.494 115.927 241.494 118.07V125H239.212V123.608H239.054C238.498 124.592 237.422 125.167 236.086 125.167ZM235.037 122.022C235.037 122.885 235.77 123.395 236.791 123.395C238.182 123.395 239.212 122.486 239.212 121.28V120.463L236.93 120.612C235.64 120.695 235.037 121.168 235.037 122.003V122.022Z" fill="black"/>
<path d="M148.336 253V244.578H155.148V253H153.789V245.703H149.695V253H148.336ZM159.355 249.703C159.175 252.023 158.456 253.078 157.05 253.078C156.761 253.078 156.542 253.031 156.433 252.992V251.766C156.503 251.789 156.714 251.82 156.917 251.82C157.691 251.82 158.003 250.844 158.089 249.594L158.449 244.578H163.956V253H162.597V245.703H159.667L159.355 249.703ZM168.507 253.148C166.905 253.148 165.694 252.18 165.694 250.648V250.633C165.694 249.133 166.803 248.266 168.764 248.148L171.178 248V247.234C171.178 246.195 170.546 245.633 169.288 245.633C168.28 245.633 167.616 246.008 167.397 246.664L167.389 246.688H166.03L166.038 246.641C166.257 245.32 167.538 244.43 169.335 244.43C171.389 244.43 172.538 245.484 172.538 247.234V253H171.178V251.758H171.053C170.522 252.656 169.639 253.148 168.507 253.148ZM167.085 250.617C167.085 251.469 167.811 251.969 168.788 251.969C170.171 251.969 171.178 251.062 171.178 249.859V249.094L168.928 249.234C167.647 249.312 167.085 249.766 167.085 250.602V250.617ZM180.26 253V249.188H176.088V253H174.729V244.578H176.088V248.062H180.26V244.578H181.619V253H180.26Z" fill="black" fill-opacity="0.6"/>
<path d="M283.429 254.343C280.562 254.343 278.67 252.636 278.512 250.4L278.503 250.271H281.045L281.063 250.335C281.258 251.319 282.177 252.107 283.438 252.107C284.876 252.107 285.878 251.096 285.878 249.658V249.64C285.878 248.211 284.867 247.218 283.448 247.218C282.771 247.218 282.195 247.413 281.75 247.793C281.5 247.998 281.277 248.248 281.128 248.536H278.726L279.347 240.613H287.715V242.839H281.527L281.193 246.652H281.36C281.898 245.752 282.938 245.196 284.218 245.196C286.713 245.196 288.513 247.033 288.513 249.584V249.603C288.513 252.423 286.435 254.343 283.429 254.343ZM301.193 254V251.542H294.634V249.343C296.331 246.328 298.15 243.359 299.931 240.613H303.865V249.296H305.609V251.542H303.865V254H301.193ZM297.157 249.371H301.248V242.737H301.1C299.801 244.732 298.363 247.061 297.157 249.222V249.371ZM310.64 254V243.257H310.473L307.189 245.539V243.016L310.65 240.613H313.442V254H310.64ZM319.921 254V243.257H319.754L316.47 245.539V243.016L319.93 240.613H322.723V254H319.921Z" fill="black" fill-opacity="0.6"/>
<path d="M152.266 283.812V281.102C149.656 281.055 147.922 279.383 147.922 276.797V276.781C147.922 274.188 149.656 272.516 152.266 272.477V269.727H153.578V272.477C156.18 272.523 157.914 274.188 157.914 276.781V276.797C157.914 279.391 156.18 281.062 153.578 281.102V283.812H152.266ZM152.266 279.938V273.641C150.445 273.68 149.289 274.867 149.289 276.781V276.797C149.289 278.703 150.445 279.891 152.266 279.938ZM153.578 279.938C155.391 279.898 156.547 278.711 156.547 276.797V276.781C156.547 274.875 155.391 273.688 153.578 273.641V279.938ZM162.058 281.148C160.456 281.148 159.245 280.18 159.245 278.648V278.633C159.245 277.133 160.355 276.266 162.316 276.148L164.73 276V275.234C164.73 274.195 164.097 273.633 162.839 273.633C161.831 273.633 161.167 274.008 160.949 274.664L160.941 274.688H159.581L159.589 274.641C159.808 273.32 161.089 272.43 162.886 272.43C164.941 272.43 166.089 273.484 166.089 275.234V281H164.73V279.758H164.605C164.074 280.656 163.191 281.148 162.058 281.148ZM160.636 278.617C160.636 279.469 161.363 279.969 162.339 279.969C163.722 279.969 164.73 279.062 164.73 277.859V277.094L162.48 277.234C161.199 277.312 160.636 277.766 160.636 278.602V278.617ZM170.069 277.164H169.639V281H168.28V272.578H169.639V276.102H170.069L173.327 272.578H174.96L171.171 276.547L175.108 281H173.366L170.069 277.164ZM182.252 272.578V273.703H179.526V281H178.166V273.703H175.44V272.578H182.252Z" fill="black"/>
<path d="M278.596 282.297C275.377 282.297 273.16 280.692 273.16 278.373V278.354C273.16 276.61 274.458 275.32 276.286 274.958V274.903C274.718 274.522 273.651 273.391 273.651 271.934V271.916C273.651 269.837 275.683 268.316 278.596 268.316C281.5 268.316 283.541 269.837 283.541 271.916V271.934C283.541 273.391 282.465 274.513 280.906 274.903V274.958C282.725 275.311 284.033 276.61 284.033 278.354V278.373C284.033 280.692 281.815 282.297 278.596 282.297ZM278.596 274.059C279.876 274.059 280.767 273.298 280.767 272.203V272.185C280.767 271.09 279.867 270.338 278.596 270.338C277.316 270.338 276.416 271.09 276.416 272.185V272.203C276.416 273.298 277.307 274.059 278.596 274.059ZM278.596 280.256C280.062 280.256 281.101 279.393 281.101 278.187V278.168C281.101 276.962 280.081 276.09 278.596 276.09C277.112 276.09 276.082 276.962 276.082 278.168V278.187C276.082 279.393 277.121 280.256 278.596 280.256ZM290.561 282V280.117L294.875 275.858C296.759 274.031 297.269 273.354 297.269 272.417V272.389C297.269 271.248 296.49 270.45 295.209 270.45C293.901 270.45 293.001 271.322 293.001 272.593V272.639H290.413L290.404 272.602C290.404 270.032 292.408 268.27 295.339 268.27C298.095 268.27 300.024 269.847 300.024 272.157V272.185C300.024 273.706 299.236 274.968 296.796 277.222L294.319 279.532V279.746H300.219V282H290.561ZM307.422 282.343C304.555 282.343 302.662 280.636 302.505 278.4L302.495 278.271H305.037L305.056 278.335C305.251 279.319 306.169 280.107 307.431 280.107C308.869 280.107 309.871 279.096 309.871 277.658V277.64C309.871 276.211 308.86 275.218 307.44 275.218C306.763 275.218 306.188 275.413 305.742 275.793C305.492 275.998 305.269 276.248 305.121 276.536H302.718L303.34 268.613H311.708V270.839H305.52L305.186 274.652H305.353C305.891 273.752 306.93 273.196 308.21 273.196C310.706 273.196 312.506 275.033 312.506 277.584V277.603C312.506 280.423 310.427 282.343 307.422 282.343ZM319.597 282.343C316.73 282.343 314.837 280.636 314.68 278.4L314.67 278.271H317.212L317.231 278.335C317.426 279.319 318.344 280.107 319.606 280.107C321.044 280.107 322.046 279.096 322.046 277.658V277.64C322.046 276.211 321.035 275.218 319.615 275.218C318.938 275.218 318.363 275.413 317.918 275.793C317.667 275.998 317.444 276.248 317.296 276.536H314.893L315.515 268.613H323.883V270.839H317.695L317.361 274.652H317.528C318.066 273.752 319.105 273.196 320.385 273.196C322.881 273.196 324.681 275.033 324.681 277.584V277.603C324.681 280.423 322.603 282.343 319.597 282.343Z" fill="black"/>
<rect x="358" y="90" width="211" height="211" rx="8" fill="#FFCAC1"/>
<path d="M375.744 125V111.613H381.338C383.88 111.613 385.411 112.893 385.411 114.943V114.962C385.411 116.363 384.372 117.606 383.027 117.819V117.986C384.827 118.153 386.07 119.452 386.07 121.187V121.206C386.07 123.553 384.326 125 381.468 125H375.744ZM380.754 113.478H378.138V117.253H380.448C382.146 117.253 383.045 116.595 383.045 115.379V115.361C383.045 114.173 382.201 113.478 380.754 113.478ZM380.828 118.951H378.138V123.135H380.921C382.684 123.135 383.621 122.402 383.621 121.039V121.02C383.621 119.666 382.656 118.951 380.828 118.951ZM392.793 125V114.86H401.597V125H399.287V116.65H395.103V125H392.793ZM404.161 128.368V114.86H406.471V116.446H406.629C407.186 115.342 408.29 114.693 409.709 114.693C412.251 114.693 413.875 116.715 413.875 119.925V119.944C413.875 123.172 412.279 125.167 409.709 125.167C408.318 125.167 407.158 124.48 406.629 123.386H406.471V128.368H404.161ZM408.986 123.219C410.563 123.219 411.518 121.976 411.518 119.944V119.925C411.518 117.884 410.563 116.641 408.986 116.641C407.418 116.641 406.444 117.884 406.444 119.916V119.935C406.444 121.966 407.418 123.219 408.986 123.219ZM420.326 125.204C417.283 125.204 415.446 123.219 415.446 119.935V119.916C415.446 116.66 417.311 114.665 420.326 114.665C423.35 114.665 425.206 116.65 425.206 119.916V119.935C425.206 123.219 423.359 125.204 420.326 125.204ZM420.326 123.33C421.931 123.33 422.84 122.078 422.84 119.944V119.925C422.84 117.792 421.921 116.53 420.326 116.53C418.721 116.53 417.802 117.792 417.802 119.925V119.944C417.802 122.078 418.721 123.33 420.326 123.33ZM435.479 127.644V125H427.259V114.86H429.569V123.219H433.753V114.86H436.063V123.219H437.622V127.644H435.479ZM443.507 125.204C440.492 125.204 438.664 123.182 438.664 119.953V119.944C438.664 116.752 440.511 114.665 443.396 114.665C446.281 114.665 448.062 116.688 448.062 119.749V120.51H440.974C441.002 122.328 441.986 123.386 443.554 123.386C444.806 123.386 445.52 122.755 445.743 122.291L445.771 122.226H447.97L447.942 122.31C447.617 123.618 446.263 125.204 443.507 125.204ZM443.424 116.474C442.134 116.474 441.169 117.346 440.993 118.96H445.808C445.65 117.3 444.713 116.474 443.424 116.474ZM450.988 127.644H448.873V123.191H449.671C450.422 122.746 450.738 121.549 450.83 120.185L451.183 114.86H458.818V123.191H460.377V127.644H458.261V125H450.988V127.644ZM456.499 123.191V116.669H453.159L452.899 120.306C452.816 121.419 452.584 122.393 452.138 123.033V123.191H456.499ZM462.913 128.562C462.634 128.562 462.31 128.553 462.031 128.525V126.753C462.217 126.772 462.477 126.781 462.718 126.781C463.664 126.781 464.23 126.392 464.481 125.473L464.601 125.009L460.974 114.86H463.497L465.863 122.783H466.039L468.396 114.86H470.826L467.19 125.213C466.318 127.755 465.158 128.562 462.913 128.562ZM472.555 128.368V114.86H474.865V116.446H475.023C475.58 115.342 476.684 114.693 478.103 114.693C480.645 114.693 482.269 116.715 482.269 119.925V119.944C482.269 123.172 480.673 125.167 478.103 125.167C476.711 125.167 475.552 124.48 475.023 123.386H474.865V128.368H472.555ZM477.379 123.219C478.957 123.219 479.912 121.976 479.912 119.944V119.925C479.912 117.884 478.957 116.641 477.379 116.641C475.812 116.641 474.837 117.884 474.837 119.916V119.935C474.837 121.966 475.812 123.219 477.379 123.219ZM488.683 125.204C485.667 125.204 483.84 123.182 483.84 119.953V119.944C483.84 116.752 485.686 114.665 488.571 114.665C491.456 114.665 493.238 116.688 493.238 119.749V120.51H486.15C486.178 122.328 487.161 123.386 488.729 123.386C489.981 123.386 490.696 122.755 490.918 122.291L490.946 122.226H493.145L493.117 122.31C492.792 123.618 491.438 125.204 488.683 125.204ZM488.599 116.474C487.309 116.474 486.345 117.346 486.168 118.96H490.983C490.826 117.3 489.889 116.474 488.599 116.474ZM379.975 149.213C376.746 149.213 375.03 147.042 375.03 143.044V143.025C375.03 137.747 376.644 135.344 380.355 135.195L381.552 135.149C382.377 135.121 383.398 134.973 384.205 134.685V136.55C383.825 136.8 382.767 137.004 381.682 137.051L380.522 137.097C378.23 137.181 377.21 138.22 376.867 140.752L376.839 140.938H377.006C377.665 139.723 378.843 139.055 380.411 139.055C383.12 139.055 384.864 140.966 384.864 143.935V143.953C384.864 147.172 382.999 149.213 379.975 149.213ZM379.947 147.339C381.57 147.339 382.507 146.078 382.507 144V143.981C382.507 142.005 381.57 140.864 379.947 140.864C378.323 140.864 377.377 142.005 377.377 143.981V144C377.377 146.087 378.314 147.339 379.947 147.339ZM389.719 149.167C387.789 149.167 386.389 147.979 386.389 146.133V146.115C386.389 144.306 387.771 143.248 390.239 143.1L392.846 142.942V142.07C392.846 141.059 392.187 140.502 390.944 140.502C389.886 140.502 389.2 140.882 388.968 141.55L388.958 141.587H386.778L386.787 141.504C387.01 139.797 388.643 138.665 391.055 138.665C393.662 138.665 395.128 139.927 395.128 142.07V149H392.846V147.608H392.688C392.131 148.592 391.055 149.167 389.719 149.167ZM388.671 146.022C388.671 146.885 389.404 147.395 390.424 147.395C391.816 147.395 392.846 146.486 392.846 145.28V144.463L390.563 144.612C389.274 144.695 388.671 145.168 388.671 146.003V146.022ZM404.223 149V144.667H399.946V149H397.636V138.86H399.946V142.877H404.223V138.86H406.533V149H404.223ZM411.917 144.621H411.398V149H409.088V138.86H411.398V142.933H411.899L415.238 138.86H417.892L413.8 143.554L418.087 149H415.294L411.917 144.621ZM419.713 152.368V138.86H422.024V140.446H422.181C422.738 139.342 423.842 138.693 425.261 138.693C427.803 138.693 429.427 140.715 429.427 143.925V143.944C429.427 147.172 427.831 149.167 425.261 149.167C423.87 149.167 422.71 148.48 422.181 147.386H422.024V152.368H419.713ZM424.538 147.219C426.115 147.219 427.07 145.976 427.07 143.944V143.925C427.07 141.884 426.115 140.641 424.538 140.641C422.97 140.641 421.996 141.884 421.996 143.916V143.935C421.996 145.966 422.97 147.219 424.538 147.219ZM435.878 149.204C432.835 149.204 430.998 147.219 430.998 143.935V143.916C430.998 140.66 432.863 138.665 435.878 138.665C438.902 138.665 440.758 140.65 440.758 143.916V143.935C440.758 147.219 438.912 149.204 435.878 149.204ZM435.878 147.33C437.483 147.33 438.392 146.078 438.392 143.944V143.925C438.392 141.792 437.474 140.53 435.878 140.53C434.273 140.53 433.354 141.792 433.354 143.925V143.944C433.354 146.078 434.273 147.33 435.878 147.33ZM449.964 138.86V140.65H446.838V149H444.528V140.65H441.41V138.86H449.964ZM455.747 149.204C452.695 149.204 450.895 147.228 450.895 143.916V143.897C450.895 140.623 452.686 138.665 455.738 138.665C458.345 138.665 459.904 140.112 460.163 142.209V142.246H457.983L457.974 142.218C457.76 141.235 457.009 140.53 455.747 140.53C454.17 140.53 453.242 141.773 453.242 143.897V143.916C453.242 146.068 454.179 147.33 455.747 147.33C456.944 147.33 457.677 146.783 457.965 145.716L457.983 145.679L460.163 145.669L460.145 145.744C459.811 147.822 458.317 149.204 455.747 149.204ZM469.435 138.86V140.65H466.308V149H463.998V140.65H460.881V138.86H469.435ZM471.173 149V138.86H475.969C478.01 138.86 479.207 139.89 479.207 141.448V141.467C479.207 142.524 478.474 143.461 477.444 143.638V143.795C478.78 143.944 479.662 144.872 479.662 146.096V146.115C479.662 147.84 478.289 149 476.034 149H471.173ZM473.455 143.072H475.236C476.377 143.072 476.934 142.608 476.934 141.764V141.745C476.934 140.975 476.442 140.456 475.422 140.456H473.455V143.072ZM473.455 147.404H475.617C476.73 147.404 477.296 146.885 477.296 146.013V145.994C477.296 145.076 476.665 144.621 475.403 144.621H473.455V147.404ZM484.526 149.167C482.597 149.167 481.196 147.979 481.196 146.133V146.115C481.196 144.306 482.578 143.248 485.046 143.1L487.653 142.942V142.07C487.653 141.059 486.994 140.502 485.751 140.502C484.693 140.502 484.007 140.882 483.775 141.55L483.766 141.587H481.585L481.595 141.504C481.817 139.797 483.45 138.665 485.862 138.665C488.469 138.665 489.935 139.927 489.935 142.07V149H487.653V147.608H487.495C486.938 148.592 485.862 149.167 484.526 149.167ZM483.478 146.022C483.478 146.885 484.211 147.395 485.231 147.395C486.623 147.395 487.653 146.486 487.653 145.28V144.463L485.371 144.612C484.081 144.695 483.478 145.168 483.478 146.003V146.022Z" fill="black"/>
<path d="M375.336 253V244.578H382.148V253H380.789V245.703H376.695V253H375.336ZM386.355 249.703C386.175 252.023 385.456 253.078 384.05 253.078C383.761 253.078 383.542 253.031 383.433 252.992V251.766C383.503 251.789 383.714 251.82 383.917 251.82C384.691 251.82 385.003 250.844 385.089 249.594L385.449 244.578H390.956V253H389.597V245.703H386.667L386.355 249.703ZM395.507 253.148C393.905 253.148 392.694 252.18 392.694 250.648V250.633C392.694 249.133 393.803 248.266 395.764 248.148L398.178 248V247.234C398.178 246.195 397.546 245.633 396.288 245.633C395.28 245.633 394.616 246.008 394.397 246.664L394.389 246.688H393.03L393.038 246.641C393.257 245.32 394.538 244.43 396.335 244.43C398.389 244.43 399.538 245.484 399.538 247.234V253H398.178V251.758H398.053C397.522 252.656 396.639 253.148 395.507 253.148ZM394.085 250.617C394.085 251.469 394.811 251.969 395.788 251.969C397.171 251.969 398.178 251.062 398.178 249.859V249.094L395.928 249.234C394.647 249.312 394.085 249.766 394.085 250.602V250.617ZM407.26 253V249.188H403.088V253H401.729V244.578H403.088V248.062H407.26V244.578H408.619V253H407.26Z" fill="black" fill-opacity="0.6"/>
<path d="M512.355 254.297C509.331 254.297 507.336 252.673 507.15 250.28L507.141 250.159H509.822L509.832 250.261C509.952 251.3 510.908 252.042 512.355 252.042C513.784 252.042 514.721 251.245 514.721 250.113V250.094C514.721 248.814 513.765 248.109 512.142 248.109H510.611V246.114H512.104C513.515 246.114 514.424 245.372 514.424 244.287V244.268C514.424 243.155 513.654 242.468 512.336 242.468C511.019 242.468 510.138 243.183 510.026 244.296L510.017 244.379H507.438L507.447 244.268C507.642 241.875 509.525 240.316 512.336 240.316C515.212 240.316 517.068 241.763 517.068 243.897V243.916C517.068 245.585 515.843 246.671 514.275 246.996V247.051C516.27 247.237 517.569 248.387 517.569 250.206V250.224C517.569 252.655 515.481 254.297 512.355 254.297ZM524.673 254L530.378 242.997V242.839H523.624V240.604H533.199V242.867L527.604 254H524.673ZM538.397 254V243.257H538.23L534.946 245.539V243.016L538.406 240.613H541.199V254H538.397ZM547.678 254V243.257H547.511L544.227 245.539V243.016L547.687 240.613H550.48V254H547.678Z" fill="black" fill-opacity="0.6"/>
<path d="M379.266 283.812V281.102C376.656 281.055 374.922 279.383 374.922 276.797V276.781C374.922 274.188 376.656 272.516 379.266 272.477V269.727H380.578V272.477C383.18 272.523 384.914 274.188 384.914 276.781V276.797C384.914 279.391 383.18 281.062 380.578 281.102V283.812H379.266ZM379.266 279.938V273.641C377.445 273.68 376.289 274.867 376.289 276.781V276.797C376.289 278.703 377.445 279.891 379.266 279.938ZM380.578 279.938C382.391 279.898 383.547 278.711 383.547 276.797V276.781C383.547 274.875 382.391 273.688 380.578 273.641V279.938ZM389.058 281.148C387.456 281.148 386.245 280.18 386.245 278.648V278.633C386.245 277.133 387.355 276.266 389.316 276.148L391.73 276V275.234C391.73 274.195 391.097 273.633 389.839 273.633C388.831 273.633 388.167 274.008 387.949 274.664L387.941 274.688H386.581L386.589 274.641C386.808 273.32 388.089 272.43 389.886 272.43C391.941 272.43 393.089 273.484 393.089 275.234V281H391.73V279.758H391.605C391.074 280.656 390.191 281.148 389.058 281.148ZM387.636 278.617C387.636 279.469 388.363 279.969 389.339 279.969C390.722 279.969 391.73 279.062 391.73 277.859V277.094L389.48 277.234C388.199 277.312 387.636 277.766 387.636 278.602V278.617ZM397.069 277.164H396.639V281H395.28V272.578H396.639V276.102H397.069L400.327 272.578H401.96L398.171 276.547L402.108 281H400.366L397.069 277.164ZM409.252 272.578V273.703H406.526V281H405.166V273.703H402.44V272.578H409.252Z" fill="black"/>
<path d="M505.429 282.343C502.562 282.343 500.67 280.636 500.512 278.4L500.503 278.271H503.045L503.063 278.335C503.258 279.319 504.177 280.107 505.438 280.107C506.876 280.107 507.878 279.096 507.878 277.658V277.64C507.878 276.211 506.867 275.218 505.448 275.218C504.771 275.218 504.195 275.413 503.75 275.793C503.5 275.998 503.277 276.248 503.128 276.536H500.726L501.347 268.613H509.715V270.839H503.527L503.193 274.652H503.36C503.898 273.752 504.938 273.196 506.218 273.196C508.713 273.196 510.513 275.033 510.513 277.584V277.603C510.513 280.423 508.435 282.343 505.429 282.343ZM522.061 282.343C519.194 282.343 517.302 280.636 517.144 278.4L517.135 278.271H519.677L519.695 278.335C519.89 279.319 520.808 280.107 522.07 280.107C523.508 280.107 524.51 279.096 524.51 277.658V277.64C524.51 276.211 523.499 275.218 522.079 275.218C521.402 275.218 520.827 275.413 520.382 275.793C520.131 275.998 519.908 276.248 519.76 276.536H517.357L517.979 268.613H526.347V270.839H520.159L519.825 274.652H519.992C520.53 273.752 521.569 273.196 522.849 273.196C525.345 273.196 527.145 275.033 527.145 277.584V277.603C527.145 280.423 525.067 282.343 522.061 282.343ZM534.31 282.343C531.007 282.343 528.994 279.634 528.994 275.311V275.292C528.994 270.96 531.007 268.27 534.31 268.27C537.622 268.27 539.626 270.96 539.626 275.292V275.311C539.626 279.634 537.622 282.343 534.31 282.343ZM534.31 280.126C535.897 280.126 536.797 278.335 536.797 275.311V275.292C536.797 272.259 535.897 270.487 534.31 270.487C532.733 270.487 531.833 272.259 531.833 275.292V275.311C531.833 278.335 532.733 280.126 534.31 280.126ZM546.801 282.343C543.934 282.343 542.042 280.636 541.884 278.4L541.875 278.271H544.417L544.435 278.335C544.63 279.319 545.548 280.107 546.81 280.107C548.248 280.107 549.25 279.096 549.25 277.658V277.64C549.25 276.211 548.239 275.218 546.819 275.218C546.142 275.218 545.567 275.413 545.122 275.793C544.871 275.998 544.649 276.248 544.5 276.536H542.097L542.719 268.613H551.087V270.839H544.899L544.565 274.652H544.732C545.27 273.752 546.309 273.196 547.589 273.196C550.085 273.196 551.885 275.033 551.885 277.584V277.603C551.885 280.423 549.807 282.343 546.801 282.343Z" fill="black"/>
<rect x="585" y="90" width="211" height="211" rx="8" fill="#5FD86B"/>
<path d="M613.942 125H611.548V113.626H605.138V125H602.744V111.613H613.942V125ZM616.756 128.368V114.86H619.066V116.446H619.224C619.781 115.342 620.885 114.693 622.304 114.693C624.846 114.693 626.47 116.715 626.47 119.925V119.944C626.47 123.172 624.874 125.167 622.304 125.167C620.912 125.167 619.753 124.48 619.224 123.386H619.066V128.368H616.756ZM621.58 123.219C623.158 123.219 624.113 121.976 624.113 119.944V119.925C624.113 117.884 623.158 116.641 621.58 116.641C620.013 116.641 619.038 117.884 619.038 119.916V119.935C619.038 121.966 620.013 123.219 621.58 123.219ZM628.533 125V114.86H630.815V121.651H631L635.277 114.86H637.559V125H635.277V118.172H635.082L630.815 125H628.533ZM644.502 125.204C641.459 125.204 639.622 123.219 639.622 119.935V119.916C639.622 116.66 641.487 114.665 644.502 114.665C647.527 114.665 649.382 116.65 649.382 119.916V119.935C649.382 123.219 647.536 125.204 644.502 125.204ZM644.502 123.33C646.107 123.33 647.016 122.078 647.016 119.944V119.925C647.016 117.792 646.098 116.53 644.502 116.53C642.897 116.53 641.979 117.792 641.979 119.925V119.944C641.979 122.078 642.897 123.33 644.502 123.33ZM655.796 125.204C652.744 125.204 650.944 123.228 650.944 119.916V119.897C650.944 116.623 652.734 114.665 655.787 114.665C658.394 114.665 659.952 116.112 660.212 118.209V118.246H658.032L658.023 118.218C657.809 117.235 657.058 116.53 655.796 116.53C654.219 116.53 653.291 117.773 653.291 119.897V119.916C653.291 122.068 654.228 123.33 655.796 123.33C656.993 123.33 657.726 122.783 658.013 121.716L658.032 121.679L660.212 121.669L660.193 121.744C659.859 123.822 658.366 125.204 655.796 125.204ZM669.483 114.86V116.65H666.357V125H664.047V116.65H660.93V114.86H669.483ZM673.828 125.167C671.899 125.167 670.498 123.979 670.498 122.133V122.115C670.498 120.306 671.88 119.248 674.348 119.1L676.955 118.942V118.07C676.955 117.059 676.296 116.502 675.053 116.502C673.995 116.502 673.309 116.882 673.077 117.55L673.068 117.587H670.888L670.897 117.504C671.119 115.797 672.752 114.665 675.164 114.665C677.771 114.665 679.237 115.927 679.237 118.07V125H676.955V123.608H676.797C676.241 124.592 675.164 125.167 673.828 125.167ZM672.78 122.022C672.78 122.885 673.513 123.395 674.534 123.395C675.925 123.395 676.955 122.486 676.955 121.28V120.463L674.673 120.612C673.383 120.695 672.78 121.168 672.78 122.003V122.022ZM688.332 125V120.667H684.055V125H681.745V114.86H684.055V118.877H688.332V114.86H690.642V125H688.332ZM697.585 125.204C694.542 125.204 692.705 123.219 692.705 119.935V119.916C692.705 116.66 694.57 114.665 697.585 114.665C700.61 114.665 702.465 116.65 702.465 119.916V119.935C702.465 123.219 700.619 125.204 697.585 125.204ZM697.585 123.33C699.19 123.33 700.099 122.078 700.099 119.944V119.925C700.099 117.792 699.181 116.53 697.585 116.53C695.98 116.53 695.062 117.792 695.062 119.925V119.944C695.062 122.078 695.98 123.33 697.585 123.33ZM704.519 125V114.86H709.315C711.356 114.86 712.553 115.89 712.553 117.448V117.467C712.553 118.524 711.82 119.461 710.79 119.638V119.795C712.126 119.944 713.007 120.872 713.007 122.096V122.115C713.007 123.84 711.634 125 709.38 125H704.519ZM706.801 119.072H708.582C709.723 119.072 710.28 118.608 710.28 117.764V117.745C710.28 116.975 709.788 116.456 708.768 116.456H706.801V119.072ZM706.801 123.404H708.962C710.076 123.404 710.642 122.885 710.642 122.013V121.994C710.642 121.076 710.011 120.621 708.749 120.621H706.801V123.404ZM717.955 120.612C717.761 123.534 716.861 125.093 714.801 125.093C714.384 125.093 714.078 125.028 713.929 124.981V122.996C714.031 123.024 714.282 123.061 714.541 123.061C715.469 123.061 715.794 121.883 715.887 120.426L716.239 114.86H723.513V125H721.203V116.65H718.243L717.955 120.612ZM730.418 125.204C727.403 125.204 725.576 123.182 725.576 119.953V119.944C725.576 116.752 727.422 114.665 730.307 114.665C733.192 114.665 734.973 116.688 734.973 119.749V120.51H727.886C727.913 122.328 728.897 123.386 730.465 123.386C731.717 123.386 732.431 122.755 732.654 122.291L732.682 122.226H734.881L734.853 122.31C734.528 123.618 733.174 125.204 730.418 125.204ZM730.335 116.474C729.045 116.474 728.08 117.346 727.904 118.96H732.719C732.561 117.3 731.624 116.474 730.335 116.474ZM743.605 125V120.667H739.328V125H737.018V114.86H739.328V118.877H743.605V114.86H745.915V125H743.605ZM752.858 125.204C749.815 125.204 747.978 123.219 747.978 119.935V119.916C747.978 116.66 749.842 114.665 752.858 114.665C755.882 114.665 757.737 116.65 757.737 119.916V119.935C757.737 123.219 755.891 125.204 752.858 125.204ZM752.858 123.33C754.462 123.33 755.372 122.078 755.372 119.944V119.925C755.372 117.792 754.453 116.53 752.858 116.53C751.253 116.53 750.334 117.792 750.334 119.925V119.944C750.334 122.078 751.253 123.33 752.858 123.33ZM602.494 149V138.86H611.298V149H608.988V140.65H604.804V149H602.494ZM618.241 149.204C615.198 149.204 613.361 147.219 613.361 143.935V143.916C613.361 140.66 615.225 138.665 618.241 138.665C621.265 138.665 623.12 140.65 623.12 143.916V143.935C623.12 147.219 621.274 149.204 618.241 149.204ZM618.241 147.33C619.846 147.33 620.755 146.078 620.755 143.944V143.925C620.755 141.792 619.836 140.53 618.241 140.53C616.636 140.53 615.717 141.792 615.717 143.925V143.944C615.717 146.078 616.636 147.33 618.241 147.33ZM634.158 149.204C631.106 149.204 629.306 147.228 629.306 143.916V143.897C629.306 140.623 631.096 138.665 634.149 138.665C636.756 138.665 638.314 140.112 638.574 142.209V142.246H636.394L636.384 142.218C636.171 141.235 635.42 140.53 634.158 140.53C632.581 140.53 631.653 141.773 631.653 143.897V143.916C631.653 146.068 632.59 147.33 634.158 147.33C635.355 147.33 636.088 146.783 636.375 145.716L636.394 145.679L638.574 145.669L638.555 145.744C638.221 147.822 636.728 149.204 634.158 149.204ZM641.268 152.562C640.989 152.562 640.665 152.553 640.386 152.525V150.753C640.572 150.772 640.832 150.781 641.073 150.781C642.019 150.781 642.585 150.392 642.836 149.473L642.956 149.009L639.329 138.86H641.852L644.218 146.783H644.394L646.751 138.86H649.181L645.544 149.213C644.672 151.755 643.513 152.562 641.268 152.562ZM651.597 151.644H649.481V147.191H650.279C651.031 146.746 651.346 145.549 651.439 144.185L651.791 138.86H659.427V147.191H660.985V151.644H658.87V149H651.597V151.644ZM657.107 147.191V140.669H653.768L653.508 144.306C653.424 145.419 653.192 146.393 652.747 147.033V147.191H657.107ZM663.521 152.562C663.243 152.562 662.918 152.553 662.64 152.525V150.753C662.826 150.772 663.085 150.781 663.327 150.781C664.273 150.781 664.839 150.392 665.089 149.473L665.21 149.009L661.582 138.86H664.106L666.472 146.783H666.648L669.004 138.86H671.435L667.798 149.213C666.926 151.755 665.766 152.562 663.521 152.562Z" fill="black"/>
<path d="M602.336 253V244.578H609.148V253H607.789V245.703H603.695V253H602.336ZM613.355 249.703C613.175 252.023 612.456 253.078 611.05 253.078C610.761 253.078 610.542 253.031 610.433 252.992V251.766C610.503 251.789 610.714 251.82 610.917 251.82C611.691 251.82 612.003 250.844 612.089 249.594L612.449 244.578H617.956V253H616.597V245.703H613.667L613.355 249.703ZM622.507 253.148C620.905 253.148 619.694 252.18 619.694 250.648V250.633C619.694 249.133 620.803 248.266 622.764 248.148L625.178 248V247.234C625.178 246.195 624.546 245.633 623.288 245.633C622.28 245.633 621.616 246.008 621.397 246.664L621.389 246.688H620.03L620.038 246.641C620.257 245.32 621.538 244.43 623.335 244.43C625.389 244.43 626.538 245.484 626.538 247.234V253H625.178V251.758H625.053C624.522 252.656 623.639 253.148 622.507 253.148ZM621.085 250.617C621.085 251.469 621.811 251.969 622.788 251.969C624.171 251.969 625.178 251.062 625.178 249.859V249.094L622.928 249.234C621.647 249.312 621.085 249.766 621.085 250.602V250.617ZM634.26 253V249.188H630.088V253H628.729V244.578H630.088V248.062H634.26V244.578H635.619V253H634.26Z" fill="black" fill-opacity="0.6"/>
<path d="M743.354 254V252.117L747.668 247.858C749.552 246.031 750.062 245.354 750.062 244.417V244.389C750.062 243.248 749.283 242.45 748.002 242.45C746.694 242.45 745.794 243.322 745.794 244.593V244.639H743.206L743.197 244.602C743.197 242.032 745.201 240.27 748.132 240.27C750.888 240.27 752.817 241.847 752.817 244.157V244.185C752.817 245.706 752.029 246.968 749.589 249.222L747.112 251.532V251.746H753.012V254H743.354ZM760.141 254.297C757.116 254.297 755.121 252.673 754.936 250.28L754.927 250.159H757.608L757.617 250.261C757.738 251.3 758.693 252.042 760.141 252.042C761.569 252.042 762.506 251.245 762.506 250.113V250.094C762.506 248.814 761.551 248.109 759.927 248.109H758.396V246.114H759.89C761.3 246.114 762.209 245.372 762.209 244.287V244.268C762.209 243.155 761.439 242.468 760.122 242.468C758.805 242.468 757.923 243.183 757.812 244.296L757.803 244.379H755.224L755.233 244.268C755.428 241.875 757.311 240.316 760.122 240.316C762.998 240.316 764.853 241.763 764.853 243.897V243.916C764.853 245.585 763.629 246.671 762.061 246.996V247.051C764.056 247.237 765.354 248.387 765.354 250.206V250.224C765.354 252.655 763.267 254.297 760.141 254.297ZM773.615 254V251.542H767.055V249.343C768.753 246.328 770.572 243.359 772.353 240.613H776.286V249.296H778.031V251.542H776.286V254H773.615ZM769.579 249.371H773.67V242.737H773.522C772.223 244.732 770.785 247.061 769.579 249.222V249.371Z" fill="black" fill-opacity="0.6"/>
<path d="M606.266 283.812V281.102C603.656 281.055 601.922 279.383 601.922 276.797V276.781C601.922 274.188 603.656 272.516 606.266 272.477V269.727H607.578V272.477C610.18 272.523 611.914 274.188 611.914 276.781V276.797C611.914 279.391 610.18 281.062 607.578 281.102V283.812H606.266ZM606.266 279.938V273.641C604.445 273.68 603.289 274.867 603.289 276.781V276.797C603.289 278.703 604.445 279.891 606.266 279.938ZM607.578 279.938C609.391 279.898 610.547 278.711 610.547 276.797V276.781C610.547 274.875 609.391 273.688 607.578 273.641V279.938ZM616.058 281.148C614.456 281.148 613.245 280.18 613.245 278.648V278.633C613.245 277.133 614.355 276.266 616.316 276.148L618.73 276V275.234C618.73 274.195 618.097 273.633 616.839 273.633C615.831 273.633 615.167 274.008 614.949 274.664L614.941 274.688H613.581L613.589 274.641C613.808 273.32 615.089 272.43 616.886 272.43C618.941 272.43 620.089 273.484 620.089 275.234V281H618.73V279.758H618.605C618.074 280.656 617.191 281.148 616.058 281.148ZM614.636 278.617C614.636 279.469 615.363 279.969 616.339 279.969C617.722 279.969 618.73 279.062 618.73 277.859V277.094L616.48 277.234C615.199 277.312 614.636 277.766 614.636 278.602V278.617ZM624.069 277.164H623.639V281H622.28V272.578H623.639V276.102H624.069L627.327 272.578H628.96L625.171 276.547L629.108 281H627.366L624.069 277.164ZM636.252 272.578V273.703H633.526V281H632.166V273.703H629.44V272.578H636.252Z" fill="black"/>
<path d="M756.503 282.343C753.201 282.343 751.188 279.634 751.188 275.311V275.292C751.188 270.96 753.201 268.27 756.503 268.27C759.815 268.27 761.819 270.96 761.819 275.292V275.311C761.819 279.634 759.815 282.343 756.503 282.343ZM756.503 280.126C758.09 280.126 758.99 278.335 758.99 275.311V275.292C758.99 272.259 758.09 270.487 756.503 270.487C754.926 270.487 754.026 272.259 754.026 275.292V275.311C754.026 278.335 754.926 280.126 756.503 280.126ZM764.884 282.232C763.938 282.232 763.251 281.536 763.251 280.618C763.251 279.699 763.938 279.013 764.884 279.013C765.84 279.013 766.517 279.699 766.517 280.618C766.517 281.536 765.84 282.232 764.884 282.232ZM773.543 282.297C770.519 282.297 768.524 280.673 768.339 278.28L768.329 278.159H771.011L771.02 278.261C771.14 279.3 772.096 280.042 773.543 280.042C774.972 280.042 775.909 279.245 775.909 278.113V278.094C775.909 276.814 774.953 276.109 773.33 276.109H771.799V274.114H773.293C774.703 274.114 775.612 273.372 775.612 272.287V272.268C775.612 271.155 774.842 270.468 773.525 270.468C772.207 270.468 771.326 271.183 771.215 272.296L771.205 272.379H768.626L768.636 272.268C768.83 269.875 770.714 268.316 773.525 268.316C776.401 268.316 778.256 269.763 778.256 271.897V271.916C778.256 273.585 777.032 274.671 775.464 274.996V275.051C777.458 275.237 778.757 276.387 778.757 278.206V278.224C778.757 280.655 776.67 282.297 773.543 282.297Z" fill="black"/>
<rect x="812" y="90" width="211" height="211" rx="8" fill="#5FD86B"/>
<path d="M835.515 125.334C831.59 125.334 829.178 122.616 829.178 118.311V118.292C829.178 113.979 831.627 111.279 835.515 111.279C839.411 111.279 841.842 113.979 841.842 118.292V118.311C841.842 122.616 839.42 125.334 835.515 125.334ZM835.515 123.265C837.899 123.265 839.402 121.317 839.402 118.311V118.292C839.402 115.268 837.89 113.348 835.515 113.348C833.14 113.348 831.618 115.268 831.618 118.292V118.311C831.618 121.317 833.103 123.265 835.515 123.265ZM851.79 114.86V116.65H848.664V125H846.354V116.65H843.237V114.86H851.79ZM857.574 125.204C854.521 125.204 852.721 123.228 852.721 119.916V119.897C852.721 116.623 854.512 114.665 857.564 114.665C860.171 114.665 861.73 116.112 861.99 118.209V118.246H859.809L859.8 118.218C859.587 117.235 858.835 116.53 857.574 116.53C855.996 116.53 855.069 117.773 855.069 119.897V119.916C855.069 122.068 856.006 123.33 857.574 123.33C858.77 123.33 859.503 122.783 859.791 121.716L859.809 121.679L861.99 121.669L861.971 121.744C861.637 123.822 860.143 125.204 857.574 125.204ZM863.932 128.368V114.86H866.242V116.446H866.4C866.956 115.342 868.06 114.693 869.48 114.693C872.022 114.693 873.645 116.715 873.645 119.925V119.944C873.645 123.172 872.049 125.167 869.48 125.167C868.088 125.167 866.928 124.48 866.4 123.386H866.242V128.368H863.932ZM868.756 123.219C870.333 123.219 871.289 121.976 871.289 119.944V119.925C871.289 117.884 870.333 116.641 868.756 116.641C867.188 116.641 866.214 117.884 866.214 119.916V119.935C866.214 121.966 867.188 123.219 868.756 123.219ZM880.096 125.204C877.053 125.204 875.216 123.219 875.216 119.935V119.916C875.216 116.66 877.081 114.665 880.096 114.665C883.121 114.665 884.976 116.65 884.976 119.916V119.935C884.976 123.219 883.13 125.204 880.096 125.204ZM880.096 123.33C881.701 123.33 882.61 122.078 882.61 119.944V119.925C882.61 117.792 881.692 116.53 880.096 116.53C878.491 116.53 877.573 117.792 877.573 119.925V119.944C877.573 122.078 878.491 123.33 880.096 123.33ZM895.314 125H893.004V120.946H892.837C892.299 121.354 891.511 121.604 890.472 121.604C888.06 121.604 886.696 120.148 886.696 117.894V114.86H889.006V117.699C889.006 118.951 889.646 119.656 890.908 119.656C891.919 119.656 892.633 119.387 893.004 119.007V114.86H895.314V125ZM902.22 125.204C899.205 125.204 897.377 123.182 897.377 119.953V119.944C897.377 116.752 899.223 114.665 902.109 114.665C904.994 114.665 906.775 116.688 906.775 119.749V120.51H899.687C899.715 122.328 900.699 123.386 902.266 123.386C903.519 123.386 904.233 122.755 904.456 122.291L904.484 122.226H906.682L906.655 122.31C906.33 123.618 904.975 125.204 902.22 125.204ZM902.137 116.474C900.847 116.474 899.882 117.346 899.706 118.96H904.521C904.363 117.3 903.426 116.474 902.137 116.474ZM915.406 125V120.667H911.13V125H908.82V114.86H911.13V118.877H915.406V114.86H917.717V125H915.406ZM926.858 125V120.667H922.581V125H920.271V114.86H922.581V118.877H926.858V114.86H929.168V125H926.858ZM931.723 125V114.86H934.033V117.921H936.037C938.402 117.921 939.915 119.304 939.915 121.456V121.475C939.915 123.627 938.402 125 936.037 125H931.723ZM941.575 125V114.86H943.885V125H941.575ZM935.74 119.703H934.033V123.219H935.74C936.872 123.219 937.586 122.504 937.586 121.465V121.447C937.586 120.398 936.862 119.703 935.74 119.703ZM950.791 125.204C947.776 125.204 945.948 123.182 945.948 119.953V119.944C945.948 116.752 947.794 114.665 950.68 114.665C953.565 114.665 955.346 116.688 955.346 119.749V120.51H948.258C948.286 122.328 949.269 123.386 950.837 123.386C952.09 123.386 952.804 122.755 953.027 122.291L953.055 122.226H955.253L955.226 122.31C954.901 123.618 953.546 125.204 950.791 125.204ZM950.707 116.474C949.418 116.474 948.453 117.346 948.277 118.96H953.092C952.934 117.3 951.997 116.474 950.707 116.474ZM829.494 149V138.86H838.298V149H835.988V140.65H831.804V149H829.494ZM843.803 144.612C843.608 147.534 842.708 149.093 840.648 149.093C840.231 149.093 839.925 149.028 839.776 148.981V146.996C839.878 147.024 840.129 147.061 840.389 147.061C841.316 147.061 841.641 145.883 841.734 144.426L842.086 138.86H849.36V149H847.05V140.65H844.09L843.803 144.612ZM854.688 149.167C852.759 149.167 851.358 147.979 851.358 146.133V146.115C851.358 144.306 852.74 143.248 855.208 143.1L857.815 142.942V142.07C857.815 141.059 857.156 140.502 855.913 140.502C854.855 140.502 854.169 140.882 853.937 141.55L853.928 141.587H851.747L851.757 141.504C851.979 139.797 853.612 138.665 856.024 138.665C858.631 138.665 860.097 139.927 860.097 142.07V149H857.815V147.608H857.657C857.1 148.592 856.024 149.167 854.688 149.167ZM853.64 146.022C853.64 146.885 854.373 147.395 855.393 147.395C856.785 147.395 857.815 146.486 857.815 145.28V144.463L855.533 144.612C854.243 144.695 853.64 145.168 853.64 146.003V146.022ZM870.352 138.86V140.65H867.225V149H864.915V140.65H861.798V138.86H870.352ZM876.126 149.204C873.11 149.204 871.283 147.182 871.283 143.953V143.944C871.283 140.752 873.129 138.665 876.014 138.665C878.899 138.665 880.681 140.688 880.681 143.749V144.51H873.593C873.621 146.328 874.604 147.386 876.172 147.386C877.424 147.386 878.139 146.755 878.361 146.291L878.389 146.226H880.588L880.56 146.31C880.235 147.618 878.881 149.204 876.126 149.204ZM876.042 140.474C874.753 140.474 873.788 141.346 873.611 142.96H878.426C878.269 141.3 877.332 140.474 876.042 140.474ZM883.848 149H881.129L885.082 143.573L881.315 138.86H883.931L886.937 142.97H887.503V138.86H889.748V142.97H890.314L893.329 138.86H895.927L892.179 143.545L896.14 149H893.413L890.342 144.584H889.748V149H887.503V144.584H886.918L883.848 149ZM897.665 149V138.86H899.947V145.651H900.133L904.41 138.86H906.692V149H904.41V142.172H904.215L899.947 149H897.665Z" fill="black"/>
<path d="M829.336 253V244.578H836.148V253H834.789V245.703H830.695V253H829.336ZM840.355 249.703C840.175 252.023 839.456 253.078 838.05 253.078C837.761 253.078 837.542 253.031 837.433 252.992V251.766C837.503 251.789 837.714 251.82 837.917 251.82C838.691 251.82 839.003 250.844 839.089 249.594L839.449 244.578H844.956V253H843.597V245.703H840.667L840.355 249.703ZM849.507 253.148C847.905 253.148 846.694 252.18 846.694 250.648V250.633C846.694 249.133 847.803 248.266 849.764 248.148L852.178 248V247.234C852.178 246.195 851.546 245.633 850.288 245.633C849.28 245.633 848.616 246.008 848.397 246.664L848.389 246.688H847.03L847.038 246.641C847.257 245.32 848.538 244.43 850.335 244.43C852.389 244.43 853.538 245.484 853.538 247.234V253H852.178V251.758H852.053C851.522 252.656 850.639 253.148 849.507 253.148ZM848.085 250.617C848.085 251.469 848.811 251.969 849.788 251.969C851.171 251.969 852.178 251.062 852.178 249.859V249.094L849.928 249.234C848.647 249.312 848.085 249.766 848.085 250.602V250.617ZM861.26 253V249.188H857.088V253H855.729V244.578H857.088V248.062H861.26V244.578H862.619V253H861.26Z" fill="black" fill-opacity="0.6"/>
<path d="M976.629 254V243.257H976.462L973.178 245.539V243.016L976.639 240.613H979.431V254H976.629ZM982.635 254V252.117L986.949 247.858C988.832 246.031 989.343 245.354 989.343 244.417V244.389C989.343 243.248 988.563 242.45 987.283 242.45C985.975 242.45 985.075 243.322 985.075 244.593V244.639H982.487L982.477 244.602C982.477 242.032 984.481 240.27 987.413 240.27C990.168 240.27 992.098 241.847 992.098 244.157V244.185C992.098 245.706 991.309 246.968 988.87 249.222L986.392 251.532V251.746H992.293V254H982.635ZM999.375 240.26C1002.47 240.26 1004.9 242.468 1004.9 247.172V247.19C1004.9 251.671 1002.79 254.334 999.356 254.334C996.768 254.334 994.847 252.803 994.43 250.707L994.411 250.623H997.158L997.185 250.707C997.51 251.542 998.271 252.107 999.347 252.107C1001.29 252.107 1002.14 250.206 1002.24 247.766C1002.24 247.673 1002.24 247.571 1002.24 247.469H1002.06C1001.57 248.499 1000.46 249.426 998.605 249.426C995.998 249.426 994.244 247.571 994.244 245.038V245.02C994.244 242.283 996.36 240.26 999.375 240.26ZM999.375 247.357C1000.76 247.357 1001.82 246.374 1001.82 244.992V244.973C1001.82 243.572 1000.76 242.487 999.393 242.487C998.039 242.487 996.953 243.554 996.953 244.917V244.936C996.953 246.346 997.974 247.357 999.375 247.357Z" fill="black" fill-opacity="0.6"/>
<path d="M833.266 283.812V281.102C830.656 281.055 828.922 279.383 828.922 276.797V276.781C828.922 274.188 830.656 272.516 833.266 272.477V269.727H834.578V272.477C837.18 272.523 838.914 274.188 838.914 276.781V276.797C838.914 279.391 837.18 281.062 834.578 281.102V283.812H833.266ZM833.266 279.938V273.641C831.445 273.68 830.289 274.867 830.289 276.781V276.797C830.289 278.703 831.445 279.891 833.266 279.938ZM834.578 279.938C836.391 279.898 837.547 278.711 837.547 276.797V276.781C837.547 274.875 836.391 273.688 834.578 273.641V279.938ZM843.058 281.148C841.456 281.148 840.245 280.18 840.245 278.648V278.633C840.245 277.133 841.355 276.266 843.316 276.148L845.73 276V275.234C845.73 274.195 845.097 273.633 843.839 273.633C842.831 273.633 842.167 274.008 841.949 274.664L841.941 274.688H840.581L840.589 274.641C840.808 273.32 842.089 272.43 843.886 272.43C845.941 272.43 847.089 273.484 847.089 275.234V281H845.73V279.758H845.605C845.074 280.656 844.191 281.148 843.058 281.148ZM841.636 278.617C841.636 279.469 842.363 279.969 843.339 279.969C844.722 279.969 845.73 279.062 845.73 277.859V277.094L843.48 277.234C842.199 277.312 841.636 277.766 841.636 278.602V278.617ZM851.069 277.164H850.639V281H849.28V272.578H850.639V276.102H851.069L854.327 272.578H855.96L852.171 276.547L856.108 281H854.366L851.069 277.164ZM863.252 272.578V273.703H860.526V281H859.166V273.703H856.44V272.578H863.252Z" fill="black"/>
<path d="M999.503 282.343C996.201 282.343 994.188 279.634 994.188 275.311V275.292C994.188 270.96 996.201 268.27 999.503 268.27C1002.82 268.27 1004.82 270.96 1004.82 275.292V275.311C1004.82 279.634 1002.82 282.343 999.503 282.343ZM999.503 280.126C1001.09 280.126 1001.99 278.335 1001.99 275.311V275.292C1001.99 272.259 1001.09 270.487 999.503 270.487C997.926 270.487 997.026 272.259 997.026 275.292V275.311C997.026 278.335 997.926 280.126 999.503 280.126Z" fill="black"/>
</g>
<g clip-path="url(#clip0_5921_115559)">
<g style="mix-blend-mode:multiply">
<path d="M115 42C115 36.4772 119.477 32 125 32H254C259.523 32 264 36.4772 264 42V74H115V42Z" fill="#EAEEF2"/>
<path d="M140.62 60V47.4H146.272C147.712 47.4 148.846 47.796 149.566 48.516C150.124 49.074 150.412 49.758 150.412 50.64C150.412 52.152 149.548 52.962 148.612 53.448C150.088 53.952 151.114 54.798 151.114 56.544C151.114 58.794 149.26 60 146.452 60H140.62ZM142.798 52.71H145.822C147.244 52.71 148.198 52.152 148.198 50.964C148.198 49.974 147.406 49.362 145.984 49.362H142.798V52.71ZM142.798 58.038H146.47C147.982 58.038 148.9 57.444 148.9 56.274C148.9 55.212 148.054 54.582 146.308 54.582H142.798V58.038ZM152.858 60V50.496H154.982V56.868C156.476 54.744 157.97 52.62 159.482 50.496H161.534V60H159.428V53.664L154.91 60H152.858ZM162.668 62.286V58.128H163.694C164.486 56.544 164.756 54.33 164.756 51.666V50.496H172.118V58.128H173.468L173.18 62.286H171.362V60H164.702L164.486 62.286H162.668ZM165.926 58.128H169.94V52.368H166.808V53.628C166.808 55.356 166.484 56.958 165.926 58.128ZM179.677 60V50.496H181.855V54.348H186.049V50.496H188.227V60H186.049V56.166H181.855V60H179.677ZM198.436 60H196.276V58.83C195.628 59.604 194.638 60.198 193.198 60.198C191.398 60.198 189.814 59.172 189.814 57.228C189.814 55.122 191.452 54.114 193.666 54.114C194.818 54.114 195.556 54.276 196.294 54.51V54.33C196.294 53.016 195.466 52.296 193.954 52.296C192.892 52.296 192.1 52.53 191.236 52.89L190.642 51.144C191.686 50.676 192.712 50.352 194.26 50.352C197.068 50.352 198.436 51.828 198.436 54.366V60ZM196.33 56.562V56.022C195.772 55.806 194.998 55.644 194.152 55.644C192.784 55.644 191.974 56.202 191.974 57.156C191.974 58.056 192.784 58.56 193.81 58.56C195.25 58.56 196.33 57.75 196.33 56.562ZM200.454 60.108C200.112 60.108 199.5 60.036 199.176 59.982L199.338 58.2C199.482 58.236 199.824 58.272 199.968 58.272C201.066 58.272 201.822 57.732 201.822 50.496H209.004V60H206.826V52.368H203.856C203.856 59.262 202.56 60.108 200.454 60.108ZM215.759 60.216C212.861 60.216 210.719 58.002 210.719 55.266C210.719 52.548 212.879 50.298 215.795 50.298C218.711 50.298 220.853 52.512 220.853 55.266C220.853 57.966 218.693 60.216 215.759 60.216ZM215.795 58.326C217.559 58.326 218.675 56.94 218.675 55.266C218.675 53.592 217.469 52.206 215.759 52.206C214.013 52.206 212.897 53.574 212.897 55.266C212.897 56.922 214.103 58.326 215.795 58.326ZM222.571 60V50.496H229.303V52.368H224.749V60H222.571ZM238.5 60H236.34V58.83C235.692 59.604 234.702 60.198 233.262 60.198C231.462 60.198 229.878 59.172 229.878 57.228C229.878 55.122 231.516 54.114 233.73 54.114C234.882 54.114 235.62 54.276 236.358 54.51V54.33C236.358 53.016 235.53 52.296 234.018 52.296C232.956 52.296 232.164 52.53 231.3 52.89L230.706 51.144C231.75 50.676 232.776 50.352 234.324 50.352C237.132 50.352 238.5 51.828 238.5 54.366V60ZM236.394 56.562V56.022C235.836 55.806 235.062 55.644 234.216 55.644C232.848 55.644 232.038 56.202 232.038 57.156C232.038 58.056 232.848 58.56 233.874 58.56C235.314 58.56 236.394 57.75 236.394 56.562Z" fill="#6F849E"/>
</g>
<g filter="url(#filter1_d_5921_115559)">
<path d="M268 34C268 28.4772 272.477 24 278 24H401C406.523 24 411 28.4772 411 34V74H268V34Z" fill="white" shape-rendering="crispEdges"/>
<path d="M293.62 56V43.4H295.834V49.736L301.828 43.4H304.546L299.308 48.818L304.78 56H302.098L297.796 50.33L295.834 52.346V56H293.62ZM313.885 56H311.725V54.83C311.077 55.604 310.087 56.198 308.647 56.198C306.847 56.198 305.263 55.172 305.263 53.228C305.263 51.122 306.901 50.114 309.115 50.114C310.267 50.114 311.005 50.276 311.743 50.51V50.33C311.743 49.016 310.915 48.296 309.403 48.296C308.341 48.296 307.549 48.53 306.685 48.89L306.091 47.144C307.135 46.676 308.161 46.352 309.709 46.352C312.517 46.352 313.885 47.828 313.885 50.366V56ZM311.779 52.562V52.022C311.221 51.806 310.447 51.644 309.601 51.644C308.233 51.644 307.423 52.202 307.423 53.156C307.423 54.056 308.233 54.56 309.259 54.56C310.699 54.56 311.779 53.75 311.779 52.562ZM318.009 56V48.368H314.949V46.496H323.265V48.368H320.205V56H318.009ZM328.849 56.216C326.095 56.216 323.971 54.218 323.971 51.248C323.971 48.53 325.897 46.298 328.615 46.298C331.639 46.298 333.169 48.674 333.169 51.41C333.169 51.554 333.151 51.914 333.133 52.022H326.149C326.383 53.57 327.481 54.434 328.885 54.434C329.947 54.434 330.703 54.038 331.459 53.3L332.737 54.434C331.837 55.514 330.595 56.216 328.849 56.216ZM326.131 50.582H331.009C330.865 49.178 330.037 48.08 328.597 48.08C327.265 48.08 326.329 49.106 326.131 50.582ZM334.856 56V46.496H341.588V48.368H337.034V56H334.856ZM347.329 56.216C344.431 56.216 342.289 54.002 342.289 51.266C342.289 48.548 344.449 46.298 347.365 46.298C350.281 46.298 352.423 48.512 352.423 51.266C352.423 53.966 350.263 56.216 347.329 56.216ZM347.365 54.326C349.129 54.326 350.245 52.94 350.245 51.266C350.245 49.592 349.039 48.206 347.329 48.206C345.583 48.206 344.467 49.574 344.467 51.266C344.467 52.922 345.673 54.326 347.365 54.326ZM354.141 58.88V46.496H356.319V48.08C357.021 47.09 358.011 46.298 359.541 46.298C361.791 46.298 363.969 48.08 363.969 51.266C363.969 54.416 361.809 56.198 359.541 56.198C357.975 56.198 356.985 55.406 356.319 54.524V58.88H354.141ZM359.037 54.308C360.531 54.308 361.755 53.138 361.755 51.23C361.755 49.394 360.513 48.188 359.037 48.188C357.561 48.188 356.265 49.412 356.265 51.266C356.265 53.102 357.561 54.308 359.037 54.308ZM365.7 56V46.496H367.824V52.868C369.318 50.744 370.812 48.62 372.324 46.496H374.376V56H372.27V49.664L367.752 56H365.7ZM376.608 56V46.496H378.732V52.868C380.226 50.744 381.72 48.62 383.232 46.496H385.284V56H383.178V49.664L378.66 56H376.608Z" fill="#2E374D"/>
</g>
<g style="mix-blend-mode:multiply">
<path d="M415 42C415 36.4772 419.477 32 425 32H580C585.523 32 590 36.4772 590 42V74H415V42Z" fill="#EAEEF2"/>
<path d="M440.62 60V47.4H442.978L446.812 53.358L450.646 47.4H453.004V60H450.79V50.964L446.812 56.904H446.74L442.798 51V60H440.62ZM455.495 60V50.496H457.619V56.868C459.113 54.744 460.607 52.62 462.119 50.496H464.171V60H462.065V53.664L457.547 60H455.495ZM466.403 60V50.496H468.581V54.348H472.775V50.496H474.953V60H472.775V56.166H468.581V60H466.403ZM477.188 60V50.496H479.312V56.868C480.806 54.744 482.3 52.62 483.812 50.496H485.864V60H483.758V53.664L479.24 60H477.188ZM492.489 60.216C489.663 60.216 487.575 58.002 487.575 55.302V55.266C487.575 52.566 489.663 50.298 492.507 50.298C494.307 50.298 495.423 50.964 496.305 51.936L494.955 53.394C494.289 52.692 493.587 52.206 492.489 52.206C490.905 52.206 489.753 53.574 489.753 55.23V55.266C489.753 56.958 490.923 58.326 492.597 58.326C493.623 58.326 494.379 57.84 495.063 57.138L496.377 58.434C495.441 59.478 494.343 60.216 492.489 60.216ZM499.826 60V52.368H496.766V50.496H505.082V52.368H502.022V60H499.826ZM510.665 60.216C507.911 60.216 505.787 58.218 505.787 55.248C505.787 52.53 507.713 50.298 510.431 50.298C513.455 50.298 514.985 52.674 514.985 55.41C514.985 55.554 514.967 55.914 514.949 56.022H507.965C508.199 57.57 509.297 58.434 510.701 58.434C511.763 58.434 512.519 58.038 513.275 57.3L514.553 58.434C513.653 59.514 512.411 60.216 510.665 60.216ZM507.947 54.582H512.825C512.681 53.178 511.853 52.08 510.413 52.08C509.081 52.08 508.145 53.106 507.947 54.582ZM516.673 62.88V50.496H518.851V52.08C519.553 51.09 520.543 50.298 522.073 50.298C524.323 50.298 526.501 52.08 526.501 55.266C526.501 58.416 524.341 60.198 522.073 60.198C520.507 60.198 519.517 59.406 518.851 58.524V62.88H516.673ZM521.569 58.308C523.063 58.308 524.287 57.138 524.287 55.23C524.287 53.394 523.045 52.188 521.569 52.188C520.093 52.188 518.797 53.412 518.797 55.266C518.797 57.102 520.093 58.308 521.569 58.308ZM532.623 60.216C529.797 60.216 527.709 58.002 527.709 55.302V55.266C527.709 52.566 529.797 50.298 532.641 50.298C534.441 50.298 535.557 50.964 536.439 51.936L535.089 53.394C534.423 52.692 533.721 52.206 532.623 52.206C531.039 52.206 529.887 53.574 529.887 55.23V55.266C529.887 56.958 531.057 58.326 532.731 58.326C533.757 58.326 534.513 57.84 535.197 57.138L536.511 58.434C535.575 59.478 534.477 60.216 532.623 60.216ZM539.961 60V52.368H536.901V50.496H545.217V52.368H542.157V60H539.961ZM546.444 60V50.496H551.322C553.212 50.496 554.454 51.414 554.454 52.872C554.454 54.078 553.734 54.69 552.924 55.05C554.076 55.374 554.886 56.076 554.886 57.426C554.886 59.028 553.536 60 551.376 60H546.444ZM548.586 58.272H551.052C552.114 58.272 552.672 57.786 552.672 57.048C552.672 56.364 552.114 55.896 550.944 55.896H548.586V58.272ZM548.586 54.42H550.818C551.736 54.42 552.24 53.934 552.24 53.25C552.24 52.638 551.826 52.17 550.854 52.17H548.586V54.42ZM564.535 60H562.375V58.83C561.727 59.604 560.737 60.198 559.297 60.198C557.497 60.198 555.913 59.172 555.913 57.228C555.913 55.122 557.551 54.114 559.765 54.114C560.917 54.114 561.655 54.276 562.393 54.51V54.33C562.393 53.016 561.565 52.296 560.053 52.296C558.991 52.296 558.199 52.53 557.335 52.89L556.741 51.144C557.785 50.676 558.811 50.352 560.359 50.352C563.167 50.352 564.535 51.828 564.535 54.366V60ZM562.429 56.562V56.022C561.871 55.806 561.097 55.644 560.251 55.644C558.883 55.644 558.073 56.202 558.073 57.156C558.073 58.056 558.883 58.56 559.909 58.56C561.349 58.56 562.429 57.75 562.429 56.562Z" fill="#6F849E"/>
</g>
<g style="mix-blend-mode:multiply">
<path d="M594 42C594 36.4772 598.477 32 604 32H701C706.523 32 711 36.4772 711 42V74H594V42Z" fill="#EAEEF2"/>
<path d="M619.62 60V47.4H624.588C627.522 47.4 629.376 49.074 629.376 51.648C629.376 54.474 627.108 55.95 624.336 55.95H621.834V60H619.62ZM621.834 53.952H624.408C626.082 53.952 627.126 53.016 627.126 51.666C627.126 50.19 626.064 49.416 624.408 49.416H621.834V53.952ZM638.865 60H636.705V58.83C636.057 59.604 635.067 60.198 633.627 60.198C631.827 60.198 630.243 59.172 630.243 57.228C630.243 55.122 631.881 54.114 634.095 54.114C635.247 54.114 635.985 54.276 636.723 54.51V54.33C636.723 53.016 635.895 52.296 634.383 52.296C633.321 52.296 632.529 52.53 631.665 52.89L631.071 51.144C632.115 50.676 633.141 50.352 634.689 50.352C637.497 50.352 638.865 51.828 638.865 54.366V60ZM636.759 56.562V56.022C636.201 55.806 635.427 55.644 634.581 55.644C633.213 55.644 632.403 56.202 632.403 57.156C632.403 58.056 633.213 58.56 634.239 58.56C635.679 58.56 636.759 57.75 636.759 56.562ZM645.312 49.398C643.782 49.398 642.72 48.426 642.486 46.896L643.818 46.644C644.052 47.4 644.502 47.868 645.312 47.868C646.122 47.868 646.572 47.4 646.806 46.644L648.12 46.896C647.886 48.426 646.842 49.398 645.312 49.398ZM640.956 60V50.496H643.08V56.868C644.574 54.744 646.068 52.62 647.58 50.496H649.632V60H647.526V53.664L643.008 60H640.956ZM656.382 60.216C653.484 60.216 651.342 58.002 651.342 55.266C651.342 52.548 653.502 50.298 656.418 50.298C659.334 50.298 661.476 52.512 661.476 55.266C661.476 57.966 659.316 60.216 656.382 60.216ZM656.418 58.326C658.182 58.326 659.298 56.94 659.298 55.266C659.298 53.592 658.092 52.206 656.382 52.206C654.636 52.206 653.52 53.574 653.52 55.266C653.52 56.922 654.726 58.326 656.418 58.326ZM663.194 60V50.496H665.372V54.348H669.566V50.496H671.744V60H669.566V56.166H665.372V60H663.194ZM673.979 60V50.496H676.157V53.826H678.155C680.297 53.826 681.935 54.762 681.935 56.832C681.935 58.794 680.549 60 678.317 60H673.979ZM676.157 58.236H678.029C679.127 58.236 679.757 57.75 679.757 56.832C679.757 55.986 679.109 55.518 677.993 55.518H676.157V58.236ZM683.375 60V50.496H685.553V60H683.375Z" fill="#6F849E"/>
</g>
<g style="mix-blend-mode:multiply">
<path d="M715 42C715 36.4772 719.477 32 725 32H893C898.523 32 903 36.4772 903 42V74H715V42Z" fill="#EAEEF2"/>
<path d="M743.716 60V49.452H739.72V47.4H749.944V49.452H745.948V60H743.716ZM751.54 60V50.496H753.664V56.868C755.158 54.744 756.652 52.62 758.164 50.496H760.216V60H758.11V53.664L753.592 60H751.54ZM762.448 60V50.496H770.926V60H768.748V52.368H764.626V60H762.448ZM776.961 62.286V58.128H777.987C778.779 56.544 779.049 54.33 779.049 51.666V50.496H786.411V58.128H787.761L787.473 62.286H785.655V60H778.995L778.779 62.286H776.961ZM780.219 58.128H784.233V52.368H781.101V53.628C781.101 55.356 780.777 56.958 780.219 58.128ZM793.591 60.216C790.693 60.216 788.551 58.002 788.551 55.266C788.551 52.548 790.711 50.298 793.627 50.298C796.543 50.298 798.685 52.512 798.685 55.266C798.685 57.966 796.525 60.216 793.591 60.216ZM793.627 58.326C795.391 58.326 796.507 56.94 796.507 55.266C796.507 53.592 795.301 52.206 793.591 52.206C791.845 52.206 790.729 53.574 790.729 55.266C790.729 56.922 791.935 58.326 793.627 58.326ZM800.331 60.108C799.989 60.108 799.377 60.036 799.053 59.982L799.215 58.2C799.359 58.236 799.701 58.272 799.845 58.272C800.943 58.272 801.699 57.732 801.699 50.496H808.881V60H806.703V52.368H803.733C803.733 59.262 802.437 60.108 800.331 60.108ZM809.912 60L813.638 54.492L810.056 50.496H812.594L816.536 55.158V50.496H818.714V55.158L822.674 50.496H825.212L821.63 54.492L825.338 60H822.89L820.172 55.95L818.714 57.606V60H816.536V57.606L815.078 55.95L812.36 60H809.912ZM826.368 60V50.496H828.546V54.348H832.74V50.496H834.918V60H832.74V56.166H828.546V60H826.368ZM837.153 60V50.496H839.277V56.868C840.771 54.744 842.265 52.62 843.777 50.496H845.829V60H843.723V53.664L839.205 60H837.153ZM848.061 60V50.496H850.221V55.05L854.361 50.496H856.917L853.227 54.492L857.223 60H854.649L851.769 56.076L850.221 57.714V60H848.061ZM862.749 60.216C859.851 60.216 857.709 58.002 857.709 55.266C857.709 52.548 859.869 50.298 862.785 50.298C865.701 50.298 867.843 52.512 867.843 55.266C867.843 57.966 865.683 60.216 862.749 60.216ZM862.785 58.326C864.549 58.326 865.665 56.94 865.665 55.266C865.665 53.592 864.459 52.206 862.749 52.206C861.003 52.206 859.887 53.574 859.887 55.266C859.887 56.922 861.093 58.326 862.785 58.326ZM869.561 60V50.496H874.439C876.329 50.496 877.571 51.414 877.571 52.872C877.571 54.078 876.851 54.69 876.041 55.05C877.193 55.374 878.003 56.076 878.003 57.426C878.003 59.028 876.653 60 874.493 60H869.561ZM871.703 58.272H874.169C875.231 58.272 875.789 57.786 875.789 57.048C875.789 56.364 875.231 55.896 874.061 55.896H871.703V58.272ZM871.703 54.42H873.935C874.853 54.42 875.357 53.934 875.357 53.25C875.357 52.638 874.943 52.17 873.971 52.17H871.703V54.42Z" fill="#6F849E"/>
</g>
</g>
<defs>
<filter id="filter0_d_5921_115559" x="75" y="34" width="1004" height="323" filterUnits="userSpaceOnUse" color-interpolation-filters="sRGB">
<feFlood flood-opacity="0" result="BackgroundImageFix"/>
<feColorMatrix in="SourceAlpha" type="matrix" values="0 0 0 0 0 0 0 0 0 0 0 0 0 0 0 0 0 0 127 0" result="hardAlpha"/>
<feOffset/>
<feGaussianBlur stdDeviation="20"/>
<feComposite in2="hardAlpha" operator="out"/>
<feColorMatrix type="matrix" values="0 0 0 0 0 0 0 0 0 0 0 0 0 0 0 0 0 0 0.2 0"/>
<feBlend mode="normal" in2="BackgroundImageFix" result="effect1_dropShadow_5921_115559"/>
<feBlend mode="normal" in="SourceGraphic" in2="effect1_dropShadow_5921_115559" result="shape"/>
</filter>
<filter id="filter1_d_5921_115559" x="248" y="4" width="183" height="90" filterUnits="userSpaceOnUse" color-interpolation-filters="sRGB">
<feFlood flood-opacity="0" result="BackgroundImageFix"/>
<feColorMatrix in="SourceAlpha" type="matrix" values="0 0 0 0 0 0 0 0 0 0 0 0 0 0 0 0 0 0 127 0" result="hardAlpha"/>
<feOffset/>
<feGaussianBlur stdDeviation="10"/>
<feComposite in2="hardAlpha" operator="out"/>
<feColorMatrix type="matrix" values="0 0 0 0 0 0 0 0 0 0 0 0 0 0 0 0 0 0 0.1 0"/>
<feBlend mode="normal" in2="BackgroundImageFix" result="effect1_dropShadow_5921_115559"/>
<feBlend mode="normal" in="SourceGraphic" in2="effect1_dropShadow_5921_115559" result="shape"/>
</filter>
<clipPath id="clip0_5921_115559">
<rect width="1139" height="74" fill="white"/>
</clipPath>
</defs>
</svg>
