<svg width="211" height="211" viewBox="0 0 211 211" fill="none" xmlns="http://www.w3.org/2000/svg">
<rect width="211" height="211" rx="8" fill="#FFCAC1"/>
<path d="M17.7441 35V21.6128H23.3384C25.8804 21.6128 27.4111 22.8931 27.4111 24.9434V24.9619C27.4111 26.3628 26.3721 27.606 25.0269 27.8193V27.9863C26.8267 28.1533 28.0698 29.4521 28.0698 31.187V31.2056C28.0698 33.5527 26.3257 35 23.4683 35H17.7441ZM22.7539 23.4775H20.1377V27.2534H22.4478C24.1455 27.2534 25.0454 26.5947 25.0454 25.3794V25.3608C25.0454 24.1733 24.2012 23.4775 22.7539 23.4775ZM22.8281 28.9512H20.1377V33.1353H22.9209C24.6836 33.1353 25.6206 32.4023 25.6206 31.0386V31.02C25.6206 29.6655 24.6558 28.9512 22.8281 28.9512ZM34.7932 35V24.8599H43.5974V35H41.2874V26.6504H37.1033V35H34.7932ZM46.1613 38.3677V24.8599H48.4714V26.4463H48.6291C49.1857 25.3423 50.2897 24.6929 51.7092 24.6929C54.2511 24.6929 55.8747 26.7153 55.8747 29.9253V29.9438C55.8747 33.1724 54.279 35.167 51.7092 35.167C50.3176 35.167 49.1579 34.4805 48.6291 33.3857H48.4714V38.3677H46.1613ZM50.9855 33.2188C52.5627 33.2188 53.5182 31.9756 53.5182 29.9438V29.9253C53.5182 27.8843 52.5627 26.6411 50.9855 26.6411C49.4177 26.6411 48.4435 27.8843 48.4435 29.916V29.9346C48.4435 31.9663 49.4177 33.2188 50.9855 33.2188ZM62.3257 35.2041C59.2828 35.2041 57.4459 33.2188 57.4459 29.9346V29.916C57.4459 26.6597 59.3106 24.665 62.3257 24.665C65.3502 24.665 67.2056 26.6504 67.2056 29.916V29.9346C67.2056 33.2188 65.3594 35.2041 62.3257 35.2041ZM62.3257 33.3301C63.9307 33.3301 64.8399 32.0776 64.8399 29.9438V29.9253C64.8399 27.7915 63.9215 26.5298 62.3257 26.5298C60.7208 26.5298 59.8023 27.7915 59.8023 29.9253V29.9438C59.8023 32.0776 60.7208 33.3301 62.3257 33.3301ZM77.479 37.644V35H69.2592V24.8599H71.5693V33.2188H75.7534V24.8599H78.0634V33.2188H79.622V37.644H77.479ZM85.5072 35.2041C82.492 35.2041 80.6644 33.1816 80.6644 29.9531V29.9438C80.6644 26.7524 82.5106 24.665 85.3959 24.665C88.2811 24.665 90.0624 26.6875 90.0624 29.749V30.5098H82.9745C83.0023 32.3281 83.9857 33.3857 85.5536 33.3857C86.806 33.3857 87.5204 32.7549 87.743 32.291L87.7709 32.2261H89.9696L89.9417 32.3096C89.617 33.6177 88.2626 35.2041 85.5072 35.2041ZM85.4237 26.4741C84.1341 26.4741 83.1693 27.3462 82.993 28.9604H87.808C87.6502 27.2998 86.7132 26.4741 85.4237 26.4741ZM92.988 37.644H90.8728V33.1909H91.6706C92.4221 32.7456 92.7375 31.5488 92.8303 30.1851L93.1829 24.8599H100.818V33.1909H102.377V37.644H100.261V35H92.988V37.644ZM98.4988 33.1909V26.6689H95.1589L94.8992 30.3057C94.8157 31.4189 94.5837 32.3931 94.1384 33.0332V33.1909H98.4988ZM104.913 38.5625C104.634 38.5625 104.31 38.5532 104.031 38.5254V36.7534C104.217 36.772 104.477 36.7812 104.718 36.7812C105.664 36.7812 106.23 36.3916 106.481 35.4731L106.601 35.0093L102.974 24.8599H105.497L107.863 32.7827H108.039L110.396 24.8599H112.826L109.19 35.2134C108.318 37.7554 107.158 38.5625 104.913 38.5625ZM114.555 38.3677V24.8599H116.865V26.4463H117.023C117.58 25.3423 118.684 24.6929 120.103 24.6929C122.645 24.6929 124.269 26.7153 124.269 29.9253V29.9438C124.269 33.1724 122.673 35.167 120.103 35.167C118.711 35.167 117.552 34.4805 117.023 33.3857H116.865V38.3677H114.555ZM119.379 33.2188C120.957 33.2188 121.912 31.9756 121.912 29.9438V29.9253C121.912 27.8843 120.957 26.6411 119.379 26.6411C117.812 26.6411 116.837 27.8843 116.837 29.916V29.9346C116.837 31.9663 117.812 33.2188 119.379 33.2188ZM130.683 35.2041C127.667 35.2041 125.84 33.1816 125.84 29.9531V29.9438C125.84 26.7524 127.686 24.665 130.571 24.665C133.456 24.665 135.238 26.6875 135.238 29.749V30.5098H128.15C128.178 32.3281 129.161 33.3857 130.729 33.3857C131.981 33.3857 132.696 32.7549 132.918 32.291L132.946 32.2261H135.145L135.117 32.3096C134.792 33.6177 133.438 35.2041 130.683 35.2041ZM130.599 26.4741C129.309 26.4741 128.345 27.3462 128.168 28.9604H132.983C132.826 27.2998 131.889 26.4741 130.599 26.4741ZM21.9746 59.2134C18.7461 59.2134 17.0298 57.0425 17.0298 53.0439V53.0254C17.0298 47.7466 18.644 45.3438 22.355 45.1953L23.5518 45.1489C24.3774 45.1211 25.3979 44.9727 26.2051 44.6851V46.5498C25.8247 46.8003 24.7671 47.0044 23.6816 47.0508L22.522 47.0972C20.2305 47.1807 19.21 48.2197 18.8667 50.7524L18.8389 50.938H19.0059C19.6646 49.7227 20.8428 49.0547 22.4106 49.0547C25.1196 49.0547 26.8638 50.9658 26.8638 53.9346V53.9531C26.8638 57.1724 24.999 59.2134 21.9746 59.2134ZM21.9468 57.3394C23.5703 57.3394 24.5073 56.0776 24.5073 53.9995V53.981C24.5073 52.0049 23.5703 50.8638 21.9468 50.8638C20.3232 50.8638 19.377 52.0049 19.377 53.981V53.9995C19.377 56.0869 20.314 57.3394 21.9468 57.3394ZM31.7191 59.167C29.7894 59.167 28.3886 57.9795 28.3886 56.1333V56.1147C28.3886 54.3057 29.7709 53.248 32.2387 53.0996L34.8456 52.9419V52.0698C34.8456 51.0586 34.1869 50.502 32.9437 50.502C31.8861 50.502 31.1996 50.8823 30.9677 51.5503L30.9584 51.5874H28.7782L28.7875 51.5039C29.0101 49.7969 30.643 48.665 33.0551 48.665C35.662 48.665 37.1278 49.9268 37.1278 52.0698V59H34.8456V57.6084H34.6879C34.1312 58.5918 33.0551 59.167 31.7191 59.167ZM30.6708 56.022C30.6708 56.8848 31.4037 57.395 32.4242 57.395C33.8158 57.395 34.8456 56.4858 34.8456 55.2798V54.4634L32.5634 54.6118C31.2738 54.6953 30.6708 55.1685 30.6708 56.0034V56.022ZM46.2229 59V54.6675H41.9461V59H39.636V48.8599H41.9461V52.877H46.2229V48.8599H48.533V59H46.2229ZM53.9172 54.6211H53.3976V59H51.0876V48.8599H53.3976V52.9326H53.8986L57.2385 48.8599H59.8918L55.8005 53.5542L60.0866 59H57.2941L53.9172 54.6211ZM61.7134 62.3677V48.8599H64.0235V50.4463H64.1812C64.7379 49.3423 65.8419 48.6929 67.2613 48.6929C69.8033 48.6929 71.4268 50.7153 71.4268 53.9253V53.9438C71.4268 57.1724 69.8311 59.167 67.2613 59.167C65.8697 59.167 64.71 58.4805 64.1812 57.3857H64.0235V62.3677H61.7134ZM66.5377 57.2188C68.1148 57.2188 69.0704 55.9756 69.0704 53.9438V53.9253C69.0704 51.8843 68.1148 50.6411 66.5377 50.6411C64.9698 50.6411 63.9957 51.8843 63.9957 53.916V53.9346C63.9957 55.9663 64.9698 57.2188 66.5377 57.2188ZM77.8779 59.2041C74.8349 59.2041 72.998 57.2188 72.998 53.9346V53.916C72.998 50.6597 74.8628 48.665 77.8779 48.665C80.9023 48.665 82.7578 50.6504 82.7578 53.916V53.9346C82.7578 57.2188 80.9116 59.2041 77.8779 59.2041ZM77.8779 57.3301C79.4829 57.3301 80.3921 56.0776 80.3921 53.9438V53.9253C80.3921 51.7915 79.4736 50.5298 77.8779 50.5298C76.2729 50.5298 75.3545 51.7915 75.3545 53.9253V53.9438C75.3545 56.0776 76.2729 57.3301 77.8779 57.3301ZM91.9642 48.8599V50.6504H88.8377V59H86.5277V50.6504H83.4105V48.8599H91.9642ZM97.7473 59.2041C94.6951 59.2041 92.8953 57.228 92.8953 53.916V53.8975C92.8953 50.6226 94.6858 48.665 97.738 48.665C100.345 48.665 101.904 50.1123 102.163 52.209V52.2461H99.9831L99.9739 52.2183C99.7605 51.2349 99.009 50.5298 97.7473 50.5298C96.1702 50.5298 95.2424 51.7729 95.2424 53.8975V53.916C95.2424 56.0684 96.1794 57.3301 97.7473 57.3301C98.9441 57.3301 99.677 56.7827 99.9646 55.7158L99.9831 55.6787L102.163 55.6694L102.145 55.7437C101.811 57.8218 100.317 59.2041 97.7473 59.2041ZM111.435 48.8599V50.6504H108.308V59H105.998V50.6504H102.881V48.8599H111.435ZM113.173 59V48.8599H117.969C120.01 48.8599 121.207 49.8896 121.207 51.4482V51.4668C121.207 52.5244 120.474 53.4614 119.444 53.6377V53.7954C120.78 53.9438 121.662 54.8716 121.662 56.0962V56.1147C121.662 57.8403 120.289 59 118.034 59H113.173ZM115.455 53.0718H117.236C118.377 53.0718 118.934 52.6079 118.934 51.7637V51.7451C118.934 50.9751 118.442 50.4556 117.422 50.4556H115.455V53.0718ZM115.455 57.4043H117.617C118.73 57.4043 119.296 56.8848 119.296 56.0127V55.9941C119.296 55.0757 118.665 54.6211 117.403 54.6211H115.455V57.4043ZM126.526 59.167C124.597 59.167 123.196 57.9795 123.196 56.1333V56.1147C123.196 54.3057 124.578 53.248 127.046 53.0996L129.653 52.9419V52.0698C129.653 51.0586 128.994 50.502 127.751 50.502C126.693 50.502 126.007 50.8823 125.775 51.5503L125.766 51.5874H123.585L123.595 51.5039C123.817 49.7969 125.45 48.665 127.862 48.665C130.469 48.665 131.935 49.9268 131.935 52.0698V59H129.653V57.6084H129.495C128.938 58.5918 127.862 59.167 126.526 59.167ZM125.478 56.022C125.478 56.8848 126.211 57.395 127.231 57.395C128.623 57.395 129.653 56.4858 129.653 55.2798V54.4634L127.371 54.6118C126.081 54.6953 125.478 55.1685 125.478 56.0034V56.022Z" fill="black"/>
<path d="M17.3359 163V154.578H24.1484V163H22.7891V155.703H18.6953V163H17.3359ZM28.3549 159.703C28.1752 162.023 27.4564 163.078 26.0502 163.078C25.7611 163.078 25.5424 163.031 25.433 162.992V161.766C25.5033 161.789 25.7142 161.82 25.9174 161.82C26.6908 161.82 27.0033 160.844 27.0892 159.594L27.4486 154.578H32.9564V163H31.5971V155.703H28.6674L28.3549 159.703ZM37.5066 163.148C35.9051 163.148 34.6941 162.18 34.6941 160.648V160.633C34.6941 159.133 35.8035 158.266 37.7644 158.148L40.1785 158V157.234C40.1785 156.195 39.5457 155.633 38.2879 155.633C37.2801 155.633 36.616 156.008 36.3972 156.664L36.3894 156.688H35.0301L35.0379 156.641C35.2566 155.32 36.5379 154.43 38.3347 154.43C40.3894 154.43 41.5379 155.484 41.5379 157.234V163H40.1785V161.758H40.0535C39.5222 162.656 38.6394 163.148 37.5066 163.148ZM36.0847 160.617C36.0847 161.469 36.8113 161.969 37.7879 161.969C39.1707 161.969 40.1785 161.062 40.1785 159.859V159.094L37.9285 159.234C36.6472 159.312 36.0847 159.766 36.0847 160.602V160.617ZM49.2599 163V159.188H45.0881V163H43.7287V154.578H45.0881V158.062H49.2599V154.578H50.6193V163H49.2599Z" fill="black" fill-opacity="0.6"/>
<path d="M154.355 164.297C151.331 164.297 149.336 162.673 149.15 160.28L149.141 160.159H151.822L151.832 160.261C151.952 161.3 152.908 162.042 154.355 162.042C155.784 162.042 156.721 161.245 156.721 160.113V160.094C156.721 158.814 155.765 158.109 154.142 158.109H152.611V156.114H154.104C155.515 156.114 156.424 155.372 156.424 154.287V154.268C156.424 153.155 155.654 152.468 154.336 152.468C153.019 152.468 152.138 153.183 152.026 154.296L152.017 154.379H149.438L149.447 154.268C149.642 151.875 151.525 150.316 154.336 150.316C157.212 150.316 159.068 151.763 159.068 153.897V153.916C159.068 155.585 157.843 156.671 156.275 156.996V157.051C158.27 157.237 159.569 158.387 159.569 160.206V160.224C159.569 162.655 157.481 164.297 154.355 164.297ZM166.673 164L172.378 152.997V152.839H165.624V150.604H175.199V152.867L169.604 164H166.673ZM180.397 164V153.257H180.23L176.946 155.539V153.016L180.406 150.613H183.199V164H180.397ZM189.678 164V153.257H189.511L186.227 155.539V153.016L189.687 150.613H192.48V164H189.678Z" fill="black" fill-opacity="0.6"/>
<path d="M21.2656 193.812V191.102C18.6562 191.055 16.9219 189.383 16.9219 186.797V186.781C16.9219 184.188 18.6562 182.516 21.2656 182.477V179.727H22.5781V182.477C25.1797 182.523 26.9141 184.188 26.9141 186.781V186.797C26.9141 189.391 25.1797 191.062 22.5781 191.102V193.812H21.2656ZM21.2656 189.938V183.641C19.4453 183.68 18.2891 184.867 18.2891 186.781V186.797C18.2891 188.703 19.4453 189.891 21.2656 189.938ZM22.5781 189.938C24.3906 189.898 25.5469 188.711 25.5469 186.797V186.781C25.5469 184.875 24.3906 183.688 22.5781 183.641V189.938ZM31.058 191.148C29.4564 191.148 28.2455 190.18 28.2455 188.648V188.633C28.2455 187.133 29.3549 186.266 31.3158 186.148L33.7299 186V185.234C33.7299 184.195 33.0971 183.633 31.8392 183.633C30.8314 183.633 30.1674 184.008 29.9486 184.664L29.9408 184.688H28.5814L28.5892 184.641C28.808 183.32 30.0892 182.43 31.8861 182.43C33.9408 182.43 35.0892 183.484 35.0892 185.234V191H33.7299V189.758H33.6049C33.0736 190.656 32.1908 191.148 31.058 191.148ZM29.6361 188.617C29.6361 189.469 30.3627 189.969 31.3392 189.969C32.7221 189.969 33.7299 189.062 33.7299 187.859V187.094L31.4799 187.234C30.1986 187.312 29.6361 187.766 29.6361 188.602V188.617ZM39.0691 187.164H38.6394V191H37.2801V182.578H38.6394V186.102H39.0691L42.3269 182.578H43.9597L40.1707 186.547L44.1082 191H42.366L39.0691 187.164ZM51.2521 182.578V183.703H48.5256V191H47.1662V183.703H44.4396V182.578H51.2521Z" fill="black"/>
<path d="M147.429 192.343C144.562 192.343 142.67 190.636 142.512 188.4L142.503 188.271H145.045L145.063 188.335C145.258 189.319 146.177 190.107 147.438 190.107C148.876 190.107 149.878 189.096 149.878 187.658V187.64C149.878 186.211 148.867 185.218 147.448 185.218C146.771 185.218 146.195 185.413 145.75 185.793C145.5 185.998 145.277 186.248 145.128 186.536H142.726L143.347 178.613H151.715V180.839H145.527L145.193 184.652H145.36C145.898 183.752 146.938 183.196 148.218 183.196C150.713 183.196 152.513 185.033 152.513 187.584V187.603C152.513 190.423 150.435 192.343 147.429 192.343ZM164.061 192.343C161.194 192.343 159.302 190.636 159.144 188.4L159.135 188.271H161.677L161.695 188.335C161.89 189.319 162.808 190.107 164.07 190.107C165.508 190.107 166.51 189.096 166.51 187.658V187.64C166.51 186.211 165.499 185.218 164.079 185.218C163.402 185.218 162.827 185.413 162.382 185.793C162.131 185.998 161.908 186.248 161.76 186.536H159.357L159.979 178.613H168.347V180.839H162.159L161.825 184.652H161.992C162.53 183.752 163.569 183.196 164.849 183.196C167.345 183.196 169.145 185.033 169.145 187.584V187.603C169.145 190.423 167.067 192.343 164.061 192.343ZM176.31 192.343C173.007 192.343 170.994 189.634 170.994 185.311V185.292C170.994 180.96 173.007 178.27 176.31 178.27C179.622 178.27 181.626 180.96 181.626 185.292V185.311C181.626 189.634 179.622 192.343 176.31 192.343ZM176.31 190.126C177.897 190.126 178.797 188.335 178.797 185.311V185.292C178.797 182.259 177.897 180.487 176.31 180.487C174.733 180.487 173.833 182.259 173.833 185.292V185.311C173.833 188.335 174.733 190.126 176.31 190.126ZM188.801 192.343C185.934 192.343 184.042 190.636 183.884 188.4L183.875 188.271H186.417L186.435 188.335C186.63 189.319 187.548 190.107 188.81 190.107C190.248 190.107 191.25 189.096 191.25 187.658V187.64C191.25 186.211 190.239 185.218 188.819 185.218C188.142 185.218 187.567 185.413 187.122 185.793C186.871 185.998 186.649 186.248 186.5 186.536H184.097L184.719 178.613H193.087V180.839H186.899L186.565 184.652H186.732C187.27 183.752 188.309 183.196 189.589 183.196C192.085 183.196 193.885 185.033 193.885 187.584V187.603C193.885 190.423 191.807 192.343 188.801 192.343Z" fill="black"/>
</svg>
