<svg width="211" height="211" viewBox="0 0 211 211" fill="none" xmlns="http://www.w3.org/2000/svg">
<rect width="211" height="211" rx="8" fill="#5FD86B"/>
<path d="M28.9419 35H26.5483V23.626H20.1377V35H17.7441V21.6128H28.9419V35ZM31.7562 38.3677V24.8599H34.0663V26.4463H34.224C34.7807 25.3423 35.8847 24.6929 37.3041 24.6929C39.8461 24.6929 41.4696 26.7153 41.4696 29.9253V29.9438C41.4696 33.1724 39.8739 35.167 37.3041 35.167C35.9125 35.167 34.7528 34.4805 34.224 33.3857H34.0663V38.3677H31.7562ZM36.5805 33.2188C38.1576 33.2188 39.1132 31.9756 39.1132 29.9438V29.9253C39.1132 27.8843 38.1576 26.6411 36.5805 26.6411C35.0126 26.6411 34.0385 27.8843 34.0385 29.916V29.9346C34.0385 31.9663 35.0126 33.2188 36.5805 33.2188ZM43.5325 35V24.8599H45.8147V31.6509H46.0003L50.2771 24.8599H52.5594V35H50.2771V28.1719H50.0823L45.8147 35H43.5325ZM59.5021 35.2041C56.4592 35.2041 54.6222 33.2188 54.6222 29.9346V29.916C54.6222 26.6597 56.487 24.665 59.5021 24.665C62.5265 24.665 64.382 26.6504 64.382 29.916V29.9346C64.382 33.2188 62.5358 35.2041 59.5021 35.2041ZM59.5021 33.3301C61.1071 33.3301 62.0163 32.0776 62.0163 29.9438V29.9253C62.0163 27.7915 61.0978 26.5298 59.5021 26.5298C57.8971 26.5298 56.9787 27.7915 56.9787 29.9253V29.9438C56.9787 32.0776 57.8971 33.3301 59.5021 33.3301ZM70.796 35.2041C67.7437 35.2041 65.9439 33.228 65.9439 29.916V29.8975C65.9439 26.6226 67.7344 24.665 70.7867 24.665C73.3936 24.665 74.9522 26.1123 75.212 28.209V28.2461H73.0318L73.0225 28.2183C72.8091 27.2349 72.0577 26.5298 70.796 26.5298C69.2188 26.5298 68.2911 27.7729 68.2911 29.8975V29.916C68.2911 32.0684 69.2281 33.3301 70.796 33.3301C71.9927 33.3301 72.7257 32.7827 73.0132 31.7158L73.0318 31.6787L75.212 31.6694L75.1934 31.7437C74.8594 33.8218 73.3658 35.2041 70.796 35.2041ZM84.4834 24.8599V26.6504H81.3569V35H79.0468V26.6504H75.9296V24.8599H84.4834ZM88.8285 35.167C86.8988 35.167 85.4979 33.9795 85.4979 32.1333V32.1147C85.4979 30.3057 86.8802 29.248 89.348 29.0996L91.9549 28.9419V28.0698C91.9549 27.0586 91.2962 26.502 90.0531 26.502C88.9955 26.502 88.3089 26.8823 88.077 27.5503L88.0677 27.5874H85.8876L85.8968 27.5039C86.1195 25.7969 87.7523 24.665 90.1644 24.665C92.7713 24.665 94.2372 25.9268 94.2372 28.0698V35H91.9549V33.6084H91.7972C91.2406 34.5918 90.1644 35.167 88.8285 35.167ZM87.7801 32.022C87.7801 32.8848 88.513 33.395 89.5335 33.395C90.9251 33.395 91.9549 32.4858 91.9549 31.2798V30.4634L89.6727 30.6118C88.3832 30.6953 87.7801 31.1685 87.7801 32.0034V32.022ZM103.332 35V30.6675H99.0554V35H96.7454V24.8599H99.0554V28.877H103.332V24.8599H105.642V35H103.332ZM112.585 35.2041C109.542 35.2041 107.705 33.2188 107.705 29.9346V29.916C107.705 26.6597 109.57 24.665 112.585 24.665C115.61 24.665 117.465 26.6504 117.465 29.916V29.9346C117.465 33.2188 115.619 35.2041 112.585 35.2041ZM112.585 33.3301C114.19 33.3301 115.099 32.0776 115.099 29.9438V29.9253C115.099 27.7915 114.181 26.5298 112.585 26.5298C110.98 26.5298 110.062 27.7915 110.062 29.9253V29.9438C110.062 32.0776 110.98 33.3301 112.585 33.3301ZM119.519 35V24.8599H124.315C126.356 24.8599 127.553 25.8896 127.553 27.4482V27.4668C127.553 28.5244 126.82 29.4614 125.79 29.6377V29.7954C127.126 29.9438 128.007 30.8716 128.007 32.0962V32.1147C128.007 33.8403 126.634 35 124.38 35H119.519ZM121.801 29.0718H123.582C124.723 29.0718 125.28 28.6079 125.28 27.7637V27.7451C125.28 26.9751 124.788 26.4556 123.768 26.4556H121.801V29.0718ZM121.801 33.4043H123.962C125.076 33.4043 125.642 32.8848 125.642 32.0127V31.9941C125.642 31.0757 125.011 30.6211 123.749 30.6211H121.801V33.4043ZM132.955 30.6118C132.761 33.5342 131.861 35.0928 129.801 35.0928C129.384 35.0928 129.078 35.0278 128.929 34.9814V32.9961C129.031 33.0239 129.282 33.061 129.541 33.061C130.469 33.061 130.794 31.8828 130.887 30.4263L131.239 24.8599H138.513V35H136.203V26.6504H133.243L132.955 30.6118ZM145.418 35.2041C142.403 35.2041 140.576 33.1816 140.576 29.9531V29.9438C140.576 26.7524 142.422 24.665 145.307 24.665C148.192 24.665 149.973 26.6875 149.973 29.749V30.5098H142.886C142.913 32.3281 143.897 33.3857 145.465 33.3857C146.717 33.3857 147.431 32.7549 147.654 32.291L147.682 32.2261H149.881L149.853 32.3096C149.528 33.6177 148.174 35.2041 145.418 35.2041ZM145.335 26.4741C144.045 26.4741 143.08 27.3462 142.904 28.9604H147.719C147.561 27.2998 146.624 26.4741 145.335 26.4741ZM158.605 35V30.6675H154.328V35H152.018V24.8599H154.328V28.877H158.605V24.8599H160.915V35H158.605ZM167.858 35.2041C164.815 35.2041 162.978 33.2188 162.978 29.9346V29.916C162.978 26.6597 164.842 24.665 167.858 24.665C170.882 24.665 172.737 26.6504 172.737 29.916V29.9346C172.737 33.2188 170.891 35.2041 167.858 35.2041ZM167.858 33.3301C169.462 33.3301 170.372 32.0776 170.372 29.9438V29.9253C170.372 27.7915 169.453 26.5298 167.858 26.5298C166.253 26.5298 165.334 27.7915 165.334 29.9253V29.9438C165.334 32.0776 166.253 33.3301 167.858 33.3301ZM17.4937 59V48.8599H26.2979V59H23.9878V50.6504H19.8037V59H17.4937ZM33.2406 59.2041C30.1976 59.2041 28.3607 57.2188 28.3607 53.9346V53.916C28.3607 50.6597 30.2255 48.665 33.2406 48.665C36.265 48.665 38.1205 50.6504 38.1205 53.916V53.9346C38.1205 57.2188 36.2743 59.2041 33.2406 59.2041ZM33.2406 57.3301C34.8456 57.3301 35.7548 56.0776 35.7548 53.9438V53.9253C35.7548 51.7915 34.8363 50.5298 33.2406 50.5298C31.6356 50.5298 30.7172 51.7915 30.7172 53.9253V53.9438C30.7172 56.0776 31.6356 57.3301 33.2406 57.3301ZM49.1579 59.2041C46.1056 59.2041 44.3058 57.228 44.3058 53.916V53.8975C44.3058 50.6226 46.0964 48.665 49.1486 48.665C51.7555 48.665 53.3141 50.1123 53.5739 52.209V52.2461H51.3937L51.3844 52.2183C51.1711 51.2349 50.4196 50.5298 49.1579 50.5298C47.5807 50.5298 46.653 51.7729 46.653 53.8975V53.916C46.653 56.0684 47.59 57.3301 49.1579 57.3301C50.3547 57.3301 51.0876 56.7827 51.3752 55.7158L51.3937 55.6787L53.5739 55.6694L53.5553 55.7437C53.2214 57.8218 51.7277 59.2041 49.1579 59.2041ZM56.2676 62.5625C55.9893 62.5625 55.6646 62.5532 55.3863 62.5254V60.7534C55.5718 60.772 55.8316 60.7812 56.0728 60.7812C57.0191 60.7812 57.585 60.3916 57.8355 59.4731L57.9561 59.0093L54.3287 48.8599H56.8521L59.2178 56.7827H59.3941L61.7506 48.8599H64.1812L60.5445 59.2134C59.6724 61.7554 58.5128 62.5625 56.2676 62.5625ZM66.5966 61.644H64.4814V57.1909H65.2793C66.0307 56.7456 66.3462 55.5488 66.4389 54.1851L66.7915 48.8599H74.4267V57.1909H75.9853V61.644H73.8701V59H66.5966V61.644ZM72.1074 57.1909V50.6689H68.7675L68.5078 54.3057C68.4243 55.4189 68.1923 56.3931 67.747 57.0332V57.1909H72.1074ZM78.5213 62.5625C78.243 62.5625 77.9183 62.5532 77.64 62.5254V60.7534C77.8255 60.772 78.0853 60.7812 78.3265 60.7812C79.2728 60.7812 79.8387 60.3916 80.0892 59.4731L80.2098 59.0093L76.5824 48.8599H79.1058L81.4715 56.7827H81.6478L84.0042 48.8599H86.4349L82.7982 59.2134C81.9261 61.7554 80.7665 62.5625 78.5213 62.5625Z" fill="black"/>
<path d="M17.3359 163V154.578H24.1484V163H22.7891V155.703H18.6953V163H17.3359ZM28.3549 159.703C28.1752 162.023 27.4564 163.078 26.0502 163.078C25.7611 163.078 25.5424 163.031 25.433 162.992V161.766C25.5033 161.789 25.7142 161.82 25.9174 161.82C26.6908 161.82 27.0033 160.844 27.0892 159.594L27.4486 154.578H32.9564V163H31.5971V155.703H28.6674L28.3549 159.703ZM37.5066 163.148C35.9051 163.148 34.6941 162.18 34.6941 160.648V160.633C34.6941 159.133 35.8035 158.266 37.7644 158.148L40.1785 158V157.234C40.1785 156.195 39.5457 155.633 38.2879 155.633C37.2801 155.633 36.616 156.008 36.3972 156.664L36.3894 156.688H35.0301L35.0379 156.641C35.2566 155.32 36.5379 154.43 38.3347 154.43C40.3894 154.43 41.5379 155.484 41.5379 157.234V163H40.1785V161.758H40.0535C39.5222 162.656 38.6394 163.148 37.5066 163.148ZM36.0847 160.617C36.0847 161.469 36.8113 161.969 37.7879 161.969C39.1707 161.969 40.1785 161.062 40.1785 159.859V159.094L37.9285 159.234C36.6472 159.312 36.0847 159.766 36.0847 160.602V160.617ZM49.2599 163V159.188H45.0881V163H43.7287V154.578H45.0881V158.062H49.2599V154.578H50.6193V163H49.2599Z" fill="black" fill-opacity="0.6"/>
<path d="M158.354 164V162.117L162.668 157.858C164.552 156.031 165.062 155.354 165.062 154.417V154.389C165.062 153.248 164.283 152.45 163.002 152.45C161.694 152.45 160.794 153.322 160.794 154.593V154.639H158.206L158.197 154.602C158.197 152.032 160.201 150.27 163.132 150.27C165.888 150.27 167.817 151.847 167.817 154.157V154.185C167.817 155.706 167.029 156.968 164.589 159.222L162.112 161.532V161.746H168.012V164H158.354ZM175.141 164.297C172.116 164.297 170.121 162.673 169.936 160.28L169.927 160.159H172.608L172.617 160.261C172.738 161.3 173.693 162.042 175.141 162.042C176.569 162.042 177.506 161.245 177.506 160.113V160.094C177.506 158.814 176.551 158.109 174.927 158.109H173.396V156.114H174.89C176.3 156.114 177.209 155.372 177.209 154.287V154.268C177.209 153.155 176.439 152.468 175.122 152.468C173.805 152.468 172.923 153.183 172.812 154.296L172.803 154.379H170.224L170.233 154.268C170.428 151.875 172.311 150.316 175.122 150.316C177.998 150.316 179.853 151.763 179.853 153.897V153.916C179.853 155.585 178.629 156.671 177.061 156.996V157.051C179.056 157.237 180.354 158.387 180.354 160.206V160.224C180.354 162.655 178.267 164.297 175.141 164.297ZM188.615 164V161.542H182.055V159.343C183.753 156.328 185.572 153.359 187.353 150.613H191.286V159.296H193.031V161.542H191.286V164H188.615ZM184.579 159.371H188.67V152.737H188.522C187.223 154.732 185.785 157.061 184.579 159.222V159.371Z" fill="black" fill-opacity="0.6"/>
<path d="M21.2656 193.812V191.102C18.6562 191.055 16.9219 189.383 16.9219 186.797V186.781C16.9219 184.188 18.6562 182.516 21.2656 182.477V179.727H22.5781V182.477C25.1797 182.523 26.9141 184.188 26.9141 186.781V186.797C26.9141 189.391 25.1797 191.062 22.5781 191.102V193.812H21.2656ZM21.2656 189.938V183.641C19.4453 183.68 18.2891 184.867 18.2891 186.781V186.797C18.2891 188.703 19.4453 189.891 21.2656 189.938ZM22.5781 189.938C24.3906 189.898 25.5469 188.711 25.5469 186.797V186.781C25.5469 184.875 24.3906 183.688 22.5781 183.641V189.938ZM31.058 191.148C29.4564 191.148 28.2455 190.18 28.2455 188.648V188.633C28.2455 187.133 29.3549 186.266 31.3158 186.148L33.7299 186V185.234C33.7299 184.195 33.0971 183.633 31.8392 183.633C30.8314 183.633 30.1674 184.008 29.9486 184.664L29.9408 184.688H28.5814L28.5892 184.641C28.808 183.32 30.0892 182.43 31.8861 182.43C33.9408 182.43 35.0892 183.484 35.0892 185.234V191H33.7299V189.758H33.6049C33.0736 190.656 32.1908 191.148 31.058 191.148ZM29.6361 188.617C29.6361 189.469 30.3627 189.969 31.3392 189.969C32.7221 189.969 33.7299 189.062 33.7299 187.859V187.094L31.4799 187.234C30.1986 187.312 29.6361 187.766 29.6361 188.602V188.617ZM39.0691 187.164H38.6394V191H37.2801V182.578H38.6394V186.102H39.0691L42.3269 182.578H43.9597L40.1707 186.547L44.1082 191H42.366L39.0691 187.164ZM51.2521 182.578V183.703H48.5256V191H47.1662V183.703H44.4396V182.578H51.2521Z" fill="black"/>
<path d="M171.503 192.343C168.201 192.343 166.188 189.634 166.188 185.311V185.292C166.188 180.96 168.201 178.27 171.503 178.27C174.815 178.27 176.819 180.96 176.819 185.292V185.311C176.819 189.634 174.815 192.343 171.503 192.343ZM171.503 190.126C173.09 190.126 173.99 188.335 173.99 185.311V185.292C173.99 182.259 173.09 180.487 171.503 180.487C169.926 180.487 169.026 182.259 169.026 185.292V185.311C169.026 188.335 169.926 190.126 171.503 190.126ZM179.884 192.232C178.938 192.232 178.251 191.536 178.251 190.618C178.251 189.699 178.938 189.013 179.884 189.013C180.84 189.013 181.517 189.699 181.517 190.618C181.517 191.536 180.84 192.232 179.884 192.232ZM188.543 192.297C185.519 192.297 183.524 190.673 183.339 188.28L183.329 188.159H186.011L186.02 188.261C186.14 189.3 187.096 190.042 188.543 190.042C189.972 190.042 190.909 189.245 190.909 188.113V188.094C190.909 186.814 189.953 186.109 188.33 186.109H186.799V184.114H188.293C189.703 184.114 190.612 183.372 190.612 182.287V182.268C190.612 181.155 189.842 180.468 188.525 180.468C187.207 180.468 186.326 181.183 186.215 182.296L186.205 182.379H183.626L183.636 182.268C183.83 179.875 185.714 178.316 188.525 178.316C191.401 178.316 193.256 179.763 193.256 181.897V181.916C193.256 183.585 192.032 184.671 190.464 184.996V185.051C192.458 185.237 193.757 186.387 193.757 188.206V188.224C193.757 190.655 191.67 192.297 188.543 192.297Z" fill="black"/>
</svg>
