<svg width="211" height="211" viewBox="0 0 211 211" fill="none" xmlns="http://www.w3.org/2000/svg">
<rect width="211" height="211" rx="8" fill="#5FD86B"/>
<path d="M23.5146 35.334C19.5903 35.334 17.1782 32.6157 17.1782 28.311V28.2925C17.1782 23.9785 19.6274 21.2788 23.5146 21.2788C27.4111 21.2788 29.8418 23.9785 29.8418 28.2925V28.311C29.8418 32.6157 27.4204 35.334 23.5146 35.334ZM23.5146 33.2651C25.8989 33.2651 27.4019 31.3169 27.4019 28.311V28.2925C27.4019 25.2681 25.8896 23.3477 23.5146 23.3477C21.1396 23.3477 19.6182 25.2681 19.6182 28.2925V28.311C19.6182 31.3169 21.1025 33.2651 23.5146 33.2651ZM39.7904 24.8599V26.6504H36.664V35H34.3539V26.6504H31.2367V24.8599H39.7904ZM45.5735 35.2041C42.5213 35.2041 40.7215 33.228 40.7215 29.916V29.8975C40.7215 26.6226 42.512 24.665 45.5642 24.665C48.1712 24.665 49.7298 26.1123 49.9895 28.209V28.2461H47.8094L47.8001 28.2183C47.5867 27.2349 46.8352 26.5298 45.5735 26.5298C43.9964 26.5298 43.0686 27.7729 43.0686 29.8975V29.916C43.0686 32.0684 44.0056 33.3301 45.5735 33.3301C46.7703 33.3301 47.5032 32.7827 47.7908 31.7158L47.8094 31.6787L49.9895 31.6694L49.971 31.7437C49.637 33.8218 48.1433 35.2041 45.5735 35.2041ZM51.9318 38.3677V24.8599H54.2419V26.4463H54.3996C54.9562 25.3423 56.0602 24.6929 57.4797 24.6929C60.0217 24.6929 61.6452 26.7153 61.6452 29.9253V29.9438C61.6452 33.1724 60.0495 35.167 57.4797 35.167C56.0881 35.167 54.9284 34.4805 54.3996 33.3857H54.2419V38.3677H51.9318ZM56.756 33.2188C58.3332 33.2188 59.2887 31.9756 59.2887 29.9438V29.9253C59.2887 27.8843 58.3332 26.6411 56.756 26.6411C55.1882 26.6411 54.214 27.8843 54.214 29.916V29.9346C54.214 31.9663 55.1882 33.2188 56.756 33.2188ZM68.0963 35.2041C65.0533 35.2041 63.2164 33.2188 63.2164 29.9346V29.916C63.2164 26.6597 65.0811 24.665 68.0963 24.665C71.1207 24.665 72.9761 26.6504 72.9761 29.916V29.9346C72.9761 33.2188 71.1299 35.2041 68.0963 35.2041ZM68.0963 33.3301C69.7012 33.3301 70.6104 32.0776 70.6104 29.9438V29.9253C70.6104 27.7915 69.692 26.5298 68.0963 26.5298C66.4913 26.5298 65.5728 27.7915 65.5728 29.9253V29.9438C65.5728 32.0776 66.4913 33.3301 68.0963 33.3301ZM83.3144 35H81.0044V30.9458H80.8374C80.2993 31.354 79.5107 31.6045 78.4716 31.6045C76.0595 31.6045 74.6958 30.1479 74.6958 27.8936V24.8599H77.0058V27.6987C77.0058 28.9512 77.646 29.6562 78.9077 29.6562C79.9189 29.6562 80.6333 29.3872 81.0044 29.0068V24.8599H83.3144V35ZM90.2201 35.2041C87.2049 35.2041 85.3773 33.1816 85.3773 29.9531V29.9438C85.3773 26.7524 87.2235 24.665 90.1087 24.665C92.994 24.665 94.7752 26.6875 94.7752 29.749V30.5098H87.6874C87.7152 32.3281 88.6986 33.3857 90.2665 33.3857C91.5189 33.3857 92.2333 32.7549 92.4559 32.291L92.4837 32.2261H94.6825L94.6546 32.3096C94.3299 33.6177 92.9754 35.2041 90.2201 35.2041ZM90.1366 26.4741C88.847 26.4741 87.8822 27.3462 87.7059 28.9604H92.5209C92.3631 27.2998 91.4261 26.4741 90.1366 26.4741ZM103.406 35V30.6675H99.1296V35H96.8196V24.8599H99.1296V28.877H103.406V24.8599H105.717V35H103.406ZM114.858 35V30.6675H110.581V35H108.271V24.8599H110.581V28.877H114.858V24.8599H117.168V35H114.858ZM119.723 35V24.8599H122.033V27.9214H124.037C126.402 27.9214 127.915 29.3037 127.915 31.4561V31.4746C127.915 33.627 126.402 35 124.037 35H119.723ZM129.575 35V24.8599H131.885V35H129.575ZM123.74 29.7026H122.033V33.2188H123.74C124.872 33.2188 125.586 32.5044 125.586 31.4653V31.4468C125.586 30.3984 124.862 29.7026 123.74 29.7026ZM138.791 35.2041C135.776 35.2041 133.948 33.1816 133.948 29.9531V29.9438C133.948 26.7524 135.794 24.665 138.68 24.665C141.565 24.665 143.346 26.6875 143.346 29.749V30.5098H136.258C136.286 32.3281 137.269 33.3857 138.837 33.3857C140.09 33.3857 140.804 32.7549 141.027 32.291L141.055 32.2261H143.253L143.226 32.3096C142.901 33.6177 141.546 35.2041 138.791 35.2041ZM138.707 26.4741C137.418 26.4741 136.453 27.3462 136.277 28.9604H141.092C140.934 27.2998 139.997 26.4741 138.707 26.4741ZM17.4937 59V48.8599H26.2979V59H23.9878V50.6504H19.8037V59H17.4937ZM31.8026 54.6118C31.6078 57.5342 30.7079 59.0928 28.6483 59.0928C28.2309 59.0928 27.9247 59.0278 27.7763 58.9814V56.9961C27.8783 57.0239 28.1288 57.061 28.3886 57.061C29.3163 57.061 29.641 55.8828 29.7338 54.4263L30.0863 48.8599H37.3598V59H35.0497V50.6504H32.0902L31.8026 54.6118ZM42.6883 59.167C40.7586 59.167 39.3577 57.9795 39.3577 56.1333V56.1147C39.3577 54.3057 40.74 53.248 43.2078 53.0996L45.8147 52.9419V52.0698C45.8147 51.0586 45.156 50.502 43.9129 50.502C42.8553 50.502 42.1687 50.8823 41.9368 51.5503L41.9275 51.5874H39.7473L39.7566 51.5039C39.9793 49.7969 41.6121 48.665 44.0242 48.665C46.6311 48.665 48.097 49.9268 48.097 52.0698V59H45.8147V57.6084H45.657C45.1004 58.5918 44.0242 59.167 42.6883 59.167ZM41.6399 56.022C41.6399 56.8848 42.3728 57.395 43.3933 57.395C44.7849 57.395 45.8147 56.4858 45.8147 55.2798V54.4634L43.5325 54.6118C42.243 54.6953 41.6399 55.1685 41.6399 56.0034V56.022ZM58.3517 48.8599V50.6504H55.2253V59H52.9152V50.6504H49.798V48.8599H58.3517ZM64.1256 59.2041C61.1104 59.2041 59.2828 57.1816 59.2828 53.9531V53.9438C59.2828 50.7524 61.129 48.665 64.0142 48.665C66.8995 48.665 68.6807 50.6875 68.6807 53.749V54.5098H61.5928C61.6207 56.3281 62.6041 57.3857 64.1719 57.3857C65.4244 57.3857 66.1387 56.7549 66.3614 56.291L66.3892 56.2261H68.588L68.5601 56.3096C68.2354 57.6177 66.8809 59.2041 64.1256 59.2041ZM64.0421 50.4741C62.7525 50.4741 61.7877 51.3462 61.6114 52.9604H66.4263C66.2686 51.2998 65.3316 50.4741 64.0421 50.4741ZM71.8476 59H69.1294L73.0815 53.5728L69.3149 48.8599H71.9311L74.937 52.9697H75.5029V48.8599H77.748V52.9697H78.3139L81.3291 48.8599H83.9267L80.1787 53.5449L84.1401 59H81.4126L78.3418 54.584H77.748V59H75.5029V54.584H74.9184L71.8476 59ZM85.6649 59V48.8599H87.9471V55.6509H88.1327L92.4095 48.8599H94.6917V59H92.4095V52.1719H92.2147L87.9471 59H85.6649Z" fill="black"/>
<path d="M17.3359 163V154.578H24.1484V163H22.7891V155.703H18.6953V163H17.3359ZM28.3549 159.703C28.1752 162.023 27.4564 163.078 26.0502 163.078C25.7611 163.078 25.5424 163.031 25.433 162.992V161.766C25.5033 161.789 25.7142 161.82 25.9174 161.82C26.6908 161.82 27.0033 160.844 27.0892 159.594L27.4486 154.578H32.9564V163H31.5971V155.703H28.6674L28.3549 159.703ZM37.5066 163.148C35.9051 163.148 34.6941 162.18 34.6941 160.648V160.633C34.6941 159.133 35.8035 158.266 37.7644 158.148L40.1785 158V157.234C40.1785 156.195 39.5457 155.633 38.2879 155.633C37.2801 155.633 36.616 156.008 36.3972 156.664L36.3894 156.688H35.0301L35.0379 156.641C35.2566 155.32 36.5379 154.43 38.3347 154.43C40.3894 154.43 41.5379 155.484 41.5379 157.234V163H40.1785V161.758H40.0535C39.5222 162.656 38.6394 163.148 37.5066 163.148ZM36.0847 160.617C36.0847 161.469 36.8113 161.969 37.7879 161.969C39.1707 161.969 40.1785 161.062 40.1785 159.859V159.094L37.9285 159.234C36.6472 159.312 36.0847 159.766 36.0847 160.602V160.617ZM49.2599 163V159.188H45.0881V163H43.7287V154.578H45.0881V158.062H49.2599V154.578H50.6193V163H49.2599Z" fill="black" fill-opacity="0.6"/>
<path d="M164.629 164V153.257H164.462L161.178 155.539V153.016L164.639 150.613H167.431V164H164.629ZM170.635 164V162.117L174.949 157.858C176.832 156.031 177.343 155.354 177.343 154.417V154.389C177.343 153.248 176.563 152.45 175.283 152.45C173.975 152.45 173.075 153.322 173.075 154.593V154.639H170.487L170.477 154.602C170.477 152.032 172.481 150.27 175.413 150.27C178.168 150.27 180.098 151.847 180.098 154.157V154.185C180.098 155.706 179.309 156.968 176.87 159.222L174.392 161.532V161.746H180.293V164H170.635ZM187.375 150.26C190.473 150.26 192.904 152.468 192.904 157.172V157.19C192.904 161.671 190.789 164.334 187.356 164.334C184.768 164.334 182.847 162.803 182.43 160.707L182.411 160.623H185.158L185.185 160.707C185.51 161.542 186.271 162.107 187.347 162.107C189.286 162.107 190.139 160.206 190.241 157.766C190.241 157.673 190.241 157.571 190.241 157.469H190.056C189.574 158.499 188.46 159.426 186.605 159.426C183.998 159.426 182.244 157.571 182.244 155.038V155.02C182.244 152.283 184.36 150.26 187.375 150.26ZM187.375 157.357C188.757 157.357 189.824 156.374 189.824 154.992V154.973C189.824 153.572 188.757 152.487 187.393 152.487C186.039 152.487 184.953 153.554 184.953 154.917V154.936C184.953 156.346 185.974 157.357 187.375 157.357Z" fill="black" fill-opacity="0.6"/>
<path d="M21.2656 193.812V191.102C18.6562 191.055 16.9219 189.383 16.9219 186.797V186.781C16.9219 184.188 18.6562 182.516 21.2656 182.477V179.727H22.5781V182.477C25.1797 182.523 26.9141 184.188 26.9141 186.781V186.797C26.9141 189.391 25.1797 191.062 22.5781 191.102V193.812H21.2656ZM21.2656 189.938V183.641C19.4453 183.68 18.2891 184.867 18.2891 186.781V186.797C18.2891 188.703 19.4453 189.891 21.2656 189.938ZM22.5781 189.938C24.3906 189.898 25.5469 188.711 25.5469 186.797V186.781C25.5469 184.875 24.3906 183.688 22.5781 183.641V189.938ZM31.058 191.148C29.4564 191.148 28.2455 190.18 28.2455 188.648V188.633C28.2455 187.133 29.3549 186.266 31.3158 186.148L33.7299 186V185.234C33.7299 184.195 33.0971 183.633 31.8392 183.633C30.8314 183.633 30.1674 184.008 29.9486 184.664L29.9408 184.688H28.5814L28.5892 184.641C28.808 183.32 30.0892 182.43 31.8861 182.43C33.9408 182.43 35.0892 183.484 35.0892 185.234V191H33.7299V189.758H33.6049C33.0736 190.656 32.1908 191.148 31.058 191.148ZM29.6361 188.617C29.6361 189.469 30.3627 189.969 31.3392 189.969C32.7221 189.969 33.7299 189.062 33.7299 187.859V187.094L31.4799 187.234C30.1986 187.312 29.6361 187.766 29.6361 188.602V188.617ZM39.0691 187.164H38.6394V191H37.2801V182.578H38.6394V186.102H39.0691L42.3269 182.578H43.9597L40.1707 186.547L44.1082 191H42.366L39.0691 187.164ZM51.2521 182.578V183.703H48.5256V191H47.1662V183.703H44.4396V182.578H51.2521Z" fill="black"/>
<path d="M187.503 192.343C184.201 192.343 182.188 189.634 182.188 185.311V185.292C182.188 180.96 184.201 178.27 187.503 178.27C190.815 178.27 192.819 180.96 192.819 185.292V185.311C192.819 189.634 190.815 192.343 187.503 192.343ZM187.503 190.126C189.09 190.126 189.99 188.335 189.99 185.311V185.292C189.99 182.259 189.09 180.487 187.503 180.487C185.926 180.487 185.026 182.259 185.026 185.292V185.311C185.026 188.335 185.926 190.126 187.503 190.126Z" fill="black"/>
</svg>
