<svg width="211" height="211" viewBox="0 0 211 211" fill="none" xmlns="http://www.w3.org/2000/svg">
<rect width="211" height="211" rx="8" fill="#FF9383"/>
<path d="M17.7441 35V21.6128H20.1377V27.1792H26.6504V21.6128H29.0347V35H26.6504V29.1924H20.1377V35H17.7441ZM36.1908 35.2041C33.1757 35.2041 31.348 33.1816 31.348 29.9531V29.9438C31.348 26.7524 33.1942 24.665 36.0795 24.665C38.9647 24.665 40.746 26.6875 40.746 29.749V30.5098H33.6581C33.6859 32.3281 34.6693 33.3857 36.2372 33.3857C37.4896 33.3857 38.204 32.7549 38.4267 32.291L38.4545 32.2261H40.6532L40.6254 32.3096C40.3007 33.6177 38.9462 35.2041 36.1908 35.2041ZM36.1073 26.4741C34.8178 26.4741 33.8529 27.3462 33.6767 28.9604H38.4916C38.3339 27.2998 37.3969 26.4741 36.1073 26.4741ZM43.6717 37.644H41.5564V33.1909H42.3543C43.1057 32.7456 43.4212 31.5488 43.5139 30.1851L43.8665 24.8599H51.5017V33.1909H53.0603V37.644H50.9451V35H43.6717V37.644ZM49.1824 33.1909V26.6689H45.8426L45.5828 30.3057C45.4993 31.4189 45.2674 32.3931 44.8221 33.0332V33.1909H49.1824ZM58.964 35.2041C55.9211 35.2041 54.0842 33.2188 54.0842 29.9346V29.916C54.0842 26.6597 55.9489 24.665 58.964 24.665C61.9885 24.665 63.8439 26.6504 63.8439 29.916V29.9346C63.8439 33.2188 61.9977 35.2041 58.964 35.2041ZM58.964 33.3301C60.569 33.3301 61.4782 32.0776 61.4782 29.9438V29.9253C61.4782 27.7915 60.5597 26.5298 58.964 26.5298C57.3591 26.5298 56.4406 27.7915 56.4406 29.9253V29.9438C56.4406 32.0776 57.3591 33.3301 58.964 33.3301ZM65.8975 35V24.8599H68.1798V31.6509H68.3653L72.6422 24.8599H74.9244V35H72.6422V28.1719H72.4473L68.1798 35H65.8975ZM79.687 35H77.479V24.8599H80.4199L83.4165 31.9199H83.5835L86.5893 24.8599H89.4746V35H87.2666V28.0791H87.0903L84.2978 34.5454H82.6464L79.8632 28.0791H79.687V35ZM94.8587 30.6211H94.3392V35H92.0292V24.8599H94.3392V28.9326H94.8402L98.18 24.8599H100.833L96.742 29.5542L101.028 35H98.2357L94.8587 30.6211ZM105.086 35.167C103.156 35.167 101.755 33.9795 101.755 32.1333V32.1147C101.755 30.3057 103.137 29.248 105.605 29.0996L108.212 28.9419V28.0698C108.212 27.0586 107.553 26.502 106.31 26.502C105.253 26.502 104.566 26.8823 104.334 27.5503L104.325 27.5874H102.145L102.154 27.5039C102.377 25.7969 104.01 24.665 106.422 24.665C109.029 24.665 110.494 25.9268 110.494 28.0698V35H108.212V33.6084H108.054C107.498 34.5918 106.422 35.167 105.086 35.167ZM104.037 32.022C104.037 32.8848 104.77 33.395 105.791 33.395C107.182 33.395 108.212 32.4858 108.212 31.2798V30.4634L105.93 30.6118C104.64 30.6953 104.037 31.1685 104.037 32.0034V32.022Z" fill="black"/>
<path d="M17.3359 163V154.578H24.1484V163H22.7891V155.703H18.6953V163H17.3359ZM28.3549 159.703C28.1752 162.023 27.4564 163.078 26.0502 163.078C25.7611 163.078 25.5424 163.031 25.433 162.992V161.766C25.5033 161.789 25.7142 161.82 25.9174 161.82C26.6908 161.82 27.0033 160.844 27.0892 159.594L27.4486 154.578H32.9564V163H31.5971V155.703H28.6674L28.3549 159.703ZM37.5066 163.148C35.9051 163.148 34.6941 162.18 34.6941 160.648V160.633C34.6941 159.133 35.8035 158.266 37.7644 158.148L40.1785 158V157.234C40.1785 156.195 39.5457 155.633 38.2879 155.633C37.2801 155.633 36.616 156.008 36.3972 156.664L36.3894 156.688H35.0301L35.0379 156.641C35.2566 155.32 36.5379 154.43 38.3347 154.43C40.3894 154.43 41.5379 155.484 41.5379 157.234V163H40.1785V161.758H40.0535C39.5222 162.656 38.6394 163.148 37.5066 163.148ZM36.0847 160.617C36.0847 161.469 36.8113 161.969 37.7879 161.969C39.1707 161.969 40.1785 161.062 40.1785 159.859V159.094L37.9285 159.234C36.6472 159.312 36.0847 159.766 36.0847 160.602V160.617ZM49.2599 163V159.188H45.0881V163H43.7287V154.578H45.0881V158.062H49.2599V154.578H50.6193V163H49.2599Z" fill="black" fill-opacity="0.6"/>
<path d="M152.429 164.343C149.562 164.343 147.67 162.636 147.512 160.4L147.503 160.271H150.045L150.063 160.335C150.258 161.319 151.177 162.107 152.438 162.107C153.876 162.107 154.878 161.096 154.878 159.658V159.64C154.878 158.211 153.867 157.218 152.448 157.218C151.771 157.218 151.195 157.413 150.75 157.793C150.5 157.998 150.277 158.248 150.128 158.536H147.726L148.347 150.613H156.715V152.839H150.527L150.193 156.652H150.36C150.898 155.752 151.938 155.196 153.218 155.196C155.713 155.196 157.513 157.033 157.513 159.584V159.603C157.513 162.423 155.435 164.343 152.429 164.343ZM170.193 164V161.542H163.634V159.343C165.331 156.328 167.15 153.359 168.931 150.613H172.865V159.296H174.609V161.542H172.865V164H170.193ZM166.157 159.371H170.248V152.737H170.1C168.801 154.732 167.363 157.061 166.157 159.222V159.371ZM179.64 164V153.257H179.473L176.189 155.539V153.016L179.65 150.613H182.442V164H179.64ZM188.921 164V153.257H188.754L185.47 155.539V153.016L188.93 150.613H191.723V164H188.921Z" fill="black" fill-opacity="0.6"/>
<path d="M21.2656 193.812V191.102C18.6562 191.055 16.9219 189.383 16.9219 186.797V186.781C16.9219 184.188 18.6562 182.516 21.2656 182.477V179.727H22.5781V182.477C25.1797 182.523 26.9141 184.188 26.9141 186.781V186.797C26.9141 189.391 25.1797 191.062 22.5781 191.102V193.812H21.2656ZM21.2656 189.938V183.641C19.4453 183.68 18.2891 184.867 18.2891 186.781V186.797C18.2891 188.703 19.4453 189.891 21.2656 189.938ZM22.5781 189.938C24.3906 189.898 25.5469 188.711 25.5469 186.797V186.781C25.5469 184.875 24.3906 183.688 22.5781 183.641V189.938ZM31.058 191.148C29.4564 191.148 28.2455 190.18 28.2455 188.648V188.633C28.2455 187.133 29.3549 186.266 31.3158 186.148L33.7299 186V185.234C33.7299 184.195 33.0971 183.633 31.8392 183.633C30.8314 183.633 30.1674 184.008 29.9486 184.664L29.9408 184.688H28.5814L28.5892 184.641C28.808 183.32 30.0892 182.43 31.8861 182.43C33.9408 182.43 35.0892 183.484 35.0892 185.234V191H33.7299V189.758H33.6049C33.0736 190.656 32.1908 191.148 31.058 191.148ZM29.6361 188.617C29.6361 189.469 30.3627 189.969 31.3392 189.969C32.7221 189.969 33.7299 189.062 33.7299 187.859V187.094L31.4799 187.234C30.1986 187.312 29.6361 187.766 29.6361 188.602V188.617ZM39.0691 187.164H38.6394V191H37.2801V182.578H38.6394V186.102H39.0691L42.3269 182.578H43.9597L40.1707 186.547L44.1082 191H42.366L39.0691 187.164ZM51.2521 182.578V183.703H48.5256V191H47.1662V183.703H44.4396V182.578H51.2521Z" fill="black"/>
<path d="M147.596 192.297C144.377 192.297 142.16 190.692 142.16 188.373V188.354C142.16 186.61 143.458 185.32 145.286 184.958V184.903C143.718 184.522 142.651 183.391 142.651 181.934V181.916C142.651 179.837 144.683 178.316 147.596 178.316C150.5 178.316 152.541 179.837 152.541 181.916V181.934C152.541 183.391 151.465 184.513 149.906 184.903V184.958C151.725 185.311 153.033 186.61 153.033 188.354V188.373C153.033 190.692 150.815 192.297 147.596 192.297ZM147.596 184.059C148.876 184.059 149.767 183.298 149.767 182.203V182.185C149.767 181.09 148.867 180.338 147.596 180.338C146.316 180.338 145.416 181.09 145.416 182.185V182.203C145.416 183.298 146.307 184.059 147.596 184.059ZM147.596 190.256C149.062 190.256 150.101 189.393 150.101 188.187V188.168C150.101 186.962 149.081 186.09 147.596 186.09C146.112 186.09 145.082 186.962 145.082 188.168V188.187C145.082 189.393 146.121 190.256 147.596 190.256ZM159.561 192V190.117L163.875 185.858C165.759 184.031 166.269 183.354 166.269 182.417V182.389C166.269 181.248 165.49 180.45 164.209 180.45C162.901 180.45 162.001 181.322 162.001 182.593V182.639H159.413L159.404 182.602C159.404 180.032 161.408 178.27 164.339 178.27C167.095 178.27 169.024 179.847 169.024 182.157V182.185C169.024 183.706 168.236 184.968 165.796 187.222L163.319 189.532V189.746H169.219V192H159.561ZM176.422 192.343C173.555 192.343 171.662 190.636 171.505 188.4L171.495 188.271H174.037L174.056 188.335C174.251 189.319 175.169 190.107 176.431 190.107C177.869 190.107 178.871 189.096 178.871 187.658V187.64C178.871 186.211 177.86 185.218 176.44 185.218C175.763 185.218 175.188 185.413 174.742 185.793C174.492 185.998 174.269 186.248 174.121 186.536H171.718L172.34 178.613H180.708V180.839H174.52L174.186 184.652H174.353C174.891 183.752 175.93 183.196 177.21 183.196C179.706 183.196 181.506 185.033 181.506 187.584V187.603C181.506 190.423 179.427 192.343 176.422 192.343ZM188.597 192.343C185.73 192.343 183.837 190.636 183.68 188.4L183.67 188.271H186.212L186.231 188.335C186.426 189.319 187.344 190.107 188.606 190.107C190.044 190.107 191.046 189.096 191.046 187.658V187.64C191.046 186.211 190.035 185.218 188.615 185.218C187.938 185.218 187.363 185.413 186.918 185.793C186.667 185.998 186.444 186.248 186.296 186.536H183.893L184.515 178.613H192.883V180.839H186.695L186.361 184.652H186.528C187.066 183.752 188.105 183.196 189.385 183.196C191.881 183.196 193.681 185.033 193.681 187.584V187.603C193.681 190.423 191.603 192.343 188.597 192.343Z" fill="black"/>
</svg>
