<svg width="211" height="211" viewBox="0 0 211 211" fill="none" xmlns="http://www.w3.org/2000/svg">
<rect width="211" height="211" rx="8" fill="#FF9383"/>
<path d="M17.7441 35V21.6128H20.1377V27.1792H26.6504V21.6128H29.0347V35H26.6504V29.1924H20.1377V35H17.7441ZM34.6137 35.167C32.684 35.167 31.2831 33.9795 31.2831 32.1333V32.1147C31.2831 30.3057 32.6654 29.248 35.1332 29.0996L37.7401 28.9419V28.0698C37.7401 27.0586 37.0814 26.502 35.8383 26.502C34.7807 26.502 34.0941 26.8823 33.8622 27.5503L33.8529 27.5874H31.6727L31.682 27.5039C31.9047 25.7969 33.5375 24.665 35.9496 24.665C38.5565 24.665 40.0224 25.9268 40.0224 28.0698V35H37.7401V33.6084H37.5824C37.0258 34.5918 35.9496 35.167 34.6137 35.167ZM33.5653 32.022C33.5653 32.8848 34.2982 33.395 35.3187 33.395C36.7103 33.395 37.7401 32.4858 37.7401 31.2798V30.4634L35.4579 30.6118C34.1684 30.6953 33.5653 31.1685 33.5653 32.0034V32.022ZM45.4807 30.6118C45.2859 33.5342 44.386 35.0928 42.3264 35.0928C41.909 35.0928 41.6028 35.0278 41.4544 34.9814V32.9961C41.5564 33.0239 41.8069 33.061 42.0667 33.061C42.9944 33.061 43.3191 31.8828 43.4119 30.4263L43.7644 24.8599H51.0379V35H48.7278V26.6504H45.7683L45.4807 30.6118ZM57.9806 35.2041C54.9377 35.2041 53.1008 33.2188 53.1008 29.9346V29.916C53.1008 26.6597 54.9655 24.665 57.9806 24.665C61.0051 24.665 62.8605 26.6504 62.8605 29.916V29.9346C62.8605 33.2188 61.0143 35.2041 57.9806 35.2041ZM57.9806 33.3301C59.5856 33.3301 60.4948 32.0776 60.4948 29.9438V29.9253C60.4948 27.7915 59.5763 26.5298 57.9806 26.5298C56.3757 26.5298 55.4572 27.7915 55.4572 29.9253V29.9438C55.4572 32.0776 56.3757 33.3301 57.9806 33.3301ZM71.7515 26.6504H67.2242V35H64.9141V24.8599H71.7515V26.6504ZM84.8485 35V30.6675H80.5716V35H78.2616V24.8599H80.5716V28.877H84.8485V24.8599H87.1585V35H84.8485ZM92.4871 35.167C90.5574 35.167 89.1565 33.9795 89.1565 32.1333V32.1147C89.1565 30.3057 90.5388 29.248 93.0066 29.0996L95.6135 28.9419V28.0698C95.6135 27.0586 94.9548 26.502 93.7117 26.502C92.654 26.502 91.9675 26.8823 91.7356 27.5503L91.7263 27.5874H89.5461L89.5554 27.5039C89.7781 25.7969 91.4109 24.665 93.823 24.665C96.4299 24.665 97.8957 25.9268 97.8957 28.0698V35H95.6135V33.6084H95.4558C94.8992 34.5918 93.823 35.167 92.4871 35.167ZM91.4387 32.022C91.4387 32.8848 92.1716 33.395 93.1921 33.395C94.5837 33.395 95.6135 32.4858 95.6135 31.2798V30.4634L93.3313 30.6118C92.0417 30.6953 91.4387 31.1685 91.4387 32.0034V32.022ZM105.027 35V24.8599H113.832V35H111.522V26.6504H107.337V35H105.027ZM116.395 38.3677V24.8599H118.705V26.4463H118.863C119.42 25.3423 120.524 24.6929 121.943 24.6929C124.485 24.6929 126.109 26.7153 126.109 29.9253V29.9438C126.109 33.1724 124.513 35.167 121.943 35.167C120.552 35.167 119.392 34.4805 118.863 33.3857H118.705V38.3677H116.395ZM121.22 33.2188C122.797 33.2188 123.752 31.9756 123.752 29.9438V29.9253C123.752 27.8843 122.797 26.6411 121.22 26.6411C119.652 26.6411 118.678 27.8843 118.678 29.916V29.9346C118.678 31.9663 119.652 33.2188 121.22 33.2188ZM128.172 35V24.8599H130.454V31.6509H130.639L134.916 24.8599H137.199V35H134.916V28.1719H134.721L130.454 35H128.172ZM144.234 35.2134C141.006 35.2134 139.289 33.0425 139.289 29.0439V29.0254C139.289 23.7466 140.904 21.3438 144.614 21.1953L145.811 21.1489C146.637 21.1211 147.657 20.9727 148.465 20.6851V22.5498C148.084 22.8003 147.027 23.0044 145.941 23.0508L144.781 23.0972C142.49 23.1807 141.469 24.2197 141.126 26.7524L141.098 26.938H141.265C141.924 25.7227 143.102 25.0547 144.67 25.0547C147.379 25.0547 149.123 26.9658 149.123 29.9346V29.9531C149.123 33.1724 147.258 35.2134 144.234 35.2134ZM144.206 33.3394C145.83 33.3394 146.767 32.0776 146.767 29.9995V29.981C146.767 28.0049 145.83 26.8638 144.206 26.8638C142.583 26.8638 141.636 28.0049 141.636 29.981V29.9995C141.636 32.0869 142.573 33.3394 144.206 33.3394ZM151.205 35V24.8599H153.515V27.9214H155.519C157.884 27.9214 159.397 29.3037 159.397 31.4561V31.4746C159.397 33.627 157.884 35 155.519 35H151.205ZM161.057 35V24.8599H163.367V35H161.057ZM155.222 29.7026H153.515V33.2188H155.222C156.354 33.2188 157.068 32.5044 157.068 31.4653V31.4468C157.068 30.3984 156.344 29.7026 155.222 29.7026ZM168.872 30.6118C168.677 33.5342 167.777 35.0928 165.718 35.0928C165.3 35.0928 164.994 35.0278 164.846 34.9814V32.9961C164.948 33.0239 165.198 33.061 165.458 33.061C166.386 33.061 166.71 31.8828 166.803 30.4263L167.156 24.8599H174.429V35H172.119V26.6504H169.16L168.872 30.6118ZM176.984 35V24.8599H179.294V27.9214H181.298C183.663 27.9214 185.176 29.3037 185.176 31.4561V31.4746C185.176 33.627 183.663 35 181.298 35H176.984ZM181.001 29.7026H179.294V33.2188H181.001C182.133 33.2188 182.847 32.5044 182.847 31.4653V31.4468C182.847 30.3984 182.123 29.7026 181.001 29.7026ZM21.8818 59.2041C18.8389 59.2041 17.002 57.2188 17.002 53.9346V53.916C17.002 50.6597 18.8667 48.665 21.8818 48.665C24.9062 48.665 26.7617 50.6504 26.7617 53.916V53.9346C26.7617 57.2188 24.9155 59.2041 21.8818 59.2041ZM21.8818 57.3301C23.4868 57.3301 24.396 56.0776 24.396 53.9438V53.9253C24.396 51.7915 23.4775 50.5298 21.8818 50.5298C20.2769 50.5298 19.3584 51.7915 19.3584 53.9253V53.9438C19.3584 56.0776 20.2769 57.3301 21.8818 57.3301ZM28.8246 62.3677V48.8599H31.1347V50.4463H31.2924C31.849 49.3423 32.953 48.6929 34.3725 48.6929C36.9144 48.6929 38.538 50.7153 38.538 53.9253V53.9438C38.538 57.1724 36.9423 59.167 34.3725 59.167C32.9809 59.167 31.8212 58.4805 31.2924 57.3857H31.1347V62.3677H28.8246ZM33.6488 57.2188C35.226 57.2188 36.1815 55.9756 36.1815 53.9438V53.9253C36.1815 51.8843 35.226 50.6411 33.6488 50.6411C32.0809 50.6411 31.1068 51.8843 31.1068 53.916V53.9346C31.1068 55.9663 32.0809 57.2188 33.6488 57.2188ZM47.4383 50.6504H42.9109V59H40.6009V48.8599H47.4383V50.6504ZM51.839 59.167C49.9094 59.167 48.5085 57.9795 48.5085 56.1333V56.1147C48.5085 54.3057 49.8908 53.248 52.3586 53.0996L54.9655 52.9419V52.0698C54.9655 51.0586 54.3068 50.502 53.0636 50.502C52.006 50.502 51.3195 50.8823 51.0876 51.5503L51.0783 51.5874H48.8981L48.9074 51.5039C49.1301 49.7969 50.7629 48.665 53.175 48.665C55.7819 48.665 57.2477 49.9268 57.2477 52.0698V59H54.9655V57.6084H54.8078C54.2511 58.5918 53.175 59.167 51.839 59.167ZM50.7907 56.022C50.7907 56.8848 51.5236 57.395 52.5441 57.395C53.9357 57.395 54.9655 56.4858 54.9655 55.2798V54.4634L52.6833 54.6118C51.3937 54.6953 50.7907 55.1685 50.7907 56.0034V56.022ZM66.3428 59V54.6675H62.066V59H59.7559V48.8599H62.066V52.877H66.3428V48.8599H68.6529V59H66.3428ZM71.2075 59V48.8599H73.4897V55.6509H73.6753L77.9521 48.8599H80.2343V59H77.9521V52.1719H77.7573L73.4897 59H71.2075ZM86.5926 59.2134C84.2918 59.2134 82.4642 58.1743 82.2416 56.2075L82.2323 56.124H84.4774L84.4959 56.189C84.7093 56.9683 85.4793 57.4229 86.5648 57.4229C87.8265 57.4229 88.5687 56.8384 88.5687 56.0034V55.9849C88.5687 55.085 87.8636 54.6304 86.5555 54.6304H85.099V53.0718H86.5462C87.7245 53.0718 88.2811 52.5894 88.2811 51.7544V51.7358C88.2811 51.0029 87.7152 50.4463 86.5741 50.4463C85.535 50.4463 84.8392 50.9194 84.7001 51.6523L84.6908 51.6987H82.5013L82.5106 51.6245C82.7425 49.8525 84.162 48.6558 86.6483 48.6558C89.0511 48.6558 90.5355 49.7412 90.5355 51.4575V51.4761C90.5355 52.543 89.8583 53.3687 88.7635 53.6191V53.7769C90.1737 54.0552 90.8602 54.8716 90.8602 56.0034V56.022C90.8602 57.9053 89.1996 59.2134 86.5926 59.2134ZM95.697 59.167C93.7673 59.167 92.3664 57.9795 92.3664 56.1333V56.1147C92.3664 54.3057 93.7488 53.248 96.2165 53.0996L98.8235 52.9419V52.0698C98.8235 51.0586 98.1648 50.502 96.9216 50.502C95.864 50.502 95.1775 50.8823 94.9455 51.5503L94.9363 51.5874H92.7561L92.7654 51.5039C92.988 49.7969 94.6208 48.665 97.033 48.665C99.6399 48.665 101.106 49.9268 101.106 52.0698V59H98.8235V57.6084H98.6658C98.1091 58.5918 97.033 59.167 95.697 59.167ZM94.6487 56.022C94.6487 56.8848 95.3816 57.395 96.4021 57.395C97.7937 57.395 98.8235 56.4858 98.8235 55.2798V54.4634L96.5413 54.6118C95.2517 54.6953 94.6487 55.1685 94.6487 56.0034V56.022ZM111.834 61.644V59H103.614V48.8599H105.924V57.2188H110.108V48.8599H112.418V57.2188H113.977V61.644H111.834ZM115.511 59V48.8599H117.793V55.6509H117.979L122.255 48.8599H124.538V59H122.255V52.1719H122.061L117.793 59H115.511ZM131.61 47.4775C129.56 47.4775 128.205 46.1509 128.205 44.314H130.015C130.033 45.3066 130.636 46.1323 131.61 46.1323C132.584 46.1323 133.178 45.3066 133.197 44.314H135.015C135.015 46.1509 133.651 47.4775 131.61 47.4775ZM127.092 59V48.8599H129.374V55.6509H129.56L133.837 48.8599H136.119V59H133.837V52.1719H133.642L129.374 59H127.092Z" fill="black"/>
<path d="M17.3359 163V154.578H24.1484V163H22.7891V155.703H18.6953V163H17.3359ZM28.3549 159.703C28.1752 162.023 27.4564 163.078 26.0502 163.078C25.7611 163.078 25.5424 163.031 25.433 162.992V161.766C25.5033 161.789 25.7142 161.82 25.9174 161.82C26.6908 161.82 27.0033 160.844 27.0892 159.594L27.4486 154.578H32.9564V163H31.5971V155.703H28.6674L28.3549 159.703ZM37.5066 163.148C35.9051 163.148 34.6941 162.18 34.6941 160.648V160.633C34.6941 159.133 35.8035 158.266 37.7644 158.148L40.1785 158V157.234C40.1785 156.195 39.5457 155.633 38.2879 155.633C37.2801 155.633 36.616 156.008 36.3972 156.664L36.3894 156.688H35.0301L35.0379 156.641C35.2566 155.32 36.5379 154.43 38.3347 154.43C40.3894 154.43 41.5379 155.484 41.5379 157.234V163H40.1785V161.758H40.0535C39.5222 162.656 38.6394 163.148 37.5066 163.148ZM36.0847 160.617C36.0847 161.469 36.8113 161.969 37.7879 161.969C39.1707 161.969 40.1785 161.062 40.1785 159.859V159.094L37.9285 159.234C36.6472 159.312 36.0847 159.766 36.0847 160.602V160.617ZM49.2599 163V159.188H45.0881V163H43.7287V154.578H45.0881V158.062H49.2599V154.578H50.6193V163H49.2599Z" fill="black" fill-opacity="0.6"/>
<path d="M148.355 164.297C145.331 164.297 143.336 162.673 143.15 160.28L143.141 160.159H145.822L145.832 160.261C145.952 161.3 146.908 162.042 148.355 162.042C149.784 162.042 150.721 161.245 150.721 160.113V160.094C150.721 158.814 149.765 158.109 148.142 158.109H146.611V156.114H148.104C149.515 156.114 150.424 155.372 150.424 154.287V154.268C150.424 153.155 149.654 152.468 148.336 152.468C147.019 152.468 146.138 153.183 146.026 154.296L146.017 154.379H143.438L143.447 154.268C143.642 151.875 145.525 150.316 148.336 150.316C151.212 150.316 153.068 151.763 153.068 153.897V153.916C153.068 155.585 151.843 156.671 150.275 156.996V157.051C152.27 157.237 153.569 158.387 153.569 160.206V160.224C153.569 162.655 151.481 164.297 148.355 164.297ZM165.079 164.297C162.055 164.297 160.06 162.673 159.875 160.28L159.866 160.159H162.547L162.556 160.261C162.677 161.3 163.632 162.042 165.079 162.042C166.508 162.042 167.445 161.245 167.445 160.113V160.094C167.445 158.814 166.49 158.109 164.866 158.109H163.335V156.114H164.829C166.239 156.114 167.148 155.372 167.148 154.287V154.268C167.148 153.155 166.378 152.468 165.061 152.468C163.743 152.468 162.862 153.183 162.751 154.296L162.741 154.379H160.162L160.172 154.268C160.366 151.875 162.25 150.316 165.061 150.316C167.937 150.316 169.792 151.763 169.792 153.897V153.916C169.792 155.585 168.568 156.671 167 156.996V157.051C168.994 157.237 170.293 158.387 170.293 160.206V160.224C170.293 162.655 168.206 164.297 165.079 164.297ZM172.941 164L178.646 152.997V152.839H171.892V150.604H181.466V152.867L175.872 164H172.941ZM188.483 164.343C185.376 164.343 182.954 162.145 182.954 157.432V157.413C182.954 152.932 185.069 150.27 188.493 150.27C191.081 150.27 193.011 151.8 193.419 153.897L193.438 153.99H190.701L190.664 153.906C190.348 153.071 189.587 152.505 188.502 152.505C186.563 152.505 185.719 154.407 185.617 156.838C185.607 156.94 185.607 157.042 185.607 157.144H185.793C186.275 156.105 187.398 155.187 189.244 155.187C191.851 155.187 193.614 157.042 193.614 159.575V159.593C193.614 162.33 191.499 164.343 188.483 164.343ZM186.025 159.63C186.025 161.041 187.101 162.126 188.465 162.126C189.819 162.126 190.905 161.059 190.905 159.686V159.667C190.905 158.267 189.884 157.246 188.483 157.246C187.101 157.246 186.025 158.239 186.025 159.621V159.63Z" fill="black" fill-opacity="0.6"/>
<path d="M21.2656 193.812V191.102C18.6562 191.055 16.9219 189.383 16.9219 186.797V186.781C16.9219 184.188 18.6562 182.516 21.2656 182.477V179.727H22.5781V182.477C25.1797 182.523 26.9141 184.188 26.9141 186.781V186.797C26.9141 189.391 25.1797 191.062 22.5781 191.102V193.812H21.2656ZM21.2656 189.938V183.641C19.4453 183.68 18.2891 184.867 18.2891 186.781V186.797C18.2891 188.703 19.4453 189.891 21.2656 189.938ZM22.5781 189.938C24.3906 189.898 25.5469 188.711 25.5469 186.797V186.781C25.5469 184.875 24.3906 183.688 22.5781 183.641V189.938ZM31.058 191.148C29.4564 191.148 28.2455 190.18 28.2455 188.648V188.633C28.2455 187.133 29.3549 186.266 31.3158 186.148L33.7299 186V185.234C33.7299 184.195 33.0971 183.633 31.8392 183.633C30.8314 183.633 30.1674 184.008 29.9486 184.664L29.9408 184.688H28.5814L28.5892 184.641C28.808 183.32 30.0892 182.43 31.8861 182.43C33.9408 182.43 35.0892 183.484 35.0892 185.234V191H33.7299V189.758H33.6049C33.0736 190.656 32.1908 191.148 31.058 191.148ZM29.6361 188.617C29.6361 189.469 30.3627 189.969 31.3392 189.969C32.7221 189.969 33.7299 189.062 33.7299 187.859V187.094L31.4799 187.234C30.1986 187.312 29.6361 187.766 29.6361 188.602V188.617ZM39.0691 187.164H38.6394V191H37.2801V182.578H38.6394V186.102H39.0691L42.3269 182.578H43.9597L40.1707 186.547L44.1082 191H42.366L39.0691 187.164ZM51.2521 182.578V183.703H48.5256V191H47.1662V183.703H44.4396V182.578H51.2521Z" fill="black"/>
<path d="M147.429 192.343C144.562 192.343 142.67 190.636 142.512 188.4L142.503 188.271H145.045L145.063 188.335C145.258 189.319 146.177 190.107 147.438 190.107C148.876 190.107 149.878 189.096 149.878 187.658V187.64C149.878 186.211 148.867 185.218 147.448 185.218C146.771 185.218 146.195 185.413 145.75 185.793C145.5 185.998 145.277 186.248 145.128 186.536H142.726L143.347 178.613H151.715V180.839H145.527L145.193 184.652H145.36C145.898 183.752 146.938 183.196 148.218 183.196C150.713 183.196 152.513 185.033 152.513 187.584V187.603C152.513 190.423 150.435 192.343 147.429 192.343ZM164.135 192.343C160.832 192.343 158.819 189.634 158.819 185.311V185.292C158.819 180.96 160.832 178.27 164.135 178.27C167.447 178.27 169.451 180.96 169.451 185.292V185.311C169.451 189.634 167.447 192.343 164.135 192.343ZM164.135 190.126C165.721 190.126 166.621 188.335 166.621 185.311V185.292C166.621 182.259 165.721 180.487 164.135 180.487C162.558 180.487 161.658 182.259 161.658 185.292V185.311C161.658 188.335 162.558 190.126 164.135 190.126ZM176.7 192.343C173.397 192.343 171.384 189.634 171.384 185.311V185.292C171.384 180.96 173.397 178.27 176.7 178.27C180.012 178.27 182.016 180.96 182.016 185.292V185.311C182.016 189.634 180.012 192.343 176.7 192.343ZM176.7 190.126C178.286 190.126 179.186 188.335 179.186 185.311V185.292C179.186 182.259 178.286 180.487 176.7 180.487C175.123 180.487 174.223 182.259 174.223 185.292V185.311C174.223 188.335 175.123 190.126 176.7 190.126ZM184.116 192V190.117L188.43 185.858C190.313 184.031 190.823 183.354 190.823 182.417V182.389C190.823 181.248 190.044 180.45 188.764 180.45C187.456 180.45 186.556 181.322 186.556 182.593V182.639H183.967L183.958 182.602C183.958 180.032 185.962 178.27 188.894 178.27C191.649 178.27 193.579 179.847 193.579 182.157V182.185C193.579 183.706 192.79 184.968 190.35 187.222L187.873 189.532V189.746H193.774V192H184.116Z" fill="black"/>
</svg>
