<svg width="211" height="211" viewBox="0 0 211 211" fill="none" xmlns="http://www.w3.org/2000/svg">
<rect width="211" height="211" rx="8" fill="#FF9383"/>
<path d="M16.7515 35L21.5015 21.6128H24.2012L28.9512 35H26.4463L25.3237 31.5396H20.3696L19.2563 35H16.7515ZM22.7725 24.0991L20.9727 29.6934H24.73L22.9302 24.0991H22.7725ZM33.5746 30.6211H33.0551V35H30.745V24.8599H33.0551V28.9326H33.556L36.8959 24.8599H39.5492L35.4579 29.5542L39.744 35H36.9516L33.5746 30.6211ZM49.5813 37.644V35H41.3616V24.8599H43.6717V33.2188H47.8557V24.8599H50.1658V33.2188H51.7244V37.644H49.5813ZM53.2585 35V24.8599H55.5407V31.6509H55.7262L60.0031 24.8599H62.2853V35H60.0031V28.1719H59.8083L55.5407 35H53.2585ZM68.6436 35.2134C66.3428 35.2134 64.5152 34.1743 64.2925 32.2075L64.2833 32.124H66.5284L66.5469 32.189C66.7603 32.9683 67.5303 33.4229 68.6158 33.4229C69.8775 33.4229 70.6197 32.8384 70.6197 32.0034V31.9849C70.6197 31.085 69.9146 30.6304 68.6065 30.6304H67.15V29.0718H68.5972C69.7755 29.0718 70.3321 28.5894 70.3321 27.7544V27.7358C70.3321 27.0029 69.7662 26.4463 68.6251 26.4463C67.586 26.4463 66.8902 26.9194 66.751 27.6523L66.7418 27.6987H64.5523L64.5616 27.6245C64.7935 25.8525 66.213 24.6558 68.6993 24.6558C71.1021 24.6558 72.5865 25.7412 72.5865 27.4575V27.4761C72.5865 28.543 71.9092 29.3687 70.8145 29.6191V29.7769C72.2247 30.0552 72.9112 30.8716 72.9112 32.0034V32.022C72.9112 33.9053 71.2506 35.2134 68.6436 35.2134ZM75.0112 35V24.8599H77.3213V27.9214H79.3252C81.6909 27.9214 83.2031 29.3037 83.2031 31.4561V31.4746C83.2031 33.627 81.6909 35 79.3252 35H75.0112ZM84.8637 35V24.8599H87.1738V35H84.8637ZM79.0283 29.7026H77.3213V33.2188H79.0283C80.1601 33.2188 80.8745 32.5044 80.8745 31.4653V31.4468C80.8745 30.3984 80.1508 29.7026 79.0283 29.7026Z" fill="black"/>
<path d="M17.3359 163V154.578H24.1484V163H22.7891V155.703H18.6953V163H17.3359ZM28.3549 159.703C28.1752 162.023 27.4564 163.078 26.0502 163.078C25.7611 163.078 25.5424 163.031 25.433 162.992V161.766C25.5033 161.789 25.7142 161.82 25.9174 161.82C26.6908 161.82 27.0033 160.844 27.0892 159.594L27.4486 154.578H32.9564V163H31.5971V155.703H28.6674L28.3549 159.703ZM37.5066 163.148C35.9051 163.148 34.6941 162.18 34.6941 160.648V160.633C34.6941 159.133 35.8035 158.266 37.7644 158.148L40.1785 158V157.234C40.1785 156.195 39.5457 155.633 38.2879 155.633C37.2801 155.633 36.616 156.008 36.3972 156.664L36.3894 156.688H35.0301L35.0379 156.641C35.2566 155.32 36.5379 154.43 38.3347 154.43C40.3894 154.43 41.5379 155.484 41.5379 157.234V163H40.1785V161.758H40.0535C39.5222 162.656 38.6394 163.148 37.5066 163.148ZM36.0847 160.617C36.0847 161.469 36.8113 161.969 37.7879 161.969C39.1707 161.969 40.1785 161.062 40.1785 159.859V159.094L37.9285 159.234C36.6472 159.312 36.0847 159.766 36.0847 160.602V160.617ZM49.2599 163V159.188H45.0881V163H43.7287V154.578H45.0881V158.062H49.2599V154.578H50.6193V163H49.2599Z" fill="black" fill-opacity="0.6"/>
<path d="M165.629 164V153.257H165.462L162.178 155.539V153.016L165.639 150.613H168.431V164H165.629ZM176.636 164.297C173.611 164.297 171.617 162.673 171.431 160.28L171.422 160.159H174.103L174.112 160.261C174.233 161.3 175.188 162.042 176.636 162.042C178.064 162.042 179.001 161.245 179.001 160.113V160.094C179.001 158.814 178.046 158.109 176.422 158.109H174.891V156.114H176.385C177.795 156.114 178.704 155.372 178.704 154.287V154.268C178.704 153.155 177.934 152.468 176.617 152.468C175.3 152.468 174.418 153.183 174.307 154.296L174.298 154.379H171.719L171.728 154.268C171.923 151.875 173.806 150.316 176.617 150.316C179.493 150.316 181.349 151.763 181.349 153.897V153.916C181.349 155.585 180.124 156.671 178.556 156.996V157.051C180.551 157.237 181.85 158.387 181.85 160.206V160.224C181.85 162.655 179.762 164.297 176.636 164.297ZM183.903 164V162.117L188.217 157.858C190.1 156.031 190.611 155.354 190.611 154.417V154.389C190.611 153.248 189.831 152.45 188.551 152.45C187.243 152.45 186.343 153.322 186.343 154.593V154.639H183.755L183.745 154.602C183.745 152.032 185.749 150.27 188.681 150.27C191.436 150.27 193.366 151.847 193.366 154.157V154.185C193.366 155.706 192.577 156.968 190.137 159.222L187.66 161.532V161.746H193.561V164H183.903Z" fill="black" fill-opacity="0.6"/>
<path d="M21.2656 193.812V191.102C18.6562 191.055 16.9219 189.383 16.9219 186.797V186.781C16.9219 184.188 18.6562 182.516 21.2656 182.477V179.727H22.5781V182.477C25.1797 182.523 26.9141 184.188 26.9141 186.781V186.797C26.9141 189.391 25.1797 191.062 22.5781 191.102V193.812H21.2656ZM21.2656 189.938V183.641C19.4453 183.68 18.2891 184.867 18.2891 186.781V186.797C18.2891 188.703 19.4453 189.891 21.2656 189.938ZM22.5781 189.938C24.3906 189.898 25.5469 188.711 25.5469 186.797V186.781C25.5469 184.875 24.3906 183.688 22.5781 183.641V189.938ZM31.058 191.148C29.4564 191.148 28.2455 190.18 28.2455 188.648V188.633C28.2455 187.133 29.3549 186.266 31.3158 186.148L33.7299 186V185.234C33.7299 184.195 33.0971 183.633 31.8392 183.633C30.8314 183.633 30.1674 184.008 29.9486 184.664L29.9408 184.688H28.5814L28.5892 184.641C28.808 183.32 30.0892 182.43 31.8861 182.43C33.9408 182.43 35.0892 183.484 35.0892 185.234V191H33.7299V189.758H33.6049C33.0736 190.656 32.1908 191.148 31.058 191.148ZM29.6361 188.617C29.6361 189.469 30.3627 189.969 31.3392 189.969C32.7221 189.969 33.7299 189.062 33.7299 187.859V187.094L31.4799 187.234C30.1986 187.312 29.6361 187.766 29.6361 188.602V188.617ZM39.0691 187.164H38.6394V191H37.2801V182.578H38.6394V186.102H39.0691L42.3269 182.578H43.9597L40.1707 186.547L44.1082 191H42.366L39.0691 187.164ZM51.2521 182.578V183.703H48.5256V191H47.1662V183.703H44.4396V182.578H51.2521Z" fill="black"/>
<path d="M162.354 192V190.117L166.668 185.858C168.552 184.031 169.062 183.354 169.062 182.417V182.389C169.062 181.248 168.283 180.45 167.002 180.45C165.694 180.45 164.794 181.322 164.794 182.593V182.639H162.206L162.197 182.602C162.197 180.032 164.201 178.27 167.132 178.27C169.888 178.27 171.817 179.847 171.817 182.157V182.185C171.817 183.706 171.029 184.968 168.589 187.222L166.112 189.532V189.746H172.012V192H162.354ZM180.198 192V189.542H173.639V187.343C175.337 184.328 177.155 181.359 178.936 178.613H182.87V187.296H184.614V189.542H182.87V192H180.198ZM176.162 187.371H180.254V180.737H180.105C178.807 182.732 177.369 185.061 176.162 187.222V187.371ZM189.646 192V181.257H189.479L186.195 183.539V181.016L189.655 178.613H192.448V192H189.646Z" fill="black"/>
</svg>
