<svg width="211" height="211" viewBox="0 0 211 211" fill="none" xmlns="http://www.w3.org/2000/svg">
<rect width="211" height="211" rx="8" fill="#FF9383"/>
<path d="M28.9419 35H26.5483V23.626H20.1377V35H17.7441V21.6128H28.9419V35ZM31.7562 38.3677V24.8599H34.0663V26.4463H34.224C34.7807 25.3423 35.8847 24.6929 37.3041 24.6929C39.8461 24.6929 41.4696 26.7153 41.4696 29.9253V29.9438C41.4696 33.1724 39.8739 35.167 37.3041 35.167C35.9125 35.167 34.7528 34.4805 34.224 33.3857H34.0663V38.3677H31.7562ZM36.5805 33.2188C38.1576 33.2188 39.1132 31.9756 39.1132 29.9438V29.9253C39.1132 27.8843 38.1576 26.6411 36.5805 26.6411C35.0126 26.6411 34.0385 27.8843 34.0385 29.916V29.9346C34.0385 31.9663 35.0126 33.2188 36.5805 33.2188ZM47.9207 35.2041C44.8777 35.2041 43.0408 33.2188 43.0408 29.9346V29.916C43.0408 26.6597 44.9056 24.665 47.9207 24.665C50.9451 24.665 52.8006 26.6504 52.8006 29.916V29.9346C52.8006 33.2188 50.9544 35.2041 47.9207 35.2041ZM47.9207 33.3301C49.5257 33.3301 50.4348 32.0776 50.4348 29.9438V29.9253C50.4348 27.7915 49.5164 26.5298 47.9207 26.5298C46.3157 26.5298 45.3972 27.7915 45.3972 29.9253V29.9438C45.3972 32.0776 46.3157 33.3301 47.9207 33.3301ZM63.1388 35H60.8288V30.9458H60.6618C60.1237 31.354 59.3351 31.6045 58.2961 31.6045C55.884 31.6045 54.5202 30.1479 54.5202 27.8936V24.8599H56.8302V27.6987C56.8302 28.9512 57.4704 29.6562 58.7321 29.6562C59.7433 29.6562 60.4577 29.3872 60.8288 29.0068V24.8599H63.1388V35ZM65.6934 35V24.8599H67.9757V31.6509H68.1612L72.4381 24.8599H74.7203V35H72.4381V28.1719H72.2432L67.9757 35H65.6934ZM81.6259 35.2041C78.6108 35.2041 76.7832 33.1816 76.7832 29.9531V29.9438C76.7832 26.7524 78.6294 24.665 81.5146 24.665C84.3999 24.665 86.1811 26.6875 86.1811 29.749V30.5098H79.0932C79.1211 32.3281 80.1045 33.3857 81.6723 33.3857C82.9248 33.3857 83.6391 32.7549 83.8618 32.291L83.8896 32.2261H86.0883L86.0605 32.3096C85.7358 33.6177 84.3813 35.2041 81.6259 35.2041ZM81.5424 26.4741C80.2529 26.4741 79.288 27.3462 79.1118 28.9604H83.9267C83.769 27.2998 82.832 26.4741 81.5424 26.4741ZM99.4358 35V30.6675H95.1589V35H92.8489V24.8599H95.1589V28.877H99.4358V24.8599H101.746V35H99.4358ZM107.074 35.167C105.145 35.167 103.744 33.9795 103.744 32.1333V32.1147C103.744 30.3057 105.126 29.248 107.594 29.0996L110.201 28.9419V28.0698C110.201 27.0586 109.542 26.502 108.299 26.502C107.241 26.502 106.555 26.8823 106.323 27.5503L106.314 27.5874H104.133L104.143 27.5039C104.365 25.7969 105.998 24.665 108.41 24.665C111.017 24.665 112.483 25.9268 112.483 28.0698V35H110.201V33.6084H110.043C109.486 34.5918 108.41 35.167 107.074 35.167ZM106.026 32.022C106.026 32.8848 106.759 33.395 107.779 33.395C109.171 33.395 110.201 32.4858 110.201 31.2798V30.4634L107.919 30.6118C106.629 30.6953 106.026 31.1685 106.026 32.0034V32.022ZM117.941 30.6118C117.747 33.5342 116.847 35.0928 114.787 35.0928C114.37 35.0928 114.064 35.0278 113.915 34.9814V32.9961C114.017 33.0239 114.268 33.061 114.527 33.061C115.455 33.061 115.78 31.8828 115.873 30.4263L116.225 24.8599H123.499V35H121.189V26.6504H118.229L117.941 30.6118ZM130.441 35.2041C127.398 35.2041 125.561 33.2188 125.561 29.9346V29.916C125.561 26.6597 127.426 24.665 130.441 24.665C133.466 24.665 135.321 26.6504 135.321 29.916V29.9346C135.321 33.2188 133.475 35.2041 130.441 35.2041ZM130.441 33.3301C132.046 33.3301 132.955 32.0776 132.955 29.9438V29.9253C132.955 27.7915 132.037 26.5298 130.441 26.5298C128.836 26.5298 127.918 27.7915 127.918 29.9253V29.9438C127.918 32.0776 128.836 33.3301 130.441 33.3301ZM144.212 26.6504H139.685V35H137.375V24.8599H144.212V26.6504ZM146.099 35V24.8599H148.381V31.6509H148.567L152.843 24.8599H155.126V35H152.843V28.1719H152.649L148.381 35H146.099ZM166.664 35.2041C163.612 35.2041 161.812 33.228 161.812 29.916V29.8975C161.812 26.6226 163.603 24.665 166.655 24.665C169.262 24.665 170.82 26.1123 171.08 28.209V28.2461H168.9L168.891 28.2183C168.677 27.2349 167.926 26.5298 166.664 26.5298C165.087 26.5298 164.159 27.7729 164.159 29.8975V29.916C164.159 32.0684 165.096 33.3301 166.664 33.3301C167.861 33.3301 168.594 32.7827 168.881 31.7158L168.9 31.6787L171.08 31.6694L171.062 31.7437C170.728 33.8218 169.234 35.2041 166.664 35.2041ZM21.854 59.2041C18.8018 59.2041 17.002 57.228 17.002 53.916V53.8975C17.002 50.6226 18.7925 48.665 21.8447 48.665C24.4517 48.665 26.0103 50.1123 26.27 52.209V52.2461H24.0898L24.0806 52.2183C23.8672 51.2349 23.1157 50.5298 21.854 50.5298C20.2769 50.5298 19.3491 51.7729 19.3491 53.8975V53.916C19.3491 56.0684 20.2861 57.3301 21.854 57.3301C23.0508 57.3301 23.7837 56.7827 24.0713 55.7158L24.0898 55.6787L26.27 55.6694L26.2515 55.7437C25.9175 57.8218 24.4238 59.2041 21.854 59.2041ZM32.6469 59.2134C29.4184 59.2134 27.702 57.0425 27.702 53.0439V53.0254C27.702 47.7466 29.3163 45.3438 33.0272 45.1953L34.224 45.1489C35.0497 45.1211 36.0702 44.9727 36.8773 44.6851V46.5498C36.497 46.8003 35.4393 47.0044 34.3539 47.0508L33.1942 47.0972C30.9027 47.1807 29.8822 48.2197 29.539 50.7524L29.5111 50.938H29.6781C30.3368 49.7227 31.515 49.0547 33.0829 49.0547C35.7919 49.0547 37.536 50.9658 37.536 53.9346V53.9531C37.536 57.1724 35.6713 59.2134 32.6469 59.2134ZM32.619 57.3394C34.2426 57.3394 35.1796 56.0776 35.1796 53.9995V53.981C35.1796 52.0049 34.2426 50.8638 32.619 50.8638C30.9955 50.8638 30.0492 52.0049 30.0492 53.981V53.9995C30.0492 56.0869 30.9862 57.3394 32.619 57.3394ZM44.0056 59.2041C40.9627 59.2041 39.1258 57.2188 39.1258 53.9346V53.916C39.1258 50.6597 40.9905 48.665 44.0056 48.665C47.0301 48.665 48.8855 50.6504 48.8855 53.916V53.9346C48.8855 57.2188 47.0393 59.2041 44.0056 59.2041ZM44.0056 57.3301C45.6106 57.3301 46.5198 56.0776 46.5198 53.9438V53.9253C46.5198 51.7915 45.6014 50.5298 44.0056 50.5298C42.4007 50.5298 41.4822 51.7915 41.4822 53.9253V53.9438C41.4822 56.0776 42.4007 57.3301 44.0056 57.3301ZM50.9484 62.3677V48.8599H53.2585V50.4463H53.4162C53.9728 49.3423 55.0768 48.6929 56.4963 48.6929C59.0383 48.6929 60.6618 50.7153 60.6618 53.9253V53.9438C60.6618 57.1724 59.0661 59.167 56.4963 59.167C55.1047 59.167 53.945 58.4805 53.4162 57.3857H53.2585V62.3677H50.9484ZM55.7726 57.2188C57.3498 57.2188 58.3053 55.9756 58.3053 53.9438V53.9253C58.3053 51.8843 57.3498 50.6411 55.7726 50.6411C54.2048 50.6411 53.2306 51.8843 53.2306 53.916V53.9346C53.2306 55.9663 54.2048 57.2188 55.7726 57.2188ZM62.7247 59V48.8599H65.0347V51.9214H67.0386C69.4044 51.9214 70.9166 53.3037 70.9166 55.4561V55.4746C70.9166 57.627 69.4044 59 67.0386 59H62.7247ZM72.5772 59V48.8599H74.8873V59H72.5772ZM66.7418 53.7026H65.0347V57.2188H66.7418C67.8736 57.2188 68.588 56.5044 68.588 55.4653V55.4468C68.588 54.3984 67.8643 53.7026 66.7418 53.7026Z" fill="black"/>
<path d="M17.3359 163V154.578H24.1484V163H22.7891V155.703H18.6953V163H17.3359ZM28.3549 159.703C28.1752 162.023 27.4564 163.078 26.0502 163.078C25.7611 163.078 25.5424 163.031 25.433 162.992V161.766C25.5033 161.789 25.7142 161.82 25.9174 161.82C26.6908 161.82 27.0033 160.844 27.0892 159.594L27.4486 154.578H32.9564V163H31.5971V155.703H28.6674L28.3549 159.703ZM37.5066 163.148C35.9051 163.148 34.6941 162.18 34.6941 160.648V160.633C34.6941 159.133 35.8035 158.266 37.7644 158.148L40.1785 158V157.234C40.1785 156.195 39.5457 155.633 38.2879 155.633C37.2801 155.633 36.616 156.008 36.3972 156.664L36.3894 156.688H35.0301L35.0379 156.641C35.2566 155.32 36.5379 154.43 38.3347 154.43C40.3894 154.43 41.5379 155.484 41.5379 157.234V163H40.1785V161.758H40.0535C39.5222 162.656 38.6394 163.148 37.5066 163.148ZM36.0847 160.617C36.0847 161.469 36.8113 161.969 37.7879 161.969C39.1707 161.969 40.1785 161.062 40.1785 159.859V159.094L37.9285 159.234C36.6472 159.312 36.0847 159.766 36.0847 160.602V160.617ZM49.2599 163V159.188H45.0881V163H43.7287V154.578H45.0881V158.062H49.2599V154.578H50.6193V163H49.2599Z" fill="black" fill-opacity="0.6"/>
<path d="M188.355 164.297C185.331 164.297 183.336 162.673 183.15 160.28L183.141 160.159H185.822L185.832 160.261C185.952 161.3 186.908 162.042 188.355 162.042C189.784 162.042 190.721 161.245 190.721 160.113V160.094C190.721 158.814 189.765 158.109 188.142 158.109H186.611V156.114H188.104C189.515 156.114 190.424 155.372 190.424 154.287V154.268C190.424 153.155 189.654 152.468 188.336 152.468C187.019 152.468 186.138 153.183 186.026 154.296L186.017 154.379H183.438L183.447 154.268C183.642 151.875 185.525 150.316 188.336 150.316C191.212 150.316 193.068 151.763 193.068 153.897V153.916C193.068 155.585 191.843 156.671 190.275 156.996V157.051C192.27 157.237 193.569 158.387 193.569 160.206V160.224C193.569 162.655 191.481 164.297 188.355 164.297Z" fill="black" fill-opacity="0.6"/>
<path d="M21.2656 193.812V191.102C18.6562 191.055 16.9219 189.383 16.9219 186.797V186.781C16.9219 184.188 18.6562 182.516 21.2656 182.477V179.727H22.5781V182.477C25.1797 182.523 26.9141 184.188 26.9141 186.781V186.797C26.9141 189.391 25.1797 191.062 22.5781 191.102V193.812H21.2656ZM21.2656 189.938V183.641C19.4453 183.68 18.2891 184.867 18.2891 186.781V186.797C18.2891 188.703 19.4453 189.891 21.2656 189.938ZM22.5781 189.938C24.3906 189.898 25.5469 188.711 25.5469 186.797V186.781C25.5469 184.875 24.3906 183.688 22.5781 183.641V189.938ZM31.058 191.148C29.4564 191.148 28.2455 190.18 28.2455 188.648V188.633C28.2455 187.133 29.3549 186.266 31.3158 186.148L33.7299 186V185.234C33.7299 184.195 33.0971 183.633 31.8392 183.633C30.8314 183.633 30.1674 184.008 29.9486 184.664L29.9408 184.688H28.5814L28.5892 184.641C28.808 183.32 30.0892 182.43 31.8861 182.43C33.9408 182.43 35.0892 183.484 35.0892 185.234V191H33.7299V189.758H33.6049C33.0736 190.656 32.1908 191.148 31.058 191.148ZM29.6361 188.617C29.6361 189.469 30.3627 189.969 31.3392 189.969C32.7221 189.969 33.7299 189.062 33.7299 187.859V187.094L31.4799 187.234C30.1986 187.312 29.6361 187.766 29.6361 188.602V188.617ZM39.0691 187.164H38.6394V191H37.2801V182.578H38.6394V186.102H39.0691L42.3269 182.578H43.9597L40.1707 186.547L44.1082 191H42.366L39.0691 187.164ZM51.2521 182.578V183.703H48.5256V191H47.1662V183.703H44.4396V182.578H51.2521Z" fill="black"/>
<path d="M176.629 192V181.257H176.462L173.178 183.539V181.016L176.639 178.613H179.431V192H176.629ZM187.97 192.343C184.862 192.343 182.44 190.145 182.44 185.432V185.413C182.44 180.932 184.556 178.27 187.979 178.27C190.567 178.27 192.497 179.8 192.905 181.897L192.924 181.99H190.187L190.15 181.906C189.834 181.071 189.074 180.505 187.988 180.505C186.049 180.505 185.205 182.407 185.103 184.838C185.094 184.94 185.094 185.042 185.094 185.144H185.279C185.762 184.105 186.884 183.187 188.73 183.187C191.337 183.187 193.1 185.042 193.1 187.575V187.593C193.1 190.33 190.985 192.343 187.97 192.343ZM185.511 187.63C185.511 189.041 186.587 190.126 187.951 190.126C189.306 190.126 190.391 189.059 190.391 187.686V187.667C190.391 186.267 189.37 185.246 187.97 185.246C186.587 185.246 185.511 186.239 185.511 187.621V187.63Z" fill="black"/>
</svg>
