<svg width="211" height="211" viewBox="0 0 211 211" fill="none" xmlns="http://www.w3.org/2000/svg">
<rect width="211" height="211" rx="8" fill="#FF9383"/>
<path d="M17.7441 35V21.6128H20.1377V27.1792H26.6504V21.6128H29.0347V35H26.6504V29.1924H20.1377V35H17.7441ZM34.6137 35.167C32.684 35.167 31.2831 33.9795 31.2831 32.1333V32.1147C31.2831 30.3057 32.6654 29.248 35.1332 29.0996L37.7401 28.9419V28.0698C37.7401 27.0586 37.0814 26.502 35.8383 26.502C34.7807 26.502 34.0941 26.8823 33.8622 27.5503L33.8529 27.5874H31.6727L31.682 27.5039C31.9047 25.7969 33.5375 24.665 35.9496 24.665C38.5565 24.665 40.0224 25.9268 40.0224 28.0698V35H37.7401V33.6084H37.5824C37.0258 34.5918 35.9496 35.167 34.6137 35.167ZM33.5653 32.022C33.5653 32.8848 34.2982 33.395 35.3187 33.395C36.7103 33.395 37.7401 32.4858 37.7401 31.2798V30.4634L35.4579 30.6118C34.1684 30.6953 33.5653 31.1685 33.5653 32.0034V32.022ZM45.4807 30.6118C45.2859 33.5342 44.386 35.0928 42.3264 35.0928C41.909 35.0928 41.6028 35.0278 41.4544 34.9814V32.9961C41.5564 33.0239 41.8069 33.061 42.0667 33.061C42.9944 33.061 43.3191 31.8828 43.4119 30.4263L43.7644 24.8599H51.0379V35H48.7278V26.6504H45.7683L45.4807 30.6118ZM57.9806 35.2041C54.9377 35.2041 53.1008 33.2188 53.1008 29.9346V29.916C53.1008 26.6597 54.9655 24.665 57.9806 24.665C61.0051 24.665 62.8605 26.6504 62.8605 29.916V29.9346C62.8605 33.2188 61.0143 35.2041 57.9806 35.2041ZM57.9806 33.3301C59.5856 33.3301 60.4948 32.0776 60.4948 29.9438V29.9253C60.4948 27.7915 59.5763 26.5298 57.9806 26.5298C56.3757 26.5298 55.4572 27.7915 55.4572 29.9253V29.9438C55.4572 32.0776 56.3757 33.3301 57.9806 33.3301ZM71.7515 26.6504H67.2242V35H64.9141V24.8599H71.7515V26.6504ZM84.8485 35V30.6675H80.5716V35H78.2616V24.8599H80.5716V28.877H84.8485V24.8599H87.1585V35H84.8485ZM92.4871 35.167C90.5574 35.167 89.1565 33.9795 89.1565 32.1333V32.1147C89.1565 30.3057 90.5388 29.248 93.0066 29.0996L95.6135 28.9419V28.0698C95.6135 27.0586 94.9548 26.502 93.7117 26.502C92.654 26.502 91.9675 26.8823 91.7356 27.5503L91.7263 27.5874H89.5461L89.5554 27.5039C89.7781 25.7969 91.4109 24.665 93.823 24.665C96.4299 24.665 97.8957 25.9268 97.8957 28.0698V35H95.6135V33.6084H95.4558C94.8992 34.5918 93.823 35.167 92.4871 35.167ZM91.4387 32.022C91.4387 32.8848 92.1716 33.395 93.1921 33.395C94.5837 33.395 95.6135 32.4858 95.6135 31.2798V30.4634L93.3313 30.6118C92.0417 30.6953 91.4387 31.1685 91.4387 32.0034V32.022ZM105.983 37.644H103.868V33.1909H104.666C105.417 32.7456 105.732 31.5488 105.825 30.1851L106.178 24.8599H113.813V33.1909H115.372V37.644H113.256V35H105.983V37.644ZM111.494 33.1909V26.6689H108.154L107.894 30.3057C107.811 31.4189 107.579 32.3931 107.133 33.0332V33.1909H111.494ZM121.275 35.2041C118.232 35.2041 116.395 33.2188 116.395 29.9346V29.916C116.395 26.6597 118.26 24.665 121.275 24.665C124.3 24.665 126.155 26.6504 126.155 29.916V29.9346C126.155 33.2188 124.309 35.2041 121.275 35.2041ZM121.275 33.3301C122.88 33.3301 123.789 32.0776 123.789 29.9438V29.9253C123.789 27.7915 122.871 26.5298 121.275 26.5298C119.67 26.5298 118.752 27.7915 118.752 29.9253V29.9438C118.752 32.0776 119.67 33.3301 121.275 33.3301ZM127.04 35L130.324 29.9717L127.012 24.8599H129.684L131.697 28.376H131.855L133.859 24.8599H136.391L133.117 29.8696L136.429 35H133.831L131.753 31.4746H131.595L129.526 35H127.04ZM142.175 35.2041C139.132 35.2041 137.295 33.2188 137.295 29.9346V29.916C137.295 26.6597 139.159 24.665 142.175 24.665C145.199 24.665 147.054 26.6504 147.054 29.916V29.9346C147.054 33.2188 145.208 35.2041 142.175 35.2041ZM142.175 33.3301C143.779 33.3301 144.689 32.0776 144.689 29.9438V29.9253C144.689 27.7915 143.77 26.5298 142.175 26.5298C140.57 26.5298 139.651 27.7915 139.651 29.9253V29.9438C139.651 32.0776 140.57 33.3301 142.175 33.3301ZM149.934 37.644H147.818V33.1909H148.616C149.368 32.7456 149.683 31.5488 149.776 30.1851L150.129 24.8599H157.764V33.1909H159.322V37.644H157.207V35H149.934V37.644ZM155.444 33.1909V26.6689H152.105L151.845 30.3057C151.761 31.4189 151.529 32.3931 151.084 33.0332V33.1909H155.444ZM160.838 35V24.8599H163.148V27.9214H165.152C167.518 27.9214 169.03 29.3037 169.03 31.4561V31.4746C169.03 33.627 167.518 35 165.152 35H160.838ZM170.69 35V24.8599H173V35H170.69ZM164.855 29.7026H163.148V33.2188H164.855C165.987 33.2188 166.701 32.5044 166.701 31.4653V31.4468C166.701 30.3984 165.978 29.7026 164.855 29.7026ZM22.3735 62.3677V59.1392C19.1172 59.0649 17.002 57.0981 17.002 53.9346V53.916C17.002 50.7803 19.1265 48.7856 22.3735 48.73V45.5386H24.6279V48.73C27.8843 48.7949 29.9995 50.7524 29.9995 53.9253V53.9438C29.9995 57.0796 27.8657 59.0742 24.6279 59.1392V62.3677H22.3735ZM22.3921 57.3301V50.5298C20.5273 50.5762 19.3306 51.8472 19.3306 53.9253V53.9438C19.3306 56.022 20.5181 57.2744 22.3921 57.3301ZM24.6094 57.3301C26.4648 57.2837 27.6616 56.0127 27.6616 53.9438V53.9253C27.6616 51.8379 26.4741 50.5854 24.6094 50.5298V57.3301ZM32.0438 59V48.8599H34.3261V55.6509H34.5116L38.7885 48.8599H41.0707V59H38.7885V52.1719H38.5936L34.3261 59H32.0438ZM47.429 59.2134C45.1282 59.2134 43.3006 58.1743 43.0779 56.2075L43.0686 56.124H45.3138L45.3323 56.189C45.5457 56.9683 46.3157 57.4229 47.4012 57.4229C48.6629 57.4229 49.4051 56.8384 49.4051 56.0034V55.9849C49.4051 55.085 48.7 54.6304 47.3919 54.6304H45.9353V53.0718H47.3826C48.5608 53.0718 49.1175 52.5894 49.1175 51.7544V51.7358C49.1175 51.0029 48.5515 50.4463 47.4104 50.4463C46.3714 50.4463 45.6756 50.9194 45.5364 51.6523L45.5271 51.6987H43.3377L43.347 51.6245C43.5789 49.8525 44.9983 48.6558 47.4847 48.6558C49.8875 48.6558 51.3719 49.7412 51.3719 51.4575V51.4761C51.3719 52.543 50.6946 53.3687 49.5999 53.6191V53.7769C51.01 54.0552 51.6966 54.8716 51.6966 56.0034V56.022C51.6966 57.9053 50.0359 59.2134 47.429 59.2134ZM55.0768 59.1855C54.2326 59.1855 53.6017 58.5454 53.6017 57.7197C53.6017 56.894 54.2326 56.2539 55.0768 56.2539C55.9303 56.2539 56.5519 56.894 56.5519 57.7197C56.5519 58.5454 55.9303 59.1855 55.0768 59.1855ZM66.8286 54.6118C66.6338 57.5342 65.7338 59.0928 63.6743 59.0928C63.2568 59.0928 62.9506 59.0278 62.8022 58.9814V56.9961C62.9043 57.0239 63.1547 57.061 63.4145 57.061C64.3422 57.061 64.667 55.8828 64.7597 54.4263L65.1123 48.8599H72.3857V59H70.0756V50.6504H67.1162L66.8286 54.6118ZM74.9403 59V48.8599H77.2225V55.6509H77.4081L81.6849 48.8599H83.9671V59H81.6849V52.1719H81.4901L77.2225 59H74.9403ZM94.7414 61.644V59H86.5217V48.8599H88.8318V57.2188H93.0159V48.8599H95.3259V57.2188H96.8845V61.644H94.7414Z" fill="black"/>
<path d="M17.3359 163V154.578H24.1484V163H22.7891V155.703H18.6953V163H17.3359ZM28.3549 159.703C28.1752 162.023 27.4564 163.078 26.0502 163.078C25.7611 163.078 25.5424 163.031 25.433 162.992V161.766C25.5033 161.789 25.7142 161.82 25.9174 161.82C26.6908 161.82 27.0033 160.844 27.0892 159.594L27.4486 154.578H32.9564V163H31.5971V155.703H28.6674L28.3549 159.703ZM37.5066 163.148C35.9051 163.148 34.6941 162.18 34.6941 160.648V160.633C34.6941 159.133 35.8035 158.266 37.7644 158.148L40.1785 158V157.234C40.1785 156.195 39.5457 155.633 38.2879 155.633C37.2801 155.633 36.616 156.008 36.3972 156.664L36.3894 156.688H35.0301L35.0379 156.641C35.2566 155.32 36.5379 154.43 38.3347 154.43C40.3894 154.43 41.5379 155.484 41.5379 157.234V163H40.1785V161.758H40.0535C39.5222 162.656 38.6394 163.148 37.5066 163.148ZM36.0847 160.617C36.0847 161.469 36.8113 161.969 37.7879 161.969C39.1707 161.969 40.1785 161.062 40.1785 159.859V159.094L37.9285 159.234C36.6472 159.312 36.0847 159.766 36.0847 160.602V160.617ZM49.2599 163V159.188H45.0881V163H43.7287V154.578H45.0881V158.062H49.2599V154.578H50.6193V163H49.2599Z" fill="black" fill-opacity="0.6"/>
<path d="M142.354 164V162.117L146.668 157.858C148.552 156.031 149.062 155.354 149.062 154.417V154.389C149.062 153.248 148.283 152.45 147.002 152.45C145.694 152.45 144.794 153.322 144.794 154.593V154.639H142.206L142.197 154.602C142.197 152.032 144.201 150.27 147.132 150.27C149.888 150.27 151.817 151.847 151.817 154.157V154.185C151.817 155.706 151.029 156.968 148.589 159.222L146.112 161.532V161.746H152.012V164H142.354ZM164.803 164V161.542H158.244V159.343C159.942 156.328 161.76 153.359 163.541 150.613H167.475V159.296H169.219V161.542H167.475V164H164.803ZM160.767 159.371H164.859V152.737H164.71C163.411 154.732 161.973 157.061 160.767 159.222V159.371ZM176.459 164.297C173.239 164.297 171.022 162.692 171.022 160.373V160.354C171.022 158.61 172.321 157.32 174.149 156.958V156.903C172.581 156.522 171.514 155.391 171.514 153.934V153.916C171.514 151.837 173.546 150.316 176.459 150.316C179.362 150.316 181.403 151.837 181.403 153.916V153.934C181.403 155.391 180.327 156.513 178.769 156.903V156.958C180.587 157.311 181.895 158.61 181.895 160.354V160.373C181.895 162.692 179.678 164.297 176.459 164.297ZM176.459 156.059C177.739 156.059 178.63 155.298 178.63 154.203V154.185C178.63 153.09 177.73 152.338 176.459 152.338C175.178 152.338 174.278 153.09 174.278 154.185V154.203C174.278 155.298 175.169 156.059 176.459 156.059ZM176.459 162.256C177.924 162.256 178.964 161.393 178.964 160.187V160.168C178.964 158.962 177.943 158.09 176.459 158.09C174.974 158.09 173.945 158.962 173.945 160.168V160.187C173.945 161.393 174.984 162.256 176.459 162.256ZM184.561 164L190.267 152.997V152.839H183.513V150.604H193.087V152.867L187.493 164H184.561Z" fill="black" fill-opacity="0.6"/>
<path d="M21.2656 193.812V191.102C18.6562 191.055 16.9219 189.383 16.9219 186.797V186.781C16.9219 184.188 18.6562 182.516 21.2656 182.477V179.727H22.5781V182.477C25.1797 182.523 26.9141 184.188 26.9141 186.781V186.797C26.9141 189.391 25.1797 191.062 22.5781 191.102V193.812H21.2656ZM21.2656 189.938V183.641C19.4453 183.68 18.2891 184.867 18.2891 186.781V186.797C18.2891 188.703 19.4453 189.891 21.2656 189.938ZM22.5781 189.938C24.3906 189.898 25.5469 188.711 25.5469 186.797V186.781C25.5469 184.875 24.3906 183.688 22.5781 183.641V189.938ZM31.058 191.148C29.4564 191.148 28.2455 190.18 28.2455 188.648V188.633C28.2455 187.133 29.3549 186.266 31.3158 186.148L33.7299 186V185.234C33.7299 184.195 33.0971 183.633 31.8392 183.633C30.8314 183.633 30.1674 184.008 29.9486 184.664L29.9408 184.688H28.5814L28.5892 184.641C28.808 183.32 30.0892 182.43 31.8861 182.43C33.9408 182.43 35.0892 183.484 35.0892 185.234V191H33.7299V189.758H33.6049C33.0736 190.656 32.1908 191.148 31.058 191.148ZM29.6361 188.617C29.6361 189.469 30.3627 189.969 31.3392 189.969C32.7221 189.969 33.7299 189.062 33.7299 187.859V187.094L31.4799 187.234C30.1986 187.312 29.6361 187.766 29.6361 188.602V188.617ZM39.0691 187.164H38.6394V191H37.2801V182.578H38.6394V186.102H39.0691L42.3269 182.578H43.9597L40.1707 186.547L44.1082 191H42.366L39.0691 187.164ZM51.2521 182.578V183.703H48.5256V191H47.1662V183.703H44.4396V182.578H51.2521Z" fill="black"/>
<path d="M147.355 192.297C144.331 192.297 142.336 190.673 142.15 188.28L142.141 188.159H144.822L144.832 188.261C144.952 189.3 145.908 190.042 147.355 190.042C148.784 190.042 149.721 189.245 149.721 188.113V188.094C149.721 186.814 148.765 186.109 147.142 186.109H145.611V184.114H147.104C148.515 184.114 149.424 183.372 149.424 182.287V182.268C149.424 181.155 148.654 180.468 147.336 180.468C146.019 180.468 145.138 181.183 145.026 182.296L145.017 182.379H142.438L142.447 182.268C142.642 179.875 144.525 178.316 147.336 178.316C150.212 178.316 152.068 179.763 152.068 181.897V181.916C152.068 183.585 150.843 184.671 149.275 184.996V185.051C151.27 185.237 152.569 186.387 152.569 188.206V188.224C152.569 190.655 150.481 192.297 147.355 192.297ZM164.413 192.343C161.305 192.343 158.884 190.145 158.884 185.432V185.413C158.884 180.932 160.999 178.27 164.423 178.27C167.011 178.27 168.941 179.8 169.349 181.897L169.367 181.99H166.631L166.594 181.906C166.278 181.071 165.517 180.505 164.432 180.505C162.493 180.505 161.649 182.407 161.547 184.838C161.537 184.94 161.537 185.042 161.537 185.144H161.723C162.205 184.105 163.328 183.187 165.174 183.187C167.781 183.187 169.544 185.042 169.544 187.575V187.593C169.544 190.33 167.428 192.343 164.413 192.343ZM161.955 187.63C161.955 189.041 163.031 190.126 164.395 190.126C165.749 190.126 166.835 189.059 166.835 187.686V187.667C166.835 186.267 165.814 185.246 164.413 185.246C163.031 185.246 161.955 186.239 161.955 187.621V187.63ZM176.867 192.297C173.648 192.297 171.43 190.692 171.43 188.373V188.354C171.43 186.61 172.729 185.32 174.557 184.958V184.903C172.989 184.522 171.922 183.391 171.922 181.934V181.916C171.922 179.837 173.954 178.316 176.867 178.316C179.771 178.316 181.812 179.837 181.812 181.916V181.934C181.812 183.391 180.736 184.513 179.177 184.903V184.958C180.995 185.311 182.303 186.61 182.303 188.354V188.373C182.303 190.692 180.086 192.297 176.867 192.297ZM176.867 184.059C178.147 184.059 179.038 183.298 179.038 182.203V182.185C179.038 181.09 178.138 180.338 176.867 180.338C175.587 180.338 174.687 181.09 174.687 182.185V182.203C174.687 183.298 175.577 184.059 176.867 184.059ZM176.867 190.256C178.333 190.256 179.372 189.393 179.372 188.187V188.168C179.372 186.962 178.351 186.09 176.867 186.09C175.382 186.09 174.353 186.962 174.353 188.168V188.187C174.353 189.393 175.392 190.256 176.867 190.256ZM184.969 192L190.675 180.997V180.839H183.921V178.604H193.495V180.867L187.901 192H184.969Z" fill="black"/>
</svg>
