<svg width="211" height="211" viewBox="0 0 211 211" fill="none" xmlns="http://www.w3.org/2000/svg">
<rect width="211" height="211" rx="8" fill="#5FD86B"/>
<path d="M21.0747 35V23.626H16.9556V21.6128H27.5967V23.626H23.4683V35H21.0747ZM29.3998 38.3677V24.8599H31.7099V26.4463H31.8676C32.4242 25.3423 33.5282 24.6929 34.9476 24.6929C37.4896 24.6929 39.1132 26.7153 39.1132 29.9253V29.9438C39.1132 33.1724 37.5175 35.167 34.9476 35.167C33.556 35.167 32.3964 34.4805 31.8676 33.3857H31.7099V38.3677H29.3998ZM34.224 33.2188C35.8012 33.2188 36.7567 31.9756 36.7567 29.9438V29.9253C36.7567 27.8843 35.8012 26.6411 34.224 26.6411C32.6561 26.6411 31.682 27.8843 31.682 29.916V29.9346C31.682 31.9663 32.6561 33.2188 34.224 33.2188ZM43.95 35.167C42.0203 35.167 40.6194 33.9795 40.6194 32.1333V32.1147C40.6194 30.3057 42.0017 29.248 44.4695 29.0996L47.0764 28.9419V28.0698C47.0764 27.0586 46.4178 26.502 45.1746 26.502C44.117 26.502 43.4305 26.8823 43.1985 27.5503L43.1892 27.5874H41.0091L41.0183 27.5039C41.241 25.7969 42.8738 24.665 45.2859 24.665C47.8929 24.665 49.3587 25.9268 49.3587 28.0698V35H47.0764V33.6084H46.9187C46.3621 34.5918 45.2859 35.167 43.95 35.167ZM42.9016 32.022C42.9016 32.8848 43.6346 33.395 44.6551 33.395C46.0467 33.395 47.0764 32.4858 47.0764 31.2798V30.4634L44.7942 30.6118C43.5047 30.6953 42.9016 31.1685 42.9016 32.0034V32.022ZM58.4538 35V30.6675H54.1769V35H51.8669V24.8599H54.1769V28.877H58.4538V24.8599H60.7638V35H58.4538ZM67.6788 35.2041C64.6265 35.2041 62.8267 33.228 62.8267 29.916V29.8975C62.8267 26.6226 64.6173 24.665 67.6695 24.665C70.2764 24.665 71.835 26.1123 72.0948 28.209V28.2461H69.9146L69.9053 28.2183C69.692 27.2349 68.9405 26.5298 67.6788 26.5298C66.1016 26.5298 65.1739 27.7729 65.1739 29.8975V29.916C65.1739 32.0684 66.1109 33.3301 67.6788 33.3301C68.8756 33.3301 69.6085 32.7827 69.8961 31.7158L69.9146 31.6787L72.0948 31.6694L72.0762 31.7437C71.7423 33.8218 70.2486 35.2041 67.6788 35.2041ZM74.0278 35V24.8599H82.832V35H80.5219V26.6504H76.3379V35H74.0278ZM89.7748 35.2041C86.7318 35.2041 84.8949 33.2188 84.8949 29.9346V29.916C84.8949 26.6597 86.7596 24.665 89.7748 24.665C92.7992 24.665 94.6546 26.6504 94.6546 29.916V29.9346C94.6546 33.2188 92.8084 35.2041 89.7748 35.2041ZM89.7748 33.3301C91.3797 33.3301 92.2889 32.0776 92.2889 29.9438V29.9253C92.2889 27.7915 91.3705 26.5298 89.7748 26.5298C88.1698 26.5298 87.2513 27.7915 87.2513 29.9253V29.9438C87.2513 32.0776 88.1698 33.3301 89.7748 33.3301ZM96.7175 38.3677V24.8599H99.0276V26.4463H99.1853C99.7419 25.3423 100.846 24.6929 102.265 24.6929C104.807 24.6929 106.431 26.7153 106.431 29.9253V29.9438C106.431 33.1724 104.835 35.167 102.265 35.167C100.874 35.167 99.7141 34.4805 99.1853 33.3857H99.0276V38.3677H96.7175ZM101.542 33.2188C103.119 33.2188 104.074 31.9756 104.074 29.9438V29.9253C104.074 27.8843 103.119 26.6411 101.542 26.6411C99.9739 26.6411 98.9997 27.8843 98.9997 29.916V29.9346C98.9997 31.9663 99.9739 33.2188 101.542 33.2188ZM115.647 24.8599V26.6504H112.52V35H110.21V26.6504H107.093V24.8599H115.647ZM123.972 35V30.6675H119.695V35H117.385V24.8599H119.695V28.877H123.972V24.8599H126.282V35H123.972ZM128.836 35V24.8599H131.146V27.9214H133.15C135.516 27.9214 137.028 29.3037 137.028 31.4561V31.4746C137.028 33.627 135.516 35 133.15 35H128.836ZM138.689 35V24.8599H140.999V35H138.689ZM132.853 29.7026H131.146V33.2188H132.853C133.985 33.2188 134.7 32.5044 134.7 31.4653V31.4468C134.7 30.3984 133.976 29.7026 132.853 29.7026ZM148.072 23.4775C146.021 23.4775 144.667 22.1509 144.667 20.314H146.476C146.494 21.3066 147.097 22.1323 148.072 22.1323C149.046 22.1323 149.639 21.3066 149.658 20.314H151.476C151.476 22.1509 150.113 23.4775 148.072 23.4775ZM143.554 35V24.8599H145.836V31.6509H146.021L150.298 24.8599H152.58V35H150.298V28.1719H150.103L145.836 35H143.554ZM24.0806 59V54.6675H19.8037V59H17.4937V48.8599H19.8037V52.877H24.0806V48.8599H26.3906V59H24.0806ZM31.7191 59.167C29.7894 59.167 28.3886 57.9795 28.3886 56.1333V56.1147C28.3886 54.3057 29.7709 53.248 32.2387 53.0996L34.8456 52.9419V52.0698C34.8456 51.0586 34.1869 50.502 32.9437 50.502C31.8861 50.502 31.1996 50.8823 30.9677 51.5503L30.9584 51.5874H28.7782L28.7875 51.5039C29.0101 49.7969 30.643 48.665 33.0551 48.665C35.662 48.665 37.1278 49.9268 37.1278 52.0698V59H34.8456V57.6084H34.6879C34.1312 58.5918 33.0551 59.167 31.7191 59.167ZM30.6708 56.022C30.6708 56.8848 31.4037 57.395 32.4242 57.395C33.8158 57.395 34.8456 56.4858 34.8456 55.2798V54.4634L32.5634 54.6118C31.2738 54.6953 30.6708 55.1685 30.6708 56.0034V56.022ZM42.5862 54.6118C42.3914 57.5342 41.4915 59.0928 39.4319 59.0928C39.0144 59.0928 38.7083 59.0278 38.5598 58.9814V56.9961C38.6619 57.0239 38.9124 57.061 39.1722 57.061C40.0999 57.061 40.4246 55.8828 40.5174 54.4263L40.8699 48.8599H48.1433V59H45.8333V50.6504H42.8738L42.5862 54.6118ZM55.0861 59.2041C52.0431 59.2041 50.2062 57.2188 50.2062 53.9346V53.916C50.2062 50.6597 52.071 48.665 55.0861 48.665C58.1105 48.665 59.966 50.6504 59.966 53.916V53.9346C59.966 57.2188 58.1198 59.2041 55.0861 59.2041ZM55.0861 57.3301C56.6911 57.3301 57.6003 56.0776 57.6003 53.9438V53.9253C57.6003 51.7915 56.6818 50.5298 55.0861 50.5298C53.4811 50.5298 52.5627 51.7915 52.5627 53.9253V53.9438C52.5627 56.0776 53.4811 57.3301 55.0861 57.3301ZM68.857 50.6504H64.3297V59H62.0196V48.8599H68.857V50.6504ZM79.7274 59.2041C76.6751 59.2041 74.8753 57.228 74.8753 53.916V53.8975C74.8753 50.6226 76.6659 48.665 79.7181 48.665C82.3251 48.665 83.8836 50.1123 84.1434 52.209V52.2461H81.9632L81.954 52.2183C81.7406 51.2349 80.9891 50.5298 79.7274 50.5298C78.1502 50.5298 77.2225 51.7729 77.2225 53.8975V53.916C77.2225 56.0684 78.1595 57.3301 79.7274 57.3301C80.9242 57.3301 81.6571 56.7827 81.9447 55.7158L81.9632 55.6787L84.1434 55.6694L84.1249 55.7437C83.7909 57.8218 82.2972 59.2041 79.7274 59.2041ZM95.5797 62.3677V59.1392C92.3234 59.0649 90.2081 57.0981 90.2081 53.9346V53.916C90.2081 50.7803 92.3326 48.7856 95.5797 48.73V45.5386H97.8341V48.73C101.09 48.7949 103.206 50.7524 103.206 53.9253V53.9438C103.206 57.0796 101.072 59.0742 97.8341 59.1392V62.3677H95.5797ZM95.5983 57.3301V50.5298C93.7335 50.5762 92.5368 51.8472 92.5368 53.9253V53.9438C92.5368 56.022 93.7243 57.2744 95.5983 57.3301ZM97.8156 57.3301C99.671 57.2837 100.868 56.0127 100.868 53.9438V53.9253C100.868 51.8379 99.6803 50.5854 97.8156 50.5298V57.3301ZM105.25 59V48.8599H107.532V55.6509H107.718L111.995 48.8599H114.277V59H111.995V52.1719H111.8L107.532 59H105.25ZM120.635 59.2134C118.334 59.2134 116.507 58.1743 116.284 56.2075L116.275 56.124H118.52L118.538 56.189C118.752 56.9683 119.522 57.4229 120.607 57.4229C121.869 57.4229 122.611 56.8384 122.611 56.0034V55.9849C122.611 55.085 121.906 54.6304 120.598 54.6304H119.142V53.0718H120.589C121.767 53.0718 122.324 52.5894 122.324 51.7544V51.7358C122.324 51.0029 121.758 50.4463 120.617 50.4463C119.578 50.4463 118.882 50.9194 118.743 51.6523L118.733 51.6987H116.544L116.553 51.6245C116.785 49.8525 118.205 48.6558 120.691 48.6558C123.094 48.6558 124.578 49.7412 124.578 51.4575V51.4761C124.578 52.543 123.901 53.3687 122.806 53.6191V53.7769C124.216 54.0552 124.903 54.8716 124.903 56.0034V56.022C124.903 57.9053 123.242 59.2134 120.635 59.2134ZM128.283 59.1855C127.439 59.1855 126.808 58.5454 126.808 57.7197C126.808 56.894 127.439 56.2539 128.283 56.2539C129.137 56.2539 129.758 56.894 129.758 57.7197C129.758 58.5454 129.137 59.1855 128.283 59.1855ZM140.035 54.6118C139.84 57.5342 138.94 59.0928 136.88 59.0928C136.463 59.0928 136.157 59.0278 136.008 58.9814V56.9961C136.11 57.0239 136.361 57.061 136.621 57.061C137.548 57.061 137.873 55.8828 137.966 54.4263L138.318 48.8599H145.592V59H143.282V50.6504H140.322L140.035 54.6118ZM148.146 59V48.8599H150.429V55.6509H150.614L154.891 48.8599H157.173V59H154.891V52.1719H154.696L150.429 59H148.146ZM167.948 61.644V59H159.728V48.8599H162.038V57.2188H166.222V48.8599H168.532V57.2188H170.091V61.644H167.948Z" fill="black"/>
<path d="M17.3359 163V154.578H24.1484V163H22.7891V155.703H18.6953V163H17.3359ZM28.3549 159.703C28.1752 162.023 27.4564 163.078 26.0502 163.078C25.7611 163.078 25.5424 163.031 25.433 162.992V161.766C25.5033 161.789 25.7142 161.82 25.9174 161.82C26.6908 161.82 27.0033 160.844 27.0892 159.594L27.4486 154.578H32.9564V163H31.5971V155.703H28.6674L28.3549 159.703ZM37.5066 163.148C35.9051 163.148 34.6941 162.18 34.6941 160.648V160.633C34.6941 159.133 35.8035 158.266 37.7644 158.148L40.1785 158V157.234C40.1785 156.195 39.5457 155.633 38.2879 155.633C37.2801 155.633 36.616 156.008 36.3972 156.664L36.3894 156.688H35.0301L35.0379 156.641C35.2566 155.32 36.5379 154.43 38.3347 154.43C40.3894 154.43 41.5379 155.484 41.5379 157.234V163H40.1785V161.758H40.0535C39.5222 162.656 38.6394 163.148 37.5066 163.148ZM36.0847 160.617C36.0847 161.469 36.8113 161.969 37.7879 161.969C39.1707 161.969 40.1785 161.062 40.1785 159.859V159.094L37.9285 159.234C36.6472 159.312 36.0847 159.766 36.0847 160.602V160.617ZM49.2599 163V159.188H45.0881V163H43.7287V154.578H45.0881V158.062H49.2599V154.578H50.6193V163H49.2599Z" fill="black" fill-opacity="0.6"/>
<path d="M148.629 164V153.257H148.462L145.178 155.539V153.016L148.639 150.613H151.431V164H148.629ZM159.092 164V162.117L163.406 157.858C165.289 156.031 165.799 155.354 165.799 154.417V154.389C165.799 153.248 165.02 152.45 163.74 152.45C162.431 152.45 161.532 153.322 161.532 154.593V154.639H158.943L158.934 154.602C158.934 152.032 160.938 150.27 163.869 150.27C166.625 150.27 168.554 151.847 168.554 154.157V154.185C168.554 155.706 167.766 156.968 165.326 159.222L162.849 161.532V161.746H168.749V164H159.092ZM176.212 164.343C173.104 164.343 170.682 162.145 170.682 157.432V157.413C170.682 152.932 172.798 150.27 176.221 150.27C178.809 150.27 180.739 151.8 181.147 153.897L181.166 153.99H178.429L178.392 153.906C178.076 153.071 177.316 152.505 176.23 152.505C174.291 152.505 173.447 154.407 173.345 156.838C173.336 156.94 173.336 157.042 173.336 157.144H173.521C174.004 156.105 175.126 155.187 176.972 155.187C179.579 155.187 181.342 157.042 181.342 159.575V159.593C181.342 162.33 179.227 164.343 176.212 164.343ZM173.753 159.63C173.753 161.041 174.829 162.126 176.193 162.126C177.548 162.126 178.633 161.059 178.633 159.686V159.667C178.633 158.267 177.612 157.246 176.212 157.246C174.829 157.246 173.753 158.239 173.753 159.621V159.63ZM188.498 164.343C185.631 164.343 183.739 162.636 183.581 160.4L183.572 160.271H186.114L186.132 160.335C186.327 161.319 187.246 162.107 188.507 162.107C189.945 162.107 190.947 161.096 190.947 159.658V159.64C190.947 158.211 189.936 157.218 188.517 157.218C187.839 157.218 187.264 157.413 186.819 157.793C186.568 157.998 186.346 158.248 186.197 158.536H183.794L184.416 150.613H192.784V152.839H186.596L186.262 156.652H186.429C186.967 155.752 188.006 155.196 189.287 155.196C191.782 155.196 193.582 157.033 193.582 159.584V159.603C193.582 162.423 191.504 164.343 188.498 164.343Z" fill="black" fill-opacity="0.6"/>
<path d="M21.2656 193.812V191.102C18.6562 191.055 16.9219 189.383 16.9219 186.797V186.781C16.9219 184.188 18.6562 182.516 21.2656 182.477V179.727H22.5781V182.477C25.1797 182.523 26.9141 184.188 26.9141 186.781V186.797C26.9141 189.391 25.1797 191.062 22.5781 191.102V193.812H21.2656ZM21.2656 189.938V183.641C19.4453 183.68 18.2891 184.867 18.2891 186.781V186.797C18.2891 188.703 19.4453 189.891 21.2656 189.938ZM22.5781 189.938C24.3906 189.898 25.5469 188.711 25.5469 186.797V186.781C25.5469 184.875 24.3906 183.688 22.5781 183.641V189.938ZM31.058 191.148C29.4564 191.148 28.2455 190.18 28.2455 188.648V188.633C28.2455 187.133 29.3549 186.266 31.3158 186.148L33.7299 186V185.234C33.7299 184.195 33.0971 183.633 31.8392 183.633C30.8314 183.633 30.1674 184.008 29.9486 184.664L29.9408 184.688H28.5814L28.5892 184.641C28.808 183.32 30.0892 182.43 31.8861 182.43C33.9408 182.43 35.0892 183.484 35.0892 185.234V191H33.7299V189.758H33.6049C33.0736 190.656 32.1908 191.148 31.058 191.148ZM29.6361 188.617C29.6361 189.469 30.3627 189.969 31.3392 189.969C32.7221 189.969 33.7299 189.062 33.7299 187.859V187.094L31.4799 187.234C30.1986 187.312 29.6361 187.766 29.6361 188.602V188.617ZM39.0691 187.164H38.6394V191H37.2801V182.578H38.6394V186.102H39.0691L42.3269 182.578H43.9597L40.1707 186.547L44.1082 191H42.366L39.0691 187.164ZM51.2521 182.578V183.703H48.5256V191H47.1662V183.703H44.4396V182.578H51.2521Z" fill="black"/>
<path d="M150.629 192V181.257H150.462L147.178 183.539V181.016L150.639 178.613H153.431V192H150.629ZM166.241 192.343C162.938 192.343 160.925 189.634 160.925 185.311V185.292C160.925 180.96 162.938 178.27 166.241 178.27C169.553 178.27 171.556 180.96 171.556 185.292V185.311C171.556 189.634 169.553 192.343 166.241 192.343ZM166.241 190.126C167.827 190.126 168.727 188.335 168.727 185.311V185.292C168.727 182.259 167.827 180.487 166.241 180.487C164.663 180.487 163.763 182.259 163.763 185.292V185.311C163.763 188.335 164.663 190.126 166.241 190.126ZM178.731 192.343C175.864 192.343 173.972 190.636 173.814 188.4L173.805 188.271H176.347L176.365 188.335C176.56 189.319 177.479 190.107 178.74 190.107C180.178 190.107 181.18 189.096 181.18 187.658V187.64C181.18 186.211 180.169 185.218 178.75 185.218C178.072 185.218 177.497 185.413 177.052 185.793C176.801 185.998 176.579 186.248 176.43 186.536H174.028L174.649 178.613H183.017V180.839H176.829L176.495 184.652H176.662C177.2 183.752 178.239 183.196 179.52 183.196C182.015 183.196 183.815 185.033 183.815 187.584V187.603C183.815 190.423 181.737 192.343 178.731 192.343ZM188.921 192V181.257H188.754L185.47 183.539V181.016L188.93 178.613H191.723V192H188.921Z" fill="black"/>
</svg>
