<svg width="211" height="211" viewBox="0 0 211 211" fill="none" xmlns="http://www.w3.org/2000/svg">
<rect width="211" height="211" rx="8" fill="#FFCAC1"/>
<path d="M17.7441 35V21.6128H20.1377V27.1792H26.6504V21.6128H29.0347V35H26.6504V29.1924H20.1377V35H17.7441ZM34.6137 35.167C32.684 35.167 31.2831 33.9795 31.2831 32.1333V32.1147C31.2831 30.3057 32.6654 29.248 35.1332 29.0996L37.7401 28.9419V28.0698C37.7401 27.0586 37.0814 26.502 35.8383 26.502C34.7807 26.502 34.0941 26.8823 33.8622 27.5503L33.8529 27.5874H31.6727L31.682 27.5039C31.9047 25.7969 33.5375 24.665 35.9496 24.665C38.5565 24.665 40.0224 25.9268 40.0224 28.0698V35H37.7401V33.6084H37.5824C37.0258 34.5918 35.9496 35.167 34.6137 35.167ZM33.5653 32.022C33.5653 32.8848 34.2982 33.395 35.3187 33.395C36.7103 33.395 37.7401 32.4858 37.7401 31.2798V30.4634L35.4579 30.6118C34.1684 30.6953 33.5653 31.1685 33.5653 32.0034V32.022ZM45.4807 30.6118C45.2859 33.5342 44.386 35.0928 42.3264 35.0928C41.909 35.0928 41.6028 35.0278 41.4544 34.9814V32.9961C41.5564 33.0239 41.8069 33.061 42.0667 33.061C42.9944 33.061 43.3191 31.8828 43.4119 30.4263L43.7644 24.8599H51.0379V35H48.7278V26.6504H45.7683L45.4807 30.6118ZM57.9806 35.2041C54.9377 35.2041 53.1008 33.2188 53.1008 29.9346V29.916C53.1008 26.6597 54.9655 24.665 57.9806 24.665C61.0051 24.665 62.8605 26.6504 62.8605 29.916V29.9346C62.8605 33.2188 61.0143 35.2041 57.9806 35.2041ZM57.9806 33.3301C59.5856 33.3301 60.4948 32.0776 60.4948 29.9438V29.9253C60.4948 27.7915 59.5763 26.5298 57.9806 26.5298C56.3757 26.5298 55.4572 27.7915 55.4572 29.9253V29.9438C55.4572 32.0776 56.3757 33.3301 57.9806 33.3301ZM71.7515 26.6504H67.2242V35H64.9141V24.8599H71.7515V26.6504ZM82.6219 35.2041C79.5697 35.2041 77.7699 33.228 77.7699 29.916V29.8975C77.7699 26.6226 79.5604 24.665 82.6126 24.665C85.2196 24.665 86.7782 26.1123 87.0379 28.209V28.2461H84.8578L84.8485 28.2183C84.6351 27.2349 83.8836 26.5298 82.6219 26.5298C81.0448 26.5298 80.117 27.7729 80.117 29.8975V29.916C80.117 32.0684 81.0541 33.3301 82.6219 33.3301C83.8187 33.3301 84.5516 32.7827 84.8392 31.7158L84.8578 31.6787L87.0379 31.6694L87.0194 31.7437C86.6854 33.8218 85.1917 35.2041 82.6219 35.2041ZM93.322 35.2041C90.279 35.2041 88.4421 33.2188 88.4421 29.9346V29.916C88.4421 26.6597 90.3069 24.665 93.322 24.665C96.3464 24.665 98.2019 26.6504 98.2019 29.916V29.9346C98.2019 33.2188 96.3557 35.2041 93.322 35.2041ZM93.322 33.3301C94.927 33.3301 95.8362 32.0776 95.8362 29.9438V29.9253C95.8362 27.7915 94.9177 26.5298 93.322 26.5298C91.717 26.5298 90.7986 27.7915 90.7986 29.9253V29.9438C90.7986 32.0776 91.717 33.3301 93.322 33.3301ZM21.854 59.2041C18.8018 59.2041 17.002 57.228 17.002 53.916V53.8975C17.002 50.6226 18.7925 48.665 21.8447 48.665C24.4517 48.665 26.0103 50.1123 26.27 52.209V52.2461H24.0898L24.0806 52.2183C23.8672 51.2349 23.1157 50.5298 21.854 50.5298C20.2769 50.5298 19.3491 51.7729 19.3491 53.8975V53.916C19.3491 56.0684 20.2861 57.3301 21.854 57.3301C23.0508 57.3301 23.7837 56.7827 24.0713 55.7158L24.0898 55.6787L26.27 55.6694L26.2515 55.7437C25.9175 57.8218 24.4238 59.2041 21.854 59.2041ZM28.203 59V48.8599H37.0072V59H34.6972V50.6504H30.5131V59H28.203ZM43.9129 59.2041C40.8977 59.2041 39.0701 57.1816 39.0701 53.9531V53.9438C39.0701 50.7524 40.9163 48.665 43.8015 48.665C46.6868 48.665 48.4681 50.6875 48.4681 53.749V54.5098H41.3802C41.408 56.3281 42.3914 57.3857 43.9593 57.3857C45.2117 57.3857 45.9261 56.7549 46.1487 56.291L46.1765 56.2261H48.3753L48.3474 56.3096C48.0227 57.6177 46.6682 59.2041 43.9129 59.2041ZM43.8294 50.4741C42.5398 50.4741 41.575 51.3462 41.3987 52.9604H46.2137C46.0559 51.2998 45.1189 50.4741 43.8294 50.4741ZM58.7321 61.644V59H50.5124V48.8599H52.8224V57.2188H57.0065V48.8599H59.3166V57.2188H60.8752V61.644H58.7321ZM62.4092 59V48.8599H64.6915V55.6509H64.877L69.1539 48.8599H71.4361V59H69.1539V52.1719H68.959L64.6915 59H62.4092ZM76.7646 59.167C74.8349 59.167 73.434 57.9795 73.434 56.1333V56.1147C73.434 54.3057 74.8164 53.248 77.2841 53.0996L79.8911 52.9419V52.0698C79.8911 51.0586 79.2324 50.502 77.9892 50.502C76.9316 50.502 76.2451 50.8823 76.0131 51.5503L76.0039 51.5874H73.8237L73.833 51.5039C74.0556 49.7969 75.6884 48.665 78.1005 48.665C80.7075 48.665 82.1733 49.9268 82.1733 52.0698V59H79.8911V57.6084H79.7334C79.1767 58.5918 78.1005 59.167 76.7646 59.167ZM75.7163 56.022C75.7163 56.8848 76.4492 57.395 77.4697 57.395C78.8613 57.395 79.8911 56.4858 79.8911 55.2798V54.4634L77.6088 54.6118C76.3193 54.6953 75.7163 55.1685 75.7163 56.0034V56.022ZM87.6317 54.6118C87.4369 57.5342 86.537 59.0928 84.4774 59.0928C84.0599 59.0928 83.7538 59.0278 83.6053 58.9814V56.9961C83.7074 57.0239 83.9579 57.061 84.2176 57.061C85.1454 57.061 85.4701 55.8828 85.5628 54.4263L85.9154 48.8599H93.1888V59H90.8788V50.6504H87.9193L87.6317 54.6118ZM95.7434 59V48.8599H98.0535V51.9214H100.057C102.423 51.9214 103.935 53.3037 103.935 55.4561V55.4746C103.935 57.627 102.423 59 100.057 59H95.7434ZM99.7605 53.7026H98.0535V57.2188H99.7605C100.892 57.2188 101.607 56.5044 101.607 55.4653V55.4468C101.607 54.3984 100.883 53.7026 99.7605 53.7026ZM112.464 59V54.6675H108.188V59H105.878V48.8599H108.188V52.877H112.464V48.8599H114.775V59H112.464ZM117.329 59V48.8599H119.639V51.9214H121.643C124.009 51.9214 125.521 53.3037 125.521 55.4561V55.4746C125.521 57.627 124.009 59 121.643 59H117.329ZM127.182 59V48.8599H129.492V59H127.182ZM121.346 53.7026H119.639V57.2188H121.346C122.478 57.2188 123.192 56.5044 123.192 55.4653V55.4468C123.192 54.3984 122.469 53.7026 121.346 53.7026ZM134.254 59H132.046V48.8599H134.987L137.984 55.9199H138.151L141.157 48.8599H144.042V59H141.834V52.0791H141.658L138.865 58.5454H137.214L134.431 52.0791H134.254V59ZM24.0806 83V78.6675H19.8037V83H17.4937V72.8599H19.8037V76.877H24.0806V72.8599H26.3906V83H24.0806ZM31.7191 83.167C29.7894 83.167 28.3886 81.9795 28.3886 80.1333V80.1147C28.3886 78.3057 29.7709 77.248 32.2387 77.0996L34.8456 76.9419V76.0698C34.8456 75.0586 34.1869 74.502 32.9437 74.502C31.8861 74.502 31.1996 74.8823 30.9677 75.5503L30.9584 75.5874H28.7782L28.7875 75.5039C29.0101 73.7969 30.643 72.665 33.0551 72.665C35.662 72.665 37.1278 73.9268 37.1278 76.0698V83H34.8456V81.6084H34.6879C34.1312 82.5918 33.0551 83.167 31.7191 83.167ZM30.6708 80.022C30.6708 80.8848 31.4037 81.395 32.4242 81.395C33.8158 81.395 34.8456 80.4858 34.8456 79.2798V78.4634L32.5634 78.6118C31.2738 78.6953 30.6708 79.1685 30.6708 80.0034V80.022ZM42.5862 78.6118C42.3914 81.5342 41.4915 83.0928 39.4319 83.0928C39.0144 83.0928 38.7083 83.0278 38.5598 82.9814V80.9961C38.6619 81.0239 38.9124 81.061 39.1722 81.061C40.0999 81.061 40.4246 79.8828 40.5174 78.4263L40.8699 72.8599H48.1433V83H45.8333V74.6504H42.8738L42.5862 78.6118ZM55.0861 83.2041C52.0431 83.2041 50.2062 81.2188 50.2062 77.9346V77.916C50.2062 74.6597 52.071 72.665 55.0861 72.665C58.1105 72.665 59.966 74.6504 59.966 77.916V77.9346C59.966 81.2188 58.1198 83.2041 55.0861 83.2041ZM55.0861 81.3301C56.6911 81.3301 57.6003 80.0776 57.6003 77.9438V77.9253C57.6003 75.7915 56.6818 74.5298 55.0861 74.5298C53.4811 74.5298 52.5627 75.7915 52.5627 77.9253V77.9438C52.5627 80.0776 53.4811 81.3301 55.0861 81.3301ZM68.857 74.6504H64.3297V83H62.0196V72.8599H68.857V74.6504ZM74.8164 83.2041C71.7734 83.2041 69.9365 81.2188 69.9365 77.9346V77.916C69.9365 74.6597 71.8012 72.665 74.8164 72.665C77.8408 72.665 79.6963 74.6504 79.6963 77.916V77.9346C79.6963 81.2188 77.8501 83.2041 74.8164 83.2041ZM74.8164 81.3301C76.4213 81.3301 77.3305 80.0776 77.3305 77.9438V77.9253C77.3305 75.7915 76.4121 74.5298 74.8164 74.5298C73.2114 74.5298 72.2929 75.7915 72.2929 77.9253V77.9438C72.2929 80.0776 73.2114 81.3301 74.8164 81.3301ZM81.7499 83V72.8599H86.5462C88.5873 72.8599 89.784 73.8896 89.784 75.4482V75.4668C89.784 76.5244 89.0511 77.4614 88.0213 77.6377V77.7954C89.3573 77.9438 90.2386 78.8716 90.2386 80.0962V80.1147C90.2386 81.8403 88.8656 83 86.6112 83H81.7499ZM84.0321 77.0718H85.8133C86.9544 77.0718 87.5111 76.6079 87.5111 75.7637V75.7451C87.5111 74.9751 87.0194 74.4556 85.9989 74.4556H84.0321V77.0718ZM84.0321 81.4043H86.1937C87.307 81.4043 87.8729 80.8848 87.8729 80.0127V79.9941C87.8729 79.0757 87.242 78.6211 85.9803 78.6211H84.0321V81.4043ZM92.3664 83V72.8599H94.6765V75.9214H96.6804C99.0461 75.9214 100.558 77.3037 100.558 79.4561V79.4746C100.558 81.627 99.0461 83 96.6804 83H92.3664ZM102.219 83V72.8599H104.529V83H102.219ZM96.3835 77.7026H94.6765V81.2188H96.3835C97.5154 81.2188 98.2297 80.5044 98.2297 79.4653V79.4468C98.2297 78.3984 97.5061 77.7026 96.3835 77.7026ZM109.292 83H107.084V72.8599H110.025L113.021 79.9199H113.188L116.194 72.8599H119.079V83H116.871V76.0791H116.695L113.902 82.5454H112.251L109.468 76.0791H109.292V83ZM17.5029 110.368V96.8599H19.813V98.4463H19.9707C20.5273 97.3423 21.6313 96.6929 23.0508 96.6929C25.5928 96.6929 27.2163 98.7153 27.2163 101.925V101.944C27.2163 105.172 25.6206 107.167 23.0508 107.167C21.6592 107.167 20.4995 106.48 19.9707 105.386H19.813V110.368H17.5029ZM22.3271 105.219C23.9043 105.219 24.8599 103.976 24.8599 101.944V101.925C24.8599 99.8843 23.9043 98.6411 22.3271 98.6411C20.7593 98.6411 19.7852 99.8843 19.7852 101.916V101.935C19.7852 103.966 20.7593 105.219 22.3271 105.219ZM33.6303 107.204C30.6151 107.204 28.7875 105.182 28.7875 101.953V101.944C28.7875 98.7524 30.6337 96.665 33.5189 96.665C36.4042 96.665 38.1854 98.6875 38.1854 101.749V102.51H31.0976C31.1254 104.328 32.1088 105.386 33.6767 105.386C34.9291 105.386 35.6434 104.755 35.8661 104.291L35.8939 104.226H38.0927L38.0648 104.31C37.7401 105.618 36.3856 107.204 33.6303 107.204ZM33.5468 98.4741C32.2572 98.4741 31.2924 99.3462 31.1161 100.96H35.931C35.7733 99.2998 34.8363 98.4741 33.5468 98.4741ZM41.3523 107H38.6341L42.5862 101.573L38.8196 96.8599H41.4358L44.4417 100.97H45.0076V96.8599H47.2527V100.97H47.8186L50.8338 96.8599H53.4314L49.6834 101.545L53.6448 107H50.9173L47.8465 102.584H47.2527V107H45.0076V102.584H44.4231L41.3523 107ZM55.1696 107V96.8599H57.4518V103.651H57.6374L61.9142 96.8599H64.1965V107H61.9142V100.172H61.7194L57.4518 107H55.1696ZM68.959 107H66.751V96.8599H69.692L72.6885 103.92H72.8555L75.8614 96.8599H78.7466V107H76.5386V100.079H76.3624L73.5699 106.545H71.9185L69.1353 100.079H68.959V107ZM85.6894 107.204C82.6464 107.204 80.8095 105.219 80.8095 101.935V101.916C80.8095 98.6597 82.6743 96.665 85.6894 96.665C88.7138 96.665 90.5693 98.6504 90.5693 101.916V101.935C90.5693 105.219 88.7231 107.204 85.6894 107.204ZM85.6894 105.33C87.2944 105.33 88.2036 104.078 88.2036 101.944V101.925C88.2036 99.7915 87.2851 98.5298 85.6894 98.5298C84.0844 98.5298 83.166 99.7915 83.166 101.925V101.944C83.166 104.078 84.0844 105.33 85.6894 105.33ZM94.8309 107H92.6229V96.8599H95.5638L98.5604 103.92H98.7274L101.733 96.8599H104.619V107H102.41V100.079H102.234L99.4417 106.545H97.7904L95.0072 100.079H94.8309V107Z" fill="black"/>
<path d="M17.3359 163V154.578H24.1484V163H22.7891V155.703H18.6953V163H17.3359ZM28.3549 159.703C28.1752 162.023 27.4564 163.078 26.0502 163.078C25.7611 163.078 25.5424 163.031 25.433 162.992V161.766C25.5033 161.789 25.7142 161.82 25.9174 161.82C26.6908 161.82 27.0033 160.844 27.0892 159.594L27.4486 154.578H32.9564V163H31.5971V155.703H28.6674L28.3549 159.703ZM37.5066 163.148C35.9051 163.148 34.6941 162.18 34.6941 160.648V160.633C34.6941 159.133 35.8035 158.266 37.7644 158.148L40.1785 158V157.234C40.1785 156.195 39.5457 155.633 38.2879 155.633C37.2801 155.633 36.616 156.008 36.3972 156.664L36.3894 156.688H35.0301L35.0379 156.641C35.2566 155.32 36.5379 154.43 38.3347 154.43C40.3894 154.43 41.5379 155.484 41.5379 157.234V163H40.1785V161.758H40.0535C39.5222 162.656 38.6394 163.148 37.5066 163.148ZM36.0847 160.617C36.0847 161.469 36.8113 161.969 37.7879 161.969C39.1707 161.969 40.1785 161.062 40.1785 159.859V159.094L37.9285 159.234C36.6472 159.312 36.0847 159.766 36.0847 160.602V160.617ZM49.2599 163V159.188H45.0881V163H43.7287V154.578H45.0881V158.062H49.2599V154.578H50.6193V163H49.2599Z" fill="black" fill-opacity="0.6"/>
<path d="M166.309 150.26C169.407 150.26 171.838 152.468 171.838 157.172V157.19C171.838 161.671 169.723 164.334 166.29 164.334C163.702 164.334 161.781 162.803 161.364 160.707L161.345 160.623H164.091L164.119 160.707C164.444 161.542 165.205 162.107 166.281 162.107C168.22 162.107 169.073 160.206 169.175 157.766C169.175 157.673 169.175 157.571 169.175 157.469H168.99C168.507 158.499 167.394 159.426 165.539 159.426C162.932 159.426 161.178 157.571 161.178 155.038V155.02C161.178 152.283 163.293 150.26 166.309 150.26ZM166.309 157.357C167.691 157.357 168.758 156.374 168.758 154.992V154.973C168.758 153.572 167.691 152.487 166.327 152.487C164.973 152.487 163.887 153.554 163.887 154.917V154.936C163.887 156.346 164.908 157.357 166.309 157.357ZM179.235 164.343C176.127 164.343 173.706 162.145 173.706 157.432V157.413C173.706 152.932 175.821 150.27 179.245 150.27C181.833 150.27 183.763 151.8 184.171 153.897L184.189 153.99H181.453L181.415 153.906C181.1 153.071 180.339 152.505 179.254 152.505C177.315 152.505 176.471 154.407 176.369 156.838C176.359 156.94 176.359 157.042 176.359 157.144H176.545C177.027 156.105 178.15 155.187 179.996 155.187C182.603 155.187 184.366 157.042 184.366 159.575V159.593C184.366 162.33 182.25 164.343 179.235 164.343ZM176.777 159.63C176.777 161.041 177.853 162.126 179.217 162.126C180.571 162.126 181.657 161.059 181.657 159.686V159.667C181.657 158.267 180.636 157.246 179.235 157.246C177.853 157.246 176.777 158.239 176.777 159.621V159.63ZM189.722 164V153.257H189.555L186.271 155.539V153.016L189.731 150.613H192.524V164H189.722Z" fill="black" fill-opacity="0.6"/>
<path d="M21.2656 193.812V191.102C18.6562 191.055 16.9219 189.383 16.9219 186.797V186.781C16.9219 184.188 18.6562 182.516 21.2656 182.477V179.727H22.5781V182.477C25.1797 182.523 26.9141 184.188 26.9141 186.781V186.797C26.9141 189.391 25.1797 191.062 22.5781 191.102V193.812H21.2656ZM21.2656 189.938V183.641C19.4453 183.68 18.2891 184.867 18.2891 186.781V186.797C18.2891 188.703 19.4453 189.891 21.2656 189.938ZM22.5781 189.938C24.3906 189.898 25.5469 188.711 25.5469 186.797V186.781C25.5469 184.875 24.3906 183.688 22.5781 183.641V189.938ZM31.058 191.148C29.4564 191.148 28.2455 190.18 28.2455 188.648V188.633C28.2455 187.133 29.3549 186.266 31.3158 186.148L33.7299 186V185.234C33.7299 184.195 33.0971 183.633 31.8392 183.633C30.8314 183.633 30.1674 184.008 29.9486 184.664L29.9408 184.688H28.5814L28.5892 184.641C28.808 183.32 30.0892 182.43 31.8861 182.43C33.9408 182.43 35.0892 183.484 35.0892 185.234V191H33.7299V189.758H33.6049C33.0736 190.656 32.1908 191.148 31.058 191.148ZM29.6361 188.617C29.6361 189.469 30.3627 189.969 31.3392 189.969C32.7221 189.969 33.7299 189.062 33.7299 187.859V187.094L31.4799 187.234C30.1986 187.312 29.6361 187.766 29.6361 188.602V188.617ZM39.0691 187.164H38.6394V191H37.2801V182.578H38.6394V186.102H39.0691L42.3269 182.578H43.9597L40.1707 186.547L44.1082 191H42.366L39.0691 187.164ZM51.2521 182.578V183.703H48.5256V191H47.1662V183.703H44.4396V182.578H51.2521Z" fill="black"/>
<path d="M148.629 192V181.257H148.462L145.178 183.539V181.016L148.639 178.613H151.431V192H148.629ZM159.092 192V190.117L163.406 185.858C165.289 184.031 165.799 183.354 165.799 182.417V182.389C165.799 181.248 165.02 180.45 163.74 180.45C162.431 180.45 161.532 181.322 161.532 182.593V182.639H158.943L158.934 182.602C158.934 180.032 160.938 178.27 163.869 178.27C166.625 178.27 168.554 179.847 168.554 182.157V182.185C168.554 183.706 167.766 184.968 165.326 187.222L162.849 189.532V189.746H168.749V192H159.092ZM175.831 178.26C178.93 178.26 181.361 180.468 181.361 185.172V185.19C181.361 189.671 179.245 192.334 175.813 192.334C173.224 192.334 171.304 190.803 170.886 188.707L170.868 188.623H173.614L173.642 188.707C173.966 189.542 174.727 190.107 175.803 190.107C177.742 190.107 178.596 188.206 178.698 185.766C178.698 185.673 178.698 185.571 178.698 185.469H178.512C178.03 186.499 176.917 187.426 175.061 187.426C172.454 187.426 170.701 185.571 170.701 183.038V183.02C170.701 180.283 172.816 178.26 175.831 178.26ZM175.831 185.357C177.214 185.357 178.28 184.374 178.28 182.992V182.973C178.28 181.572 177.214 180.487 175.85 180.487C174.495 180.487 173.41 181.554 173.41 182.917V182.936C173.41 184.346 174.43 185.357 175.831 185.357ZM188.275 192.297C185.251 192.297 183.256 190.673 183.071 188.28L183.062 188.159H185.743L185.752 188.261C185.873 189.3 186.828 190.042 188.275 190.042C189.704 190.042 190.641 189.245 190.641 188.113V188.094C190.641 186.814 189.686 186.109 188.062 186.109H186.531V184.114H188.025C189.435 184.114 190.344 183.372 190.344 182.287V182.268C190.344 181.155 189.574 180.468 188.257 180.468C186.94 180.468 186.058 181.183 185.947 182.296L185.938 182.379H183.358L183.368 182.268C183.563 179.875 185.446 178.316 188.257 178.316C191.133 178.316 192.988 179.763 192.988 181.897V181.916C192.988 183.585 191.764 184.671 190.196 184.996V185.051C192.19 185.237 193.489 186.387 193.489 188.206V188.224C193.489 190.655 191.402 192.297 188.275 192.297Z" fill="black"/>
</svg>
