<svg width="211" height="211" viewBox="0 0 211 211" fill="none" xmlns="http://www.w3.org/2000/svg">
<rect width="211" height="211" rx="8" fill="#FFCAC1"/>
<path d="M17.7441 35V21.6128H20.1377V27.1792H26.6504V21.6128H29.0347V35H26.6504V29.1924H20.1377V35H17.7441ZM34.6137 35.167C32.684 35.167 31.2831 33.9795 31.2831 32.1333V32.1147C31.2831 30.3057 32.6654 29.248 35.1332 29.0996L37.7401 28.9419V28.0698C37.7401 27.0586 37.0814 26.502 35.8383 26.502C34.7807 26.502 34.0941 26.8823 33.8622 27.5503L33.8529 27.5874H31.6727L31.682 27.5039C31.9047 25.7969 33.5375 24.665 35.9496 24.665C38.5565 24.665 40.0224 25.9268 40.0224 28.0698V35H37.7401V33.6084H37.5824C37.0258 34.5918 35.9496 35.167 34.6137 35.167ZM33.5653 32.022C33.5653 32.8848 34.2982 33.395 35.3187 33.395C36.7103 33.395 37.7401 32.4858 37.7401 31.2798V30.4634L35.4579 30.6118C34.1684 30.6953 33.5653 31.1685 33.5653 32.0034V32.022ZM45.4807 30.6118C45.2859 33.5342 44.386 35.0928 42.3264 35.0928C41.909 35.0928 41.6028 35.0278 41.4544 34.9814V32.9961C41.5564 33.0239 41.8069 33.061 42.0667 33.061C42.9944 33.061 43.3191 31.8828 43.4119 30.4263L43.7644 24.8599H51.0379V35H48.7278V26.6504H45.7683L45.4807 30.6118ZM57.9806 35.2041C54.9377 35.2041 53.1008 33.2188 53.1008 29.9346V29.916C53.1008 26.6597 54.9655 24.665 57.9806 24.665C61.0051 24.665 62.8605 26.6504 62.8605 29.916V29.9346C62.8605 33.2188 61.0143 35.2041 57.9806 35.2041ZM57.9806 33.3301C59.5856 33.3301 60.4948 32.0776 60.4948 29.9438V29.9253C60.4948 27.7915 59.5763 26.5298 57.9806 26.5298C56.3757 26.5298 55.4572 27.7915 55.4572 29.9253V29.9438C55.4572 32.0776 56.3757 33.3301 57.9806 33.3301ZM71.7515 26.6504H67.2242V35H64.9141V24.8599H71.7515V26.6504ZM84.8485 35V30.6675H80.5716V35H78.2616V24.8599H80.5716V28.877H84.8485V24.8599H87.1585V35H84.8485ZM92.4871 35.167C90.5574 35.167 89.1565 33.9795 89.1565 32.1333V32.1147C89.1565 30.3057 90.5388 29.248 93.0066 29.0996L95.6135 28.9419V28.0698C95.6135 27.0586 94.9548 26.502 93.7117 26.502C92.654 26.502 91.9675 26.8823 91.7356 27.5503L91.7263 27.5874H89.5461L89.5554 27.5039C89.7781 25.7969 91.4109 24.665 93.823 24.665C96.4299 24.665 97.8957 25.9268 97.8957 28.0698V35H95.6135V33.6084H95.4558C94.8992 34.5918 93.823 35.167 92.4871 35.167ZM91.4387 32.022C91.4387 32.8848 92.1716 33.395 93.1921 33.395C94.5837 33.395 95.6135 32.4858 95.6135 31.2798V30.4634L93.3313 30.6118C92.0417 30.6953 91.4387 31.1685 91.4387 32.0034V32.022ZM17.4937 59V48.8599H19.7759V55.6509H19.9614L24.2383 48.8599H26.5205V59H24.2383V52.1719H24.0435L19.7759 59H17.4937ZM31.2831 59H29.0751V48.8599H32.016L35.0126 55.9199H35.1796L38.1854 48.8599H41.0707V59H38.8627V52.0791H38.6864L35.8939 58.5454H34.2426L31.4594 52.0791H31.2831V59ZM44.72 62.5625C44.4417 62.5625 44.117 62.5532 43.8387 62.5254V60.7534C44.0242 60.772 44.284 60.7812 44.5252 60.7812C45.4715 60.7812 46.0374 60.3916 46.2879 59.4731L46.4085 59.0093L42.781 48.8599H45.3045L47.6702 56.7827H47.8465L50.2029 48.8599H52.6336L48.9969 59.2134C48.1248 61.7554 46.9651 62.5625 44.72 62.5625ZM54.3532 59V48.8599H56.6633V57.1909H59.8918V48.8599H62.2018V57.1909H65.4211V48.8599H67.7311V57.2188H69.3361V61.644H67.193V59H54.3532ZM75.2027 59.2041C72.1876 59.2041 70.3599 57.1816 70.3599 53.9531V53.9438C70.3599 50.7524 72.2061 48.665 75.0914 48.665C77.9766 48.665 79.7579 50.6875 79.7579 53.749V54.5098H72.67C72.6978 56.3281 73.6812 57.3857 75.2491 57.3857C76.5015 57.3857 77.2159 56.7549 77.4385 56.291L77.4664 56.2261H79.6651L79.6373 56.3096C79.3126 57.6177 77.9581 59.2041 75.2027 59.2041ZM75.1192 50.4741C73.8297 50.4741 72.8648 51.3462 72.6885 52.9604H77.5035C77.3458 51.2998 76.4088 50.4741 75.1192 50.4741ZM86.1626 59.2041C83.1103 59.2041 81.3105 57.228 81.3105 53.916V53.8975C81.3105 50.6226 83.101 48.665 86.1533 48.665C88.7602 48.665 90.3188 50.1123 90.5786 52.209V52.2461H88.3984L88.3891 52.2183C88.1757 51.2349 87.4243 50.5298 86.1626 50.5298C84.5854 50.5298 83.6577 51.7729 83.6577 53.8975V53.916C83.6577 56.0684 84.5947 57.3301 86.1626 57.3301C87.3593 57.3301 88.0922 56.7827 88.3798 55.7158L88.3984 55.6787L90.5786 55.6694L90.56 55.7437C90.226 57.8218 88.7324 59.2041 86.1626 59.2041ZM99.85 48.8599V50.6504H96.7235V59H94.4134V50.6504H91.2962V48.8599H99.85ZM101.588 59V48.8599H106.385C108.426 48.8599 109.622 49.8896 109.622 51.4482V51.4668C109.622 52.5244 108.889 53.4614 107.86 53.6377V53.7954C109.196 53.9438 110.077 54.8716 110.077 56.0962V56.1147C110.077 57.8403 108.704 59 106.449 59H101.588ZM103.87 53.0718H105.652C106.793 53.0718 107.349 52.6079 107.349 51.7637V51.7451C107.349 50.9751 106.858 50.4556 105.837 50.4556H103.87V53.0718ZM103.87 57.4043H106.032C107.145 57.4043 107.711 56.8848 107.711 56.0127V55.9941C107.711 55.0757 107.08 54.6211 105.819 54.6211H103.87V57.4043ZM116.463 59.2041C113.42 59.2041 111.583 57.2188 111.583 53.9346V53.916C111.583 50.6597 113.448 48.665 116.463 48.665C119.487 48.665 121.343 50.6504 121.343 53.916V53.9346C121.343 57.2188 119.497 59.2041 116.463 59.2041ZM116.463 57.3301C118.068 57.3301 118.977 56.0776 118.977 53.9438V53.9253C118.977 51.7915 118.059 50.5298 116.463 50.5298C114.858 50.5298 113.94 51.7915 113.94 53.9253V53.9438C113.94 56.0776 114.858 57.3301 116.463 57.3301ZM132.38 59.2041C129.328 59.2041 127.528 57.228 127.528 53.916V53.8975C127.528 50.6226 129.319 48.665 132.371 48.665C134.978 48.665 136.537 50.1123 136.796 52.209V52.2461H134.616L134.607 52.2183C134.393 51.2349 133.642 50.5298 132.38 50.5298C130.803 50.5298 129.875 51.7729 129.875 53.8975V53.916C129.875 56.0684 130.812 57.3301 132.38 57.3301C133.577 57.3301 134.31 56.7827 134.598 55.7158L134.616 55.6787L136.796 55.6694L136.778 55.7437C136.444 57.8218 134.95 59.2041 132.38 59.2041ZM21.8818 83.2041C18.8389 83.2041 17.002 81.2188 17.002 77.9346V77.916C17.002 74.6597 18.8667 72.665 21.8818 72.665C24.9062 72.665 26.7617 74.6504 26.7617 77.916V77.9346C26.7617 81.2188 24.9155 83.2041 21.8818 83.2041ZM21.8818 81.3301C23.4868 81.3301 24.396 80.0776 24.396 77.9438V77.9253C24.396 75.7915 23.4775 74.5298 21.8818 74.5298C20.2769 74.5298 19.3584 75.7915 19.3584 77.9253V77.9438C19.3584 80.0776 20.2769 81.3301 21.8818 81.3301ZM28.8246 86.3677V72.8599H31.1347V74.4463H31.2924C31.849 73.3423 32.953 72.6929 34.3725 72.6929C36.9144 72.6929 38.538 74.7153 38.538 77.9253V77.9438C38.538 81.1724 36.9423 83.167 34.3725 83.167C32.9809 83.167 31.8212 82.4805 31.2924 81.3857H31.1347V86.3677H28.8246ZM33.6488 81.2188C35.226 81.2188 36.1815 79.9756 36.1815 77.9438V77.9253C36.1815 75.8843 35.226 74.6411 33.6488 74.6411C32.0809 74.6411 31.1068 75.8843 31.1068 77.916V77.9346C31.1068 79.9663 32.0809 81.2188 33.6488 81.2188ZM47.4383 74.6504H42.9109V83H40.6009V72.8599H47.4383V74.6504ZM51.839 83.167C49.9094 83.167 48.5085 81.9795 48.5085 80.1333V80.1147C48.5085 78.3057 49.8908 77.248 52.3586 77.0996L54.9655 76.9419V76.0698C54.9655 75.0586 54.3068 74.502 53.0636 74.502C52.006 74.502 51.3195 74.8823 51.0876 75.5503L51.0783 75.5874H48.8981L48.9074 75.5039C49.1301 73.7969 50.7629 72.665 53.175 72.665C55.7819 72.665 57.2477 73.9268 57.2477 76.0698V83H54.9655V81.6084H54.8078C54.2511 82.5918 53.175 83.167 51.839 83.167ZM50.7907 80.022C50.7907 80.8848 51.5236 81.395 52.5441 81.395C53.9357 81.395 54.9655 80.4858 54.9655 79.2798V78.4634L52.6833 78.6118C51.3937 78.6953 50.7907 79.1685 50.7907 80.0034V80.022ZM66.3428 83V78.6675H62.066V83H59.7559V72.8599H62.066V76.877H66.3428V72.8599H68.6529V83H66.3428ZM71.2075 83V72.8599H73.4897V79.6509H73.6753L77.9521 72.8599H80.2343V83H77.9521V76.1719H77.7573L73.4897 83H71.2075ZM86.5926 83.2134C84.2918 83.2134 82.4642 82.1743 82.2416 80.2075L82.2323 80.124H84.4774L84.4959 80.189C84.7093 80.9683 85.4793 81.4229 86.5648 81.4229C87.8265 81.4229 88.5687 80.8384 88.5687 80.0034V79.9849C88.5687 79.085 87.8636 78.6304 86.5555 78.6304H85.099V77.0718H86.5462C87.7245 77.0718 88.2811 76.5894 88.2811 75.7544V75.7358C88.2811 75.0029 87.7152 74.4463 86.5741 74.4463C85.535 74.4463 84.8392 74.9194 84.7001 75.6523L84.6908 75.6987H82.5013L82.5106 75.6245C82.7425 73.8525 84.162 72.6558 86.6483 72.6558C89.0511 72.6558 90.5355 73.7412 90.5355 75.4575V75.4761C90.5355 76.543 89.8583 77.3687 88.7635 77.6191V77.7769C90.1737 78.0552 90.8602 78.8716 90.8602 80.0034V80.022C90.8602 81.9053 89.1996 83.2134 86.5926 83.2134ZM95.697 83.167C93.7673 83.167 92.3664 81.9795 92.3664 80.1333V80.1147C92.3664 78.3057 93.7488 77.248 96.2165 77.0996L98.8235 76.9419V76.0698C98.8235 75.0586 98.1648 74.502 96.9216 74.502C95.864 74.502 95.1775 74.8823 94.9455 75.5503L94.9363 75.5874H92.7561L92.7654 75.5039C92.988 73.7969 94.6208 72.665 97.033 72.665C99.6399 72.665 101.106 73.9268 101.106 76.0698V83H98.8235V81.6084H98.6658C98.1091 82.5918 97.033 83.167 95.697 83.167ZM94.6487 80.022C94.6487 80.8848 95.3816 81.395 96.4021 81.395C97.7937 81.395 98.8235 80.4858 98.8235 79.2798V78.4634L96.5413 78.6118C95.2517 78.6953 94.6487 79.1685 94.6487 80.0034V80.022ZM111.834 85.644V83H103.614V72.8599H105.924V81.2188H110.108V72.8599H112.418V81.2188H113.977V85.644H111.834ZM115.511 83V72.8599H117.793V79.6509H117.979L122.255 72.8599H124.538V83H122.255V76.1719H122.061L117.793 83H115.511ZM131.61 71.4775C129.56 71.4775 128.205 70.1509 128.205 68.314H130.015C130.033 69.3066 130.636 70.1323 131.61 70.1323C132.584 70.1323 133.178 69.3066 133.197 68.314H135.015C135.015 70.1509 133.651 71.4775 131.61 71.4775ZM127.092 83V72.8599H129.374V79.6509H129.56L133.837 72.8599H136.119V83H133.837V76.1719H133.642L129.374 83H127.092Z" fill="black"/>
<path d="M17.3359 163V154.578H24.1484V163H22.7891V155.703H18.6953V163H17.3359ZM28.3549 159.703C28.1752 162.023 27.4564 163.078 26.0502 163.078C25.7611 163.078 25.5424 163.031 25.433 162.992V161.766C25.5033 161.789 25.7142 161.82 25.9174 161.82C26.6908 161.82 27.0033 160.844 27.0892 159.594L27.4486 154.578H32.9564V163H31.5971V155.703H28.6674L28.3549 159.703ZM37.5066 163.148C35.9051 163.148 34.6941 162.18 34.6941 160.648V160.633C34.6941 159.133 35.8035 158.266 37.7644 158.148L40.1785 158V157.234C40.1785 156.195 39.5457 155.633 38.2879 155.633C37.2801 155.633 36.616 156.008 36.3972 156.664L36.3894 156.688H35.0301L35.0379 156.641C35.2566 155.32 36.5379 154.43 38.3347 154.43C40.3894 154.43 41.5379 155.484 41.5379 157.234V163H40.1785V161.758H40.0535C39.5222 162.656 38.6394 163.148 37.5066 163.148ZM36.0847 160.617C36.0847 161.469 36.8113 161.969 37.7879 161.969C39.1707 161.969 40.1785 161.062 40.1785 159.859V159.094L37.9285 159.234C36.6472 159.312 36.0847 159.766 36.0847 160.602V160.617ZM49.2599 163V159.188H45.0881V163H43.7287V154.578H45.0881V158.062H49.2599V154.578H50.6193V163H49.2599Z" fill="black" fill-opacity="0.6"/>
<path d="M161.948 164L167.654 152.997V152.839H160.9V150.604H170.474V152.867L164.88 164H161.948ZM173.363 164L179.068 152.997V152.839H172.314V150.604H181.889V152.867L176.294 164H173.363ZM188.627 164.297C185.603 164.297 183.608 162.673 183.423 160.28L183.413 160.159H186.095L186.104 160.261C186.224 161.3 187.18 162.042 188.627 162.042C190.056 162.042 190.993 161.245 190.993 160.113V160.094C190.993 158.814 190.037 158.109 188.414 158.109H186.883V156.114H188.377C189.787 156.114 190.696 155.372 190.696 154.287V154.268C190.696 153.155 189.926 152.468 188.609 152.468C187.291 152.468 186.41 153.183 186.299 154.296L186.289 154.379H183.71L183.72 154.268C183.914 151.875 185.798 150.316 188.609 150.316C191.485 150.316 193.34 151.763 193.34 153.897V153.916C193.34 155.585 192.116 156.671 190.548 156.996V157.051C192.542 157.237 193.841 158.387 193.841 160.206V160.224C193.841 162.655 191.754 164.297 188.627 164.297Z" fill="black" fill-opacity="0.6"/>
<path d="M21.2656 193.812V191.102C18.6562 191.055 16.9219 189.383 16.9219 186.797V186.781C16.9219 184.188 18.6562 182.516 21.2656 182.477V179.727H22.5781V182.477C25.1797 182.523 26.9141 184.188 26.9141 186.781V186.797C26.9141 189.391 25.1797 191.062 22.5781 191.102V193.812H21.2656ZM21.2656 189.938V183.641C19.4453 183.68 18.2891 184.867 18.2891 186.781V186.797C18.2891 188.703 19.4453 189.891 21.2656 189.938ZM22.5781 189.938C24.3906 189.898 25.5469 188.711 25.5469 186.797V186.781C25.5469 184.875 24.3906 183.688 22.5781 183.641V189.938ZM31.058 191.148C29.4564 191.148 28.2455 190.18 28.2455 188.648V188.633C28.2455 187.133 29.3549 186.266 31.3158 186.148L33.7299 186V185.234C33.7299 184.195 33.0971 183.633 31.8392 183.633C30.8314 183.633 30.1674 184.008 29.9486 184.664L29.9408 184.688H28.5814L28.5892 184.641C28.808 183.32 30.0892 182.43 31.8861 182.43C33.9408 182.43 35.0892 183.484 35.0892 185.234V191H33.7299V189.758H33.6049C33.0736 190.656 32.1908 191.148 31.058 191.148ZM29.6361 188.617C29.6361 189.469 30.3627 189.969 31.3392 189.969C32.7221 189.969 33.7299 189.062 33.7299 187.859V187.094L31.4799 187.234C30.1986 187.312 29.6361 187.766 29.6361 188.602V188.617ZM39.0691 187.164H38.6394V191H37.2801V182.578H38.6394V186.102H39.0691L42.3269 182.578H43.9597L40.1707 186.547L44.1082 191H42.366L39.0691 187.164ZM51.2521 182.578V183.703H48.5256V191H47.1662V183.703H44.4396V182.578H51.2521Z" fill="black"/>
<path d="M162.948 192L168.654 180.997V180.839H161.9V178.604H171.474V180.867L165.88 192H162.948ZM178.166 178.26C181.265 178.26 183.696 180.468 183.696 185.172V185.19C183.696 189.671 181.58 192.334 178.148 192.334C175.559 192.334 173.639 190.803 173.222 188.707L173.203 188.623H175.949L175.977 188.707C176.302 189.542 177.062 190.107 178.139 190.107C180.078 190.107 180.931 188.206 181.033 185.766C181.033 185.673 181.033 185.571 181.033 185.469H180.848C180.365 186.499 179.252 187.426 177.396 187.426C174.789 187.426 173.036 185.571 173.036 183.038V183.02C173.036 180.283 175.151 178.26 178.166 178.26ZM178.166 185.357C179.549 185.357 180.616 184.374 180.616 182.992V182.973C180.616 181.572 179.549 180.487 178.185 180.487C176.83 180.487 175.745 181.554 175.745 182.917V182.936C175.745 184.346 176.766 185.357 178.166 185.357ZM189.033 192V181.257H188.866L185.582 183.539V181.016L189.043 178.613H191.835V192H189.033Z" fill="black"/>
</svg>
