<svg width="211" height="211" viewBox="0 0 211 211" fill="none" xmlns="http://www.w3.org/2000/svg">
<rect width="211" height="211" rx="8" fill="#FF9383"/>
<path d="M20.2305 29.1553V27.2163H22.021C23.5146 27.2163 24.4609 26.3999 24.4609 25.1846V25.166C24.4609 24.0342 23.5796 23.3198 22.0859 23.3198C20.6294 23.3198 19.6738 24.0156 19.5625 25.1938L19.5532 25.2495H17.2988L17.3081 25.1289C17.4658 22.7632 19.3306 21.2788 22.1602 21.2788C24.8784 21.2788 26.7896 22.7539 26.7896 24.897V24.9155C26.7896 26.3906 25.7598 27.6152 24.2754 27.9492V28.1069C26.0288 28.2832 27.2627 29.4893 27.2627 31.3262V31.3447C27.2627 33.6548 25.0269 35.334 22.1045 35.334C19.145 35.334 17.104 33.7476 16.9741 31.3911L16.9648 31.3076H19.2842L19.2935 31.3633C19.4048 32.5693 20.4995 33.293 22.1138 33.293C23.7373 33.293 24.8228 32.4673 24.8228 31.2056V31.187C24.8228 29.9346 23.8115 29.1553 22.0581 29.1553H20.2305ZM33.6859 35.2041C30.6708 35.2041 28.8432 33.1816 28.8432 29.9531V29.9438C28.8432 26.7524 30.6893 24.665 33.5746 24.665C36.4599 24.665 38.2411 26.6875 38.2411 29.749V30.5098H31.1532C31.181 32.3281 32.1644 33.3857 33.7323 33.3857C34.9848 33.3857 35.6991 32.7549 35.9218 32.291L35.9496 32.2261H38.1483L38.1205 32.3096C37.7958 33.6177 36.4413 35.2041 33.6859 35.2041ZM33.6024 26.4741C32.3129 26.4741 31.348 27.3462 31.1718 28.9604H35.9867C35.829 27.2998 34.892 26.4741 33.6024 26.4741ZM42.4934 35H40.2854V24.8599H43.2264L46.2229 31.9199H46.3899L49.3958 24.8599H52.281V35H50.073V28.0791H49.8968L47.1043 34.5454H45.4529L42.6697 28.0791H42.4934V35ZM59.1867 35.2041C56.1716 35.2041 54.3439 33.1816 54.3439 29.9531V29.9438C54.3439 26.7524 56.1901 24.665 59.0754 24.665C61.9606 24.665 63.7419 26.6875 63.7419 29.749V30.5098H56.654C56.6818 32.3281 57.6652 33.3857 59.2331 33.3857C60.4855 33.3857 61.1999 32.7549 61.4225 32.291L61.4504 32.2261H63.6491L63.6213 32.3096C63.2966 33.6177 61.9421 35.2041 59.1867 35.2041ZM59.1032 26.4741C57.8136 26.4741 56.8488 27.3462 56.6725 28.9604H61.4875C61.3298 27.2998 60.3927 26.4741 59.1032 26.4741ZM68.4766 30.6118C68.2818 33.5342 67.3819 35.0928 65.3223 35.0928C64.9049 35.0928 64.5987 35.0278 64.4503 34.9814V32.9961C64.5523 33.0239 64.8028 33.061 65.0626 33.061C65.9903 33.061 66.315 31.8828 66.4078 30.4263L66.7603 24.8599H74.0338V35H71.7237V26.6504H68.7642L68.4766 30.6118ZM76.5883 35V24.8599H78.8984V27.9214H80.9023C83.268 27.9214 84.7802 29.3037 84.7802 31.4561V31.4746C84.7802 33.627 83.268 35 80.9023 35H76.5883ZM80.6054 29.7026H78.8984V33.2188H80.6054C81.7373 33.2188 82.4516 32.5044 82.4516 31.4653V31.4468C82.4516 30.3984 81.728 29.7026 80.6054 29.7026ZM93.3094 35V30.6675H89.0326V35H86.7225V24.8599H89.0326V28.877H93.3094V24.8599H95.6195V35H93.3094ZM98.1741 35V24.8599H100.484V27.9214H102.488C104.854 27.9214 106.366 29.3037 106.366 31.4561V31.4746C106.366 33.627 104.854 35 102.488 35H98.1741ZM108.027 35V24.8599H110.337V35H108.027ZM102.191 29.7026H100.484V33.2188H102.191C103.323 33.2188 104.037 32.5044 104.037 31.4653V31.4468C104.037 30.3984 103.314 29.7026 102.191 29.7026ZM117.409 23.4775C115.359 23.4775 114.005 22.1509 114.005 20.314H115.814C115.832 21.3066 116.435 22.1323 117.409 22.1323C118.383 22.1323 118.977 21.3066 118.996 20.314H120.814C120.814 22.1509 119.45 23.4775 117.409 23.4775ZM112.891 35V24.8599H115.173V31.6509H115.359L119.636 24.8599H121.918V35H119.636V28.1719H119.441L115.173 35H112.891ZM135.683 35V30.6675H131.406V35H129.096V24.8599H131.406V28.877H135.683V24.8599H137.993V35H135.683ZM143.322 35.167C141.392 35.167 139.991 33.9795 139.991 32.1333V32.1147C139.991 30.3057 141.373 29.248 143.841 29.0996L146.448 28.9419V28.0698C146.448 27.0586 145.789 26.502 144.546 26.502C143.489 26.502 142.802 26.8823 142.57 27.5503L142.561 27.5874H140.381L140.39 27.5039C140.613 25.7969 142.245 24.665 144.658 24.665C147.264 24.665 148.73 25.9268 148.73 28.0698V35H146.448V33.6084H146.29C145.734 34.5918 144.658 35.167 143.322 35.167ZM142.273 32.022C142.273 32.8848 143.006 33.395 144.027 33.395C145.418 33.395 146.448 32.4858 146.448 31.2798V30.4634L144.166 30.6118C142.876 30.6953 142.273 31.1685 142.273 32.0034V32.022ZM154.189 30.6118C153.994 33.5342 153.094 35.0928 151.034 35.0928C150.617 35.0928 150.311 35.0278 150.162 34.9814V32.9961C150.264 33.0239 150.515 33.061 150.775 33.061C151.702 33.061 152.027 31.8828 152.12 30.4263L152.472 24.8599H159.746V35H157.436V26.6504H154.476L154.189 30.6118ZM166.689 35.2041C163.646 35.2041 161.809 33.2188 161.809 29.9346V29.916C161.809 26.6597 163.673 24.665 166.689 24.665C169.713 24.665 171.568 26.6504 171.568 29.916V29.9346C171.568 33.2188 169.722 35.2041 166.689 35.2041ZM166.689 33.3301C168.294 33.3301 169.203 32.0776 169.203 29.9438V29.9253C169.203 27.7915 168.284 26.5298 166.689 26.5298C165.084 26.5298 164.165 27.7915 164.165 29.9253V29.9438C164.165 32.0776 165.084 33.3301 166.689 33.3301ZM180.459 26.6504H175.932V35H173.622V24.8599H180.459V26.6504ZM21.854 59.2041C18.8018 59.2041 17.002 57.228 17.002 53.916V53.8975C17.002 50.6226 18.7925 48.665 21.8447 48.665C24.4517 48.665 26.0103 50.1123 26.27 52.209V52.2461H24.0898L24.0806 52.2183C23.8672 51.2349 23.1157 50.5298 21.854 50.5298C20.2769 50.5298 19.3491 51.7729 19.3491 53.8975V53.916C19.3491 56.0684 20.2861 57.3301 21.854 57.3301C23.0508 57.3301 23.7837 56.7827 24.0713 55.7158L24.0898 55.6787L26.27 55.6694L26.2515 55.7437C25.9175 57.8218 24.4238 59.2041 21.854 59.2041ZM37.2146 59.2041C34.1717 59.2041 32.3348 57.2188 32.3348 53.9346V53.916C32.3348 50.6597 34.1995 48.665 37.2146 48.665C40.239 48.665 42.0945 50.6504 42.0945 53.916V53.9346C42.0945 57.2188 40.2483 59.2041 37.2146 59.2041ZM37.2146 57.3301C38.8196 57.3301 39.7288 56.0776 39.7288 53.9438V53.9253C39.7288 51.7915 38.8103 50.5298 37.2146 50.5298C35.6097 50.5298 34.6912 51.7915 34.6912 53.9253V53.9438C34.6912 56.0776 35.6097 57.3301 37.2146 57.3301ZM44.1574 62.3677V48.8599H46.4675V50.4463H46.6252C47.1818 49.3423 48.2858 48.6929 49.7052 48.6929C52.2472 48.6929 53.8708 50.7153 53.8708 53.9253V53.9438C53.8708 57.1724 52.2751 59.167 49.7052 59.167C48.3136 59.167 47.154 58.4805 46.6252 57.3857H46.4675V62.3677H44.1574ZM48.9816 57.2188C50.5588 57.2188 51.5143 55.9756 51.5143 53.9438V53.9253C51.5143 51.8843 50.5588 50.6411 48.9816 50.6411C47.4137 50.6411 46.4396 51.8843 46.4396 53.916V53.9346C46.4396 55.9663 47.4137 57.2188 48.9816 57.2188ZM62.7711 50.6504H58.2437V59H55.9337V48.8599H62.7711V50.6504ZM67.1718 59.167C65.2421 59.167 63.8413 57.9795 63.8413 56.1333V56.1147C63.8413 54.3057 65.2236 53.248 67.6914 53.0996L70.2983 52.9419V52.0698C70.2983 51.0586 69.6396 50.502 68.3964 50.502C67.3388 50.502 66.6523 50.8823 66.4204 51.5503L66.4111 51.5874H64.2309L64.2402 51.5039C64.4629 49.7969 66.0957 48.665 68.5078 48.665C71.1147 48.665 72.5805 49.9268 72.5805 52.0698V59H70.2983V57.6084H70.1406C69.5839 58.5918 68.5078 59.167 67.1718 59.167ZM66.1235 56.022C66.1235 56.8848 66.8564 57.395 67.8769 57.395C69.2685 57.395 70.2983 56.4858 70.2983 55.2798V54.4634L68.0161 54.6118C66.7265 54.6953 66.1235 55.1685 66.1235 56.0034V56.022ZM81.6756 59V54.6675H77.3988V59H75.0887V48.8599H77.3988V52.877H81.6756V48.8599H83.9857V59H81.6756ZM86.5403 59V48.8599H88.8225V55.6509H89.008L93.2849 48.8599H95.5671V59H93.2849V52.1719H93.0901L88.8225 59H86.5403ZM101.925 59.2134C99.6246 59.2134 97.797 58.1743 97.5743 56.2075L97.5651 56.124H99.8102L99.8287 56.189C100.042 56.9683 100.812 57.4229 101.898 57.4229C103.159 57.4229 103.901 56.8384 103.901 56.0034V55.9849C103.901 55.085 103.196 54.6304 101.888 54.6304H100.432V53.0718H101.879C103.057 53.0718 103.614 52.5894 103.614 51.7544V51.7358C103.614 51.0029 103.048 50.4463 101.907 50.4463C100.868 50.4463 100.172 50.9194 100.033 51.6523L100.024 51.6987H97.8341L97.8434 51.6245C98.0753 49.8525 99.4948 48.6558 101.981 48.6558C104.384 48.6558 105.868 49.7412 105.868 51.4575V51.4761C105.868 52.543 105.191 53.3687 104.096 53.6191V53.7769C105.506 54.0552 106.193 54.8716 106.193 56.0034V56.022C106.193 57.9053 104.532 59.2134 101.925 59.2134ZM111.03 59.167C109.1 59.167 107.699 57.9795 107.699 56.1333V56.1147C107.699 54.3057 109.082 53.248 111.549 53.0996L114.156 52.9419V52.0698C114.156 51.0586 113.498 50.502 112.254 50.502C111.197 50.502 110.51 50.8823 110.278 51.5503L110.269 51.5874H108.089L108.098 51.5039C108.321 49.7969 109.954 48.665 112.366 48.665C114.973 48.665 116.439 49.9268 116.439 52.0698V59H114.156V57.6084H113.999C113.442 58.5918 112.366 59.167 111.03 59.167ZM109.981 56.022C109.981 56.8848 110.714 57.395 111.735 57.395C113.126 57.395 114.156 56.4858 114.156 55.2798V54.4634L111.874 54.6118C110.585 54.6953 109.981 55.1685 109.981 56.0034V56.022ZM127.166 61.644V59H118.947V48.8599H121.257V57.2188H125.441V48.8599H127.751V57.2188H129.309V61.644H127.166ZM130.844 59V48.8599H133.126V55.6509H133.311L137.588 48.8599H139.87V59H137.588V52.1719H137.393L133.126 59H130.844ZM146.943 47.4775C144.893 47.4775 143.538 46.1509 143.538 44.314H145.347C145.366 45.3066 145.969 46.1323 146.943 46.1323C147.917 46.1323 148.511 45.3066 148.529 44.314H150.348C150.348 46.1509 148.984 47.4775 146.943 47.4775ZM142.425 59V48.8599H144.707V55.6509H144.893L149.17 48.8599H151.452V59H149.17V52.1719H148.975L144.707 59H142.425Z" fill="black"/>
<path d="M17.3359 163V154.578H24.1484V163H22.7891V155.703H18.6953V163H17.3359ZM28.3549 159.703C28.1752 162.023 27.4564 163.078 26.0502 163.078C25.7611 163.078 25.5424 163.031 25.433 162.992V161.766C25.5033 161.789 25.7142 161.82 25.9174 161.82C26.6908 161.82 27.0033 160.844 27.0892 159.594L27.4486 154.578H32.9564V163H31.5971V155.703H28.6674L28.3549 159.703ZM37.5066 163.148C35.9051 163.148 34.6941 162.18 34.6941 160.648V160.633C34.6941 159.133 35.8035 158.266 37.7644 158.148L40.1785 158V157.234C40.1785 156.195 39.5457 155.633 38.2879 155.633C37.2801 155.633 36.616 156.008 36.3972 156.664L36.3894 156.688H35.0301L35.0379 156.641C35.2566 155.32 36.5379 154.43 38.3347 154.43C40.3894 154.43 41.5379 155.484 41.5379 157.234V163H40.1785V161.758H40.0535C39.5222 162.656 38.6394 163.148 37.5066 163.148ZM36.0847 160.617C36.0847 161.469 36.8113 161.969 37.7879 161.969C39.1707 161.969 40.1785 161.062 40.1785 159.859V159.094L37.9285 159.234C36.6472 159.312 36.0847 159.766 36.0847 160.602V160.617ZM49.2599 163V159.188H45.0881V163H43.7287V154.578H45.0881V158.062H49.2599V154.578H50.6193V163H49.2599Z" fill="black" fill-opacity="0.6"/>
<path d="M160.948 164L166.654 152.997V152.839H159.9V150.604H169.474V152.867L163.88 164H160.948ZM176.287 164.343C173.42 164.343 171.528 162.636 171.37 160.4L171.361 160.271H173.903L173.921 160.335C174.116 161.319 175.035 162.107 176.296 162.107C177.734 162.107 178.736 161.096 178.736 159.658V159.64C178.736 158.211 177.725 157.218 176.306 157.218C175.628 157.218 175.053 157.413 174.608 157.793C174.357 157.998 174.135 158.248 173.986 158.536H171.583L172.205 150.613H180.573V152.839H174.385L174.051 156.652H174.218C174.756 155.752 175.795 155.196 177.076 155.196C179.571 155.196 181.371 157.033 181.371 159.584V159.603C181.371 162.423 179.293 164.343 176.287 164.343ZM188.462 164.343C185.595 164.343 183.703 162.636 183.545 160.4L183.536 160.271H186.078L186.096 160.335C186.291 161.319 187.21 162.107 188.471 162.107C189.909 162.107 190.911 161.096 190.911 159.658V159.64C190.911 158.211 189.9 157.218 188.481 157.218C187.803 157.218 187.228 157.413 186.783 157.793C186.533 157.998 186.31 158.248 186.161 158.536H183.759L184.38 150.613H192.748V152.839H186.56L186.226 156.652H186.393C186.931 155.752 187.97 155.196 189.251 155.196C191.746 155.196 193.546 157.033 193.546 159.584V159.603C193.546 162.423 191.468 164.343 188.462 164.343Z" fill="black" fill-opacity="0.6"/>
<path d="M21.2656 193.812V191.102C18.6562 191.055 16.9219 189.383 16.9219 186.797V186.781C16.9219 184.188 18.6562 182.516 21.2656 182.477V179.727H22.5781V182.477C25.1797 182.523 26.9141 184.188 26.9141 186.781V186.797C26.9141 189.391 25.1797 191.062 22.5781 191.102V193.812H21.2656ZM21.2656 189.938V183.641C19.4453 183.68 18.2891 184.867 18.2891 186.781V186.797C18.2891 188.703 19.4453 189.891 21.2656 189.938ZM22.5781 189.938C24.3906 189.898 25.5469 188.711 25.5469 186.797V186.781C25.5469 184.875 24.3906 183.688 22.5781 183.641V189.938ZM31.058 191.148C29.4564 191.148 28.2455 190.18 28.2455 188.648V188.633C28.2455 187.133 29.3549 186.266 31.3158 186.148L33.7299 186V185.234C33.7299 184.195 33.0971 183.633 31.8392 183.633C30.8314 183.633 30.1674 184.008 29.9486 184.664L29.9408 184.688H28.5814L28.5892 184.641C28.808 183.32 30.0892 182.43 31.8861 182.43C33.9408 182.43 35.0892 183.484 35.0892 185.234V191H33.7299V189.758H33.6049C33.0736 190.656 32.1908 191.148 31.058 191.148ZM29.6361 188.617C29.6361 189.469 30.3627 189.969 31.3392 189.969C32.7221 189.969 33.7299 189.062 33.7299 187.859V187.094L31.4799 187.234C30.1986 187.312 29.6361 187.766 29.6361 188.602V188.617ZM39.0691 187.164H38.6394V191H37.2801V182.578H38.6394V186.102H39.0691L42.3269 182.578H43.9597L40.1707 186.547L44.1082 191H42.366L39.0691 187.164ZM51.2521 182.578V183.703H48.5256V191H47.1662V183.703H44.4396V182.578H51.2521Z" fill="black"/>
<path d="M160.948 192L166.654 180.997V180.839H159.9V178.604H169.474V180.867L163.88 192H160.948ZM172.363 192L178.068 180.997V180.839H171.314V178.604H180.889V180.867L175.294 192H172.363ZM187.813 192.297C184.594 192.297 182.376 190.692 182.376 188.373V188.354C182.376 186.61 183.675 185.32 185.503 184.958V184.903C183.935 184.522 182.868 183.391 182.868 181.934V181.916C182.868 179.837 184.9 178.316 187.813 178.316C190.717 178.316 192.758 179.837 192.758 181.916V181.934C192.758 183.391 191.681 184.513 190.123 184.903V184.958C191.941 185.311 193.249 186.61 193.249 188.354V188.373C193.249 190.692 191.032 192.297 187.813 192.297ZM187.813 184.059C189.093 184.059 189.984 183.298 189.984 182.203V182.185C189.984 181.09 189.084 180.338 187.813 180.338C186.533 180.338 185.633 181.09 185.633 182.185V182.203C185.633 183.298 186.523 184.059 187.813 184.059ZM187.813 190.256C189.279 190.256 190.318 189.393 190.318 188.187V188.168C190.318 186.962 189.297 186.09 187.813 186.09C186.328 186.09 185.299 186.962 185.299 188.168V188.187C185.299 189.393 186.338 190.256 187.813 190.256Z" fill="black"/>
</svg>
