<svg width="211" height="211" viewBox="0 0 211 211" fill="none" xmlns="http://www.w3.org/2000/svg">
<rect width="211" height="211" rx="8" fill="#A2EAA9"/>
<path d="M17.7441 35V21.6128H20.1377V27.1792H26.6504V21.6128H29.0347V35H26.6504V29.1924H20.1377V35H17.7441ZM34.6137 35.167C32.684 35.167 31.2831 33.9795 31.2831 32.1333V32.1147C31.2831 30.3057 32.6654 29.248 35.1332 29.0996L37.7401 28.9419V28.0698C37.7401 27.0586 37.0814 26.502 35.8383 26.502C34.7807 26.502 34.0941 26.8823 33.8622 27.5503L33.8529 27.5874H31.6727L31.682 27.5039C31.9047 25.7969 33.5375 24.665 35.9496 24.665C38.5565 24.665 40.0224 25.9268 40.0224 28.0698V35H37.7401V33.6084H37.5824C37.0258 34.5918 35.9496 35.167 34.6137 35.167ZM33.5653 32.022C33.5653 32.8848 34.2982 33.395 35.3187 33.395C36.7103 33.395 37.7401 32.4858 37.7401 31.2798V30.4634L35.4579 30.6118C34.1684 30.6953 33.5653 31.1685 33.5653 32.0034V32.022ZM45.4807 30.6118C45.2859 33.5342 44.386 35.0928 42.3264 35.0928C41.909 35.0928 41.6028 35.0278 41.4544 34.9814V32.9961C41.5564 33.0239 41.8069 33.061 42.0667 33.061C42.9944 33.061 43.3191 31.8828 43.4119 30.4263L43.7644 24.8599H51.0379V35H48.7278V26.6504H45.7683L45.4807 30.6118ZM57.9806 35.2041C54.9377 35.2041 53.1008 33.2188 53.1008 29.9346V29.916C53.1008 26.6597 54.9655 24.665 57.9806 24.665C61.0051 24.665 62.8605 26.6504 62.8605 29.916V29.9346C62.8605 33.2188 61.0143 35.2041 57.9806 35.2041ZM57.9806 33.3301C59.5856 33.3301 60.4948 32.0776 60.4948 29.9438V29.9253C60.4948 27.7915 59.5763 26.5298 57.9806 26.5298C56.3757 26.5298 55.4572 27.7915 55.4572 29.9253V29.9438C55.4572 32.0776 56.3757 33.3301 57.9806 33.3301ZM71.7515 26.6504H67.2242V35H64.9141V24.8599H71.7515V26.6504ZM84.8485 35V30.6675H80.5716V35H78.2616V24.8599H80.5716V28.877H84.8485V24.8599H87.1585V35H84.8485ZM92.4871 35.167C90.5574 35.167 89.1565 33.9795 89.1565 32.1333V32.1147C89.1565 30.3057 90.5388 29.248 93.0066 29.0996L95.6135 28.9419V28.0698C95.6135 27.0586 94.9548 26.502 93.7117 26.502C92.654 26.502 91.9675 26.8823 91.7356 27.5503L91.7263 27.5874H89.5461L89.5554 27.5039C89.7781 25.7969 91.4109 24.665 93.823 24.665C96.4299 24.665 97.8957 25.9268 97.8957 28.0698V35H95.6135V33.6084H95.4558C94.8992 34.5918 93.823 35.167 92.4871 35.167ZM91.4387 32.022C91.4387 32.8848 92.1716 33.395 93.1921 33.395C94.5837 33.395 95.6135 32.4858 95.6135 31.2798V30.4634L93.3313 30.6118C92.0417 30.6953 91.4387 31.1685 91.4387 32.0034V32.022ZM17.4937 59V48.8599H19.7759V55.6509H19.9614L24.2383 48.8599H26.5205V59H24.2383V52.1719H24.0435L19.7759 59H17.4937ZM31.2831 59H29.0751V48.8599H32.016L35.0126 55.9199H35.1796L38.1854 48.8599H41.0707V59H38.8627V52.0791H38.6864L35.8939 58.5454H34.2426L31.4594 52.0791H31.2831V59ZM44.72 62.5625C44.4417 62.5625 44.117 62.5532 43.8387 62.5254V60.7534C44.0242 60.772 44.284 60.7812 44.5252 60.7812C45.4715 60.7812 46.0374 60.3916 46.2879 59.4731L46.4085 59.0093L42.781 48.8599H45.3045L47.6702 56.7827H47.8465L50.2029 48.8599H52.6336L48.9969 59.2134C48.1248 61.7554 46.9651 62.5625 44.72 62.5625ZM54.3532 59V48.8599H56.6633V57.1909H59.8918V48.8599H62.2018V57.1909H65.4211V48.8599H67.7311V57.2188H69.3361V61.644H67.193V59H54.3532ZM75.2027 59.2041C72.1876 59.2041 70.3599 57.1816 70.3599 53.9531V53.9438C70.3599 50.7524 72.2061 48.665 75.0914 48.665C77.9766 48.665 79.7579 50.6875 79.7579 53.749V54.5098H72.67C72.6978 56.3281 73.6812 57.3857 75.2491 57.3857C76.5015 57.3857 77.2159 56.7549 77.4385 56.291L77.4664 56.2261H79.6651L79.6373 56.3096C79.3126 57.6177 77.9581 59.2041 75.2027 59.2041ZM75.1192 50.4741C73.8297 50.4741 72.8648 51.3462 72.6885 52.9604H77.5035C77.3458 51.2998 76.4088 50.4741 75.1192 50.4741ZM86.1626 59.2041C83.1103 59.2041 81.3105 57.228 81.3105 53.916V53.8975C81.3105 50.6226 83.101 48.665 86.1533 48.665C88.7602 48.665 90.3188 50.1123 90.5786 52.209V52.2461H88.3984L88.3891 52.2183C88.1757 51.2349 87.4243 50.5298 86.1626 50.5298C84.5854 50.5298 83.6577 51.7729 83.6577 53.8975V53.916C83.6577 56.0684 84.5947 57.3301 86.1626 57.3301C87.3593 57.3301 88.0922 56.7827 88.3798 55.7158L88.3984 55.6787L90.5786 55.6694L90.56 55.7437C90.226 57.8218 88.7324 59.2041 86.1626 59.2041ZM99.85 48.8599V50.6504H96.7235V59H94.4134V50.6504H91.2962V48.8599H99.85ZM101.588 59V48.8599H106.385C108.426 48.8599 109.622 49.8896 109.622 51.4482V51.4668C109.622 52.5244 108.889 53.4614 107.86 53.6377V53.7954C109.196 53.9438 110.077 54.8716 110.077 56.0962V56.1147C110.077 57.8403 108.704 59 106.449 59H101.588ZM103.87 53.0718H105.652C106.793 53.0718 107.349 52.6079 107.349 51.7637V51.7451C107.349 50.9751 106.858 50.4556 105.837 50.4556H103.87V53.0718ZM103.87 57.4043H106.032C107.145 57.4043 107.711 56.8848 107.711 56.0127V55.9941C107.711 55.0757 107.08 54.6211 105.819 54.6211H103.87V57.4043ZM116.463 59.2041C113.42 59.2041 111.583 57.2188 111.583 53.9346V53.916C111.583 50.6597 113.448 48.665 116.463 48.665C119.487 48.665 121.343 50.6504 121.343 53.916V53.9346C121.343 57.2188 119.497 59.2041 116.463 59.2041ZM116.463 57.3301C118.068 57.3301 118.977 56.0776 118.977 53.9438V53.9253C118.977 51.7915 118.059 50.5298 116.463 50.5298C114.858 50.5298 113.94 51.7915 113.94 53.9253V53.9438C113.94 56.0776 114.858 57.3301 116.463 57.3301ZM132.38 59.2041C129.328 59.2041 127.528 57.228 127.528 53.916V53.8975C127.528 50.6226 129.319 48.665 132.371 48.665C134.978 48.665 136.537 50.1123 136.796 52.209V52.2461H134.616L134.607 52.2183C134.393 51.2349 133.642 50.5298 132.38 50.5298C130.803 50.5298 129.875 51.7729 129.875 53.8975V53.916C129.875 56.0684 130.812 57.3301 132.38 57.3301C133.577 57.3301 134.31 56.7827 134.598 55.7158L134.616 55.6787L136.796 55.6694L136.778 55.7437C136.444 57.8218 134.95 59.2041 132.38 59.2041ZM148.233 62.3677V59.1392C144.976 59.0649 142.861 57.0981 142.861 53.9346V53.916C142.861 50.7803 144.986 48.7856 148.233 48.73V45.5386H150.487V48.73C153.743 48.7949 155.859 50.7524 155.859 53.9253V53.9438C155.859 57.0796 153.725 59.0742 150.487 59.1392V62.3677H148.233ZM148.251 57.3301V50.5298C146.386 50.5762 145.19 51.8472 145.19 53.9253V53.9438C145.19 56.022 146.377 57.2744 148.251 57.3301ZM150.468 57.3301C152.324 57.2837 153.521 56.0127 153.521 53.9438V53.9253C153.521 51.8379 152.333 50.5854 150.468 50.5298V57.3301ZM157.903 59V48.8599H160.185V55.6509H160.371L164.648 48.8599H166.93V59H164.648V52.1719H164.453L160.185 59H157.903ZM173.288 59.2134C170.987 59.2134 169.16 58.1743 168.937 56.2075L168.928 56.124H171.173L171.191 56.189C171.405 56.9683 172.175 57.4229 173.26 57.4229C174.522 57.4229 175.264 56.8384 175.264 56.0034V55.9849C175.264 55.085 174.559 54.6304 173.251 54.6304H171.794V53.0718H173.242C174.42 53.0718 174.977 52.5894 174.977 51.7544V51.7358C174.977 51.0029 174.411 50.4463 173.27 50.4463C172.23 50.4463 171.535 50.9194 171.395 51.6523L171.386 51.6987H169.197L169.206 51.6245C169.438 49.8525 170.857 48.6558 173.344 48.6558C175.747 48.6558 177.231 49.7412 177.231 51.4575V51.4761C177.231 52.543 176.554 53.3687 175.459 53.6191V53.7769C176.869 54.0552 177.556 54.8716 177.556 56.0034V56.022C177.556 57.9053 175.895 59.2134 173.288 59.2134ZM180.936 59.1855C180.092 59.1855 179.461 58.5454 179.461 57.7197C179.461 56.894 180.092 56.2539 180.936 56.2539C181.789 56.2539 182.411 56.894 182.411 57.7197C182.411 58.5454 181.789 59.1855 180.936 59.1855ZM20.4438 78.6118C20.249 81.5342 19.3491 83.0928 17.2896 83.0928C16.8721 83.0928 16.5659 83.0278 16.4175 82.9814V80.9961C16.5195 81.0239 16.77 81.061 17.0298 81.061C17.9575 81.061 18.2822 79.8828 18.375 78.4263L18.7275 72.8599H26.001V83H23.6909V74.6504H20.7314L20.4438 78.6118ZM28.5556 83V72.8599H30.8378V79.6509H31.0233L35.3002 72.8599H37.5824V83H35.3002V76.1719H35.1054L30.8378 83H28.5556ZM48.3567 85.644V83H40.137V72.8599H42.4471V81.2188H46.6311V72.8599H48.9412V81.2188H50.4998V85.644H48.3567Z" fill="black"/>
<path d="M17.3359 163V154.578H24.1484V163H22.7891V155.703H18.6953V163H17.3359ZM28.3549 159.703C28.1752 162.023 27.4564 163.078 26.0502 163.078C25.7611 163.078 25.5424 163.031 25.433 162.992V161.766C25.5033 161.789 25.7142 161.82 25.9174 161.82C26.6908 161.82 27.0033 160.844 27.0892 159.594L27.4486 154.578H32.9564V163H31.5971V155.703H28.6674L28.3549 159.703ZM37.5066 163.148C35.9051 163.148 34.6941 162.18 34.6941 160.648V160.633C34.6941 159.133 35.8035 158.266 37.7644 158.148L40.1785 158V157.234C40.1785 156.195 39.5457 155.633 38.2879 155.633C37.2801 155.633 36.616 156.008 36.3972 156.664L36.3894 156.688H35.0301L35.0379 156.641C35.2566 155.32 36.5379 154.43 38.3347 154.43C40.3894 154.43 41.5379 155.484 41.5379 157.234V163H40.1785V161.758H40.0535C39.5222 162.656 38.6394 163.148 37.5066 163.148ZM36.0847 160.617C36.0847 161.469 36.8113 161.969 37.7879 161.969C39.1707 161.969 40.1785 161.062 40.1785 159.859V159.094L37.9285 159.234C36.6472 159.312 36.0847 159.766 36.0847 160.602V160.617ZM49.2599 163V159.188H45.0881V163H43.7287V154.578H45.0881V158.062H49.2599V154.578H50.6193V163H49.2599Z" fill="black" fill-opacity="0.6"/>
<path d="M166.355 164.297C163.331 164.297 161.336 162.673 161.15 160.28L161.141 160.159H163.822L163.832 160.261C163.952 161.3 164.908 162.042 166.355 162.042C167.784 162.042 168.721 161.245 168.721 160.113V160.094C168.721 158.814 167.765 158.109 166.142 158.109H164.611V156.114H166.104C167.515 156.114 168.424 155.372 168.424 154.287V154.268C168.424 153.155 167.654 152.468 166.336 152.468C165.019 152.468 164.138 153.183 164.026 154.296L164.017 154.379H161.438L161.447 154.268C161.642 151.875 163.525 150.316 166.336 150.316C169.212 150.316 171.068 151.763 171.068 153.897V153.916C171.068 155.585 169.843 156.671 168.275 156.996V157.051C170.27 157.237 171.569 158.387 171.569 160.206V160.224C171.569 162.655 169.481 164.297 166.355 164.297ZM178.521 150.26C181.62 150.26 184.05 152.468 184.05 157.172V157.19C184.05 161.671 181.935 164.334 178.502 164.334C175.914 164.334 173.994 162.803 173.576 160.707L173.558 160.623H176.304L176.331 160.707C176.656 161.542 177.417 162.107 178.493 162.107C180.432 162.107 181.286 160.206 181.388 157.766C181.388 157.673 181.388 157.571 181.388 157.469H181.202C180.72 158.499 179.606 159.426 177.751 159.426C175.144 159.426 173.391 157.571 173.391 155.038V155.02C173.391 152.283 175.506 150.26 178.521 150.26ZM178.521 157.357C179.903 157.357 180.97 156.374 180.97 154.992V154.973C180.97 153.572 179.903 152.487 178.539 152.487C177.185 152.487 176.1 153.554 176.1 154.917V154.936C176.1 156.346 177.12 157.357 178.521 157.357ZM189.388 164V153.257H189.221L185.937 155.539V153.016L189.397 150.613H192.19V164H189.388Z" fill="black" fill-opacity="0.6"/>
<path d="M21.2656 193.812V191.102C18.6562 191.055 16.9219 189.383 16.9219 186.797V186.781C16.9219 184.188 18.6562 182.516 21.2656 182.477V179.727H22.5781V182.477C25.1797 182.523 26.9141 184.188 26.9141 186.781V186.797C26.9141 189.391 25.1797 191.062 22.5781 191.102V193.812H21.2656ZM21.2656 189.938V183.641C19.4453 183.68 18.2891 184.867 18.2891 186.781V186.797C18.2891 188.703 19.4453 189.891 21.2656 189.938ZM22.5781 189.938C24.3906 189.898 25.5469 188.711 25.5469 186.797V186.781C25.5469 184.875 24.3906 183.688 22.5781 183.641V189.938ZM31.058 191.148C29.4564 191.148 28.2455 190.18 28.2455 188.648V188.633C28.2455 187.133 29.3549 186.266 31.3158 186.148L33.7299 186V185.234C33.7299 184.195 33.0971 183.633 31.8392 183.633C30.8314 183.633 30.1674 184.008 29.9486 184.664L29.9408 184.688H28.5814L28.5892 184.641C28.808 183.32 30.0892 182.43 31.8861 182.43C33.9408 182.43 35.0892 183.484 35.0892 185.234V191H33.7299V189.758H33.6049C33.0736 190.656 32.1908 191.148 31.058 191.148ZM29.6361 188.617C29.6361 189.469 30.3627 189.969 31.3392 189.969C32.7221 189.969 33.7299 189.062 33.7299 187.859V187.094L31.4799 187.234C30.1986 187.312 29.6361 187.766 29.6361 188.602V188.617ZM39.0691 187.164H38.6394V191H37.2801V182.578H38.6394V186.102H39.0691L42.3269 182.578H43.9597L40.1707 186.547L44.1082 191H42.366L39.0691 187.164ZM51.2521 182.578V183.703H48.5256V191H47.1662V183.703H44.4396V182.578H51.2521Z" fill="black"/>
<path d="M164.355 192.297C161.331 192.297 159.336 190.673 159.15 188.28L159.141 188.159H161.822L161.832 188.261C161.952 189.3 162.908 190.042 164.355 190.042C165.784 190.042 166.721 189.245 166.721 188.113V188.094C166.721 186.814 165.765 186.109 164.142 186.109H162.611V184.114H164.104C165.515 184.114 166.424 183.372 166.424 182.287V182.268C166.424 181.155 165.654 180.468 164.336 180.468C163.019 180.468 162.138 181.183 162.026 182.296L162.017 182.379H159.438L159.447 182.268C159.642 179.875 161.525 178.316 164.336 178.316C167.212 178.316 169.068 179.763 169.068 181.897V181.916C169.068 183.585 167.843 184.671 166.275 184.996V185.051C168.27 185.237 169.569 186.387 169.569 188.206V188.224C169.569 190.655 167.481 192.297 164.355 192.297ZM176.864 192.297C173.645 192.297 171.428 190.692 171.428 188.373V188.354C171.428 186.61 172.726 185.32 174.554 184.958V184.903C172.986 184.522 171.919 183.391 171.919 181.934V181.916C171.919 179.837 173.951 178.316 176.864 178.316C179.768 178.316 181.809 179.837 181.809 181.916V181.934C181.809 183.391 180.733 184.513 179.174 184.903V184.958C180.993 185.311 182.301 186.61 182.301 188.354V188.373C182.301 190.692 180.083 192.297 176.864 192.297ZM176.864 184.059C178.144 184.059 179.035 183.298 179.035 182.203V182.185C179.035 181.09 178.135 180.338 176.864 180.338C175.584 180.338 174.684 181.09 174.684 182.185V182.203C174.684 183.298 175.575 184.059 176.864 184.059ZM176.864 190.256C178.33 190.256 179.369 189.393 179.369 188.187V188.168C179.369 186.962 178.349 186.09 176.864 186.09C175.38 186.09 174.35 186.962 174.35 188.168V188.187C174.35 189.393 175.389 190.256 176.864 190.256ZM184.967 192L190.672 180.997V180.839H183.918V178.604H193.492V180.867L187.898 192H184.967Z" fill="black"/>
</svg>
