<svg width="211" height="211" viewBox="0 0 211 211" fill="none" xmlns="http://www.w3.org/2000/svg">
<rect width="211" height="211" rx="8" fill="#A2EAA9"/>
<path d="M21.0747 35V23.626H16.9556V21.6128H27.5967V23.626H23.4683V35H21.0747ZM29.3998 38.3677V24.8599H31.7099V26.4463H31.8676C32.4242 25.3423 33.5282 24.6929 34.9476 24.6929C37.4896 24.6929 39.1132 26.7153 39.1132 29.9253V29.9438C39.1132 33.1724 37.5175 35.167 34.9476 35.167C33.556 35.167 32.3964 34.4805 31.8676 33.3857H31.7099V38.3677H29.3998ZM34.224 33.2188C35.8012 33.2188 36.7567 31.9756 36.7567 29.9438V29.9253C36.7567 27.8843 35.8012 26.6411 34.224 26.6411C32.6561 26.6411 31.682 27.8843 31.682 29.916V29.9346C31.682 31.9663 32.6561 33.2188 34.224 33.2188ZM43.95 35.167C42.0203 35.167 40.6194 33.9795 40.6194 32.1333V32.1147C40.6194 30.3057 42.0017 29.248 44.4695 29.0996L47.0764 28.9419V28.0698C47.0764 27.0586 46.4178 26.502 45.1746 26.502C44.117 26.502 43.4305 26.8823 43.1985 27.5503L43.1892 27.5874H41.0091L41.0183 27.5039C41.241 25.7969 42.8738 24.665 45.2859 24.665C47.8929 24.665 49.3587 25.9268 49.3587 28.0698V35H47.0764V33.6084H46.9187C46.3621 34.5918 45.2859 35.167 43.95 35.167ZM42.9016 32.022C42.9016 32.8848 43.6346 33.395 44.6551 33.395C46.0467 33.395 47.0764 32.4858 47.0764 31.2798V30.4634L44.7942 30.6118C43.5047 30.6953 42.9016 31.1685 42.9016 32.0034V32.022ZM58.4538 35V30.6675H54.1769V35H51.8669V24.8599H54.1769V28.877H58.4538V24.8599H60.7638V35H58.4538ZM67.6788 35.2041C64.6265 35.2041 62.8267 33.228 62.8267 29.916V29.8975C62.8267 26.6226 64.6173 24.665 67.6695 24.665C70.2764 24.665 71.835 26.1123 72.0948 28.209V28.2461H69.9146L69.9053 28.2183C69.692 27.2349 68.9405 26.5298 67.6788 26.5298C66.1016 26.5298 65.1739 27.7729 65.1739 29.8975V29.916C65.1739 32.0684 66.1109 33.3301 67.6788 33.3301C68.8756 33.3301 69.6085 32.7827 69.8961 31.7158L69.9146 31.6787L72.0948 31.6694L72.0762 31.7437C71.7423 33.8218 70.2486 35.2041 67.6788 35.2041ZM74.0278 35V24.8599H82.832V35H80.5219V26.6504H76.3379V35H74.0278ZM89.7748 35.2041C86.7318 35.2041 84.8949 33.2188 84.8949 29.9346V29.916C84.8949 26.6597 86.7596 24.665 89.7748 24.665C92.7992 24.665 94.6546 26.6504 94.6546 29.916V29.9346C94.6546 33.2188 92.8084 35.2041 89.7748 35.2041ZM89.7748 33.3301C91.3797 33.3301 92.2889 32.0776 92.2889 29.9438V29.9253C92.2889 27.7915 91.3705 26.5298 89.7748 26.5298C88.1698 26.5298 87.2513 27.7915 87.2513 29.9253V29.9438C87.2513 32.0776 88.1698 33.3301 89.7748 33.3301ZM96.7175 38.3677V24.8599H99.0276V26.4463H99.1853C99.7419 25.3423 100.846 24.6929 102.265 24.6929C104.807 24.6929 106.431 26.7153 106.431 29.9253V29.9438C106.431 33.1724 104.835 35.167 102.265 35.167C100.874 35.167 99.7141 34.4805 99.1853 33.3857H99.0276V38.3677H96.7175ZM101.542 33.2188C103.119 33.2188 104.074 31.9756 104.074 29.9438V29.9253C104.074 27.8843 103.119 26.6411 101.542 26.6411C99.9739 26.6411 98.9997 27.8843 98.9997 29.916V29.9346C98.9997 31.9663 99.9739 33.2188 101.542 33.2188ZM115.647 24.8599V26.6504H112.52V35H110.21V26.6504H107.093V24.8599H115.647ZM123.972 35V30.6675H119.695V35H117.385V24.8599H119.695V28.877H123.972V24.8599H126.282V35H123.972ZM128.836 35V24.8599H131.146V27.9214H133.15C135.516 27.9214 137.028 29.3037 137.028 31.4561V31.4746C137.028 33.627 135.516 35 133.15 35H128.836ZM138.689 35V24.8599H140.999V35H138.689ZM132.853 29.7026H131.146V33.2188H132.853C133.985 33.2188 134.7 32.5044 134.7 31.4653V31.4468C134.7 30.3984 133.976 29.7026 132.853 29.7026ZM148.072 23.4775C146.021 23.4775 144.667 22.1509 144.667 20.314H146.476C146.494 21.3066 147.097 22.1323 148.072 22.1323C149.046 22.1323 149.639 21.3066 149.658 20.314H151.476C151.476 22.1509 150.113 23.4775 148.072 23.4775ZM143.554 35V24.8599H145.836V31.6509H146.021L150.298 24.8599H152.58V35H150.298V28.1719H150.103L145.836 35H143.554ZM24.0806 59V54.6675H19.8037V59H17.4937V48.8599H19.8037V52.877H24.0806V48.8599H26.3906V59H24.0806ZM31.7191 59.167C29.7894 59.167 28.3886 57.9795 28.3886 56.1333V56.1147C28.3886 54.3057 29.7709 53.248 32.2387 53.0996L34.8456 52.9419V52.0698C34.8456 51.0586 34.1869 50.502 32.9437 50.502C31.8861 50.502 31.1996 50.8823 30.9677 51.5503L30.9584 51.5874H28.7782L28.7875 51.5039C29.0101 49.7969 30.643 48.665 33.0551 48.665C35.662 48.665 37.1278 49.9268 37.1278 52.0698V59H34.8456V57.6084H34.6879C34.1312 58.5918 33.0551 59.167 31.7191 59.167ZM30.6708 56.022C30.6708 56.8848 31.4037 57.395 32.4242 57.395C33.8158 57.395 34.8456 56.4858 34.8456 55.2798V54.4634L32.5634 54.6118C31.2738 54.6953 30.6708 55.1685 30.6708 56.0034V56.022ZM42.5862 54.6118C42.3914 57.5342 41.4915 59.0928 39.4319 59.0928C39.0144 59.0928 38.7083 59.0278 38.5598 58.9814V56.9961C38.6619 57.0239 38.9124 57.061 39.1722 57.061C40.0999 57.061 40.4246 55.8828 40.5174 54.4263L40.8699 48.8599H48.1433V59H45.8333V50.6504H42.8738L42.5862 54.6118ZM55.0861 59.2041C52.0431 59.2041 50.2062 57.2188 50.2062 53.9346V53.916C50.2062 50.6597 52.071 48.665 55.0861 48.665C58.1105 48.665 59.966 50.6504 59.966 53.916V53.9346C59.966 57.2188 58.1198 59.2041 55.0861 59.2041ZM55.0861 57.3301C56.6911 57.3301 57.6003 56.0776 57.6003 53.9438V53.9253C57.6003 51.7915 56.6818 50.5298 55.0861 50.5298C53.4811 50.5298 52.5627 51.7915 52.5627 53.9253V53.9438C52.5627 56.0776 53.4811 57.3301 55.0861 57.3301ZM68.857 50.6504H64.3297V59H62.0196V48.8599H68.857V50.6504ZM79.7274 59.2041C76.6751 59.2041 74.8753 57.228 74.8753 53.916V53.8975C74.8753 50.6226 76.6659 48.665 79.7181 48.665C82.3251 48.665 83.8836 50.1123 84.1434 52.209V52.2461H81.9632L81.954 52.2183C81.7406 51.2349 80.9891 50.5298 79.7274 50.5298C78.1502 50.5298 77.2225 51.7729 77.2225 53.8975V53.916C77.2225 56.0684 78.1595 57.3301 79.7274 57.3301C80.9242 57.3301 81.6571 56.7827 81.9447 55.7158L81.9632 55.6787L84.1434 55.6694L84.1249 55.7437C83.7909 57.8218 82.2972 59.2041 79.7274 59.2041ZM21.8818 83.2041C18.8389 83.2041 17.002 81.2188 17.002 77.9346V77.916C17.002 74.6597 18.8667 72.665 21.8818 72.665C24.9062 72.665 26.7617 74.6504 26.7617 77.916V77.9346C26.7617 81.2188 24.9155 83.2041 21.8818 83.2041ZM21.8818 81.3301C23.4868 81.3301 24.396 80.0776 24.396 77.9438V77.9253C24.396 75.7915 23.4775 74.5298 21.8818 74.5298C20.2769 74.5298 19.3584 75.7915 19.3584 77.9253V77.9438C19.3584 80.0776 20.2769 81.3301 21.8818 81.3301ZM28.8246 86.3677V72.8599H31.1347V74.4463H31.2924C31.849 73.3423 32.953 72.6929 34.3725 72.6929C36.9144 72.6929 38.538 74.7153 38.538 77.9253V77.9438C38.538 81.1724 36.9423 83.167 34.3725 83.167C32.9809 83.167 31.8212 82.4805 31.2924 81.3857H31.1347V86.3677H28.8246ZM33.6488 81.2188C35.226 81.2188 36.1815 79.9756 36.1815 77.9438V77.9253C36.1815 75.8843 35.226 74.6411 33.6488 74.6411C32.0809 74.6411 31.1068 75.8843 31.1068 77.916V77.9346C31.1068 79.9663 32.0809 81.2188 33.6488 81.2188ZM47.4383 74.6504H42.9109V83H40.6009V72.8599H47.4383V74.6504ZM51.839 83.167C49.9094 83.167 48.5085 81.9795 48.5085 80.1333V80.1147C48.5085 78.3057 49.8908 77.248 52.3586 77.0996L54.9655 76.9419V76.0698C54.9655 75.0586 54.3068 74.502 53.0636 74.502C52.006 74.502 51.3195 74.8823 51.0876 75.5503L51.0783 75.5874H48.8981L48.9074 75.5039C49.1301 73.7969 50.7629 72.665 53.175 72.665C55.7819 72.665 57.2477 73.9268 57.2477 76.0698V83H54.9655V81.6084H54.8078C54.2511 82.5918 53.175 83.167 51.839 83.167ZM50.7907 80.022C50.7907 80.8848 51.5236 81.395 52.5441 81.395C53.9357 81.395 54.9655 80.4858 54.9655 79.2798V78.4634L52.6833 78.6118C51.3937 78.6953 50.7907 79.1685 50.7907 80.0034V80.022ZM66.3428 83V78.6675H62.066V83H59.7559V72.8599H62.066V76.877H66.3428V72.8599H68.6529V83H66.3428ZM71.2075 83V72.8599H73.4897V79.6509H73.6753L77.9521 72.8599H80.2343V83H77.9521V76.1719H77.7573L73.4897 83H71.2075ZM86.5926 83.2134C84.2918 83.2134 82.4642 82.1743 82.2416 80.2075L82.2323 80.124H84.4774L84.4959 80.189C84.7093 80.9683 85.4793 81.4229 86.5648 81.4229C87.8265 81.4229 88.5687 80.8384 88.5687 80.0034V79.9849C88.5687 79.085 87.8636 78.6304 86.5555 78.6304H85.099V77.0718H86.5462C87.7245 77.0718 88.2811 76.5894 88.2811 75.7544V75.7358C88.2811 75.0029 87.7152 74.4463 86.5741 74.4463C85.535 74.4463 84.8392 74.9194 84.7001 75.6523L84.6908 75.6987H82.5013L82.5106 75.6245C82.7425 73.8525 84.162 72.6558 86.6483 72.6558C89.0511 72.6558 90.5355 73.7412 90.5355 75.4575V75.4761C90.5355 76.543 89.8583 77.3687 88.7635 77.6191V77.7769C90.1737 78.0552 90.8602 78.8716 90.8602 80.0034V80.022C90.8602 81.9053 89.1996 83.2134 86.5926 83.2134ZM95.697 83.167C93.7673 83.167 92.3664 81.9795 92.3664 80.1333V80.1147C92.3664 78.3057 93.7488 77.248 96.2165 77.0996L98.8235 76.9419V76.0698C98.8235 75.0586 98.1648 74.502 96.9216 74.502C95.864 74.502 95.1775 74.8823 94.9455 75.5503L94.9363 75.5874H92.7561L92.7654 75.5039C92.988 73.7969 94.6208 72.665 97.033 72.665C99.6399 72.665 101.106 73.9268 101.106 76.0698V83H98.8235V81.6084H98.6658C98.1091 82.5918 97.033 83.167 95.697 83.167ZM94.6487 80.022C94.6487 80.8848 95.3816 81.395 96.4021 81.395C97.7937 81.395 98.8235 80.4858 98.8235 79.2798V78.4634L96.5413 78.6118C95.2517 78.6953 94.6487 79.1685 94.6487 80.0034V80.022ZM111.834 85.644V83H103.614V72.8599H105.924V81.2188H110.108V72.8599H112.418V81.2188H113.977V85.644H111.834ZM115.511 83V72.8599H117.793V79.6509H117.979L122.255 72.8599H124.538V83H122.255V76.1719H122.061L117.793 83H115.511ZM131.61 71.4775C129.56 71.4775 128.205 70.1509 128.205 68.314H130.015C130.033 69.3066 130.636 70.1323 131.61 70.1323C132.584 70.1323 133.178 69.3066 133.197 68.314H135.015C135.015 70.1509 133.651 71.4775 131.61 71.4775ZM127.092 83V72.8599H129.374V79.6509H129.56L133.837 72.8599H136.119V83H133.837V76.1719H133.642L129.374 83H127.092Z" fill="black"/>
<path d="M17.3359 163V154.578H24.1484V163H22.7891V155.703H18.6953V163H17.3359ZM28.3549 159.703C28.1752 162.023 27.4564 163.078 26.0502 163.078C25.7611 163.078 25.5424 163.031 25.433 162.992V161.766C25.5033 161.789 25.7142 161.82 25.9174 161.82C26.6908 161.82 27.0033 160.844 27.0892 159.594L27.4486 154.578H32.9564V163H31.5971V155.703H28.6674L28.3549 159.703ZM37.5066 163.148C35.9051 163.148 34.6941 162.18 34.6941 160.648V160.633C34.6941 159.133 35.8035 158.266 37.7644 158.148L40.1785 158V157.234C40.1785 156.195 39.5457 155.633 38.2879 155.633C37.2801 155.633 36.616 156.008 36.3972 156.664L36.3894 156.688H35.0301L35.0379 156.641C35.2566 155.32 36.5379 154.43 38.3347 154.43C40.3894 154.43 41.5379 155.484 41.5379 157.234V163H40.1785V161.758H40.0535C39.5222 162.656 38.6394 163.148 37.5066 163.148ZM36.0847 160.617C36.0847 161.469 36.8113 161.969 37.7879 161.969C39.1707 161.969 40.1785 161.062 40.1785 159.859V159.094L37.9285 159.234C36.6472 159.312 36.0847 159.766 36.0847 160.602V160.617ZM49.2599 163V159.188H45.0881V163H43.7287V154.578H45.0881V158.062H49.2599V154.578H50.6193V163H49.2599Z" fill="black" fill-opacity="0.6"/>
<path d="M161.354 164V162.117L165.668 157.858C167.552 156.031 168.062 155.354 168.062 154.417V154.389C168.062 153.248 167.283 152.45 166.002 152.45C164.694 152.45 163.794 153.322 163.794 154.593V154.639H161.206L161.197 154.602C161.197 152.032 163.201 150.27 166.132 150.27C168.888 150.27 170.817 151.847 170.817 154.157V154.185C170.817 155.706 170.029 156.968 167.589 159.222L165.112 161.532V161.746H171.012V164H161.354ZM178.475 164.343C175.367 164.343 172.945 162.145 172.945 157.432V157.413C172.945 152.932 175.06 150.27 178.484 150.27C181.072 150.27 183.002 151.8 183.41 153.897L183.429 153.99H180.692L180.655 153.906C180.339 153.071 179.579 152.505 178.493 152.505C176.554 152.505 175.71 154.407 175.608 156.838C175.599 156.94 175.599 157.042 175.599 157.144H175.784C176.266 156.105 177.389 155.187 179.235 155.187C181.842 155.187 183.605 157.042 183.605 159.575V159.593C183.605 162.33 181.49 164.343 178.475 164.343ZM176.016 159.63C176.016 161.041 177.092 162.126 178.456 162.126C179.81 162.126 180.896 161.059 180.896 159.686V159.667C180.896 158.267 179.875 157.246 178.475 157.246C177.092 157.246 176.016 158.239 176.016 159.621V159.63ZM188.961 164V153.257H188.794L185.51 155.539V153.016L188.97 150.613H191.763V164H188.961Z" fill="black" fill-opacity="0.6"/>
<path d="M21.2656 193.812V191.102C18.6562 191.055 16.9219 189.383 16.9219 186.797V186.781C16.9219 184.188 18.6562 182.516 21.2656 182.477V179.727H22.5781V182.477C25.1797 182.523 26.9141 184.188 26.9141 186.781V186.797C26.9141 189.391 25.1797 191.062 22.5781 191.102V193.812H21.2656ZM21.2656 189.938V183.641C19.4453 183.68 18.2891 184.867 18.2891 186.781V186.797C18.2891 188.703 19.4453 189.891 21.2656 189.938ZM22.5781 189.938C24.3906 189.898 25.5469 188.711 25.5469 186.797V186.781C25.5469 184.875 24.3906 183.688 22.5781 183.641V189.938ZM31.058 191.148C29.4564 191.148 28.2455 190.18 28.2455 188.648V188.633C28.2455 187.133 29.3549 186.266 31.3158 186.148L33.7299 186V185.234C33.7299 184.195 33.0971 183.633 31.8392 183.633C30.8314 183.633 30.1674 184.008 29.9486 184.664L29.9408 184.688H28.5814L28.5892 184.641C28.808 183.32 30.0892 182.43 31.8861 182.43C33.9408 182.43 35.0892 183.484 35.0892 185.234V191H33.7299V189.758H33.6049C33.0736 190.656 32.1908 191.148 31.058 191.148ZM29.6361 188.617C29.6361 189.469 30.3627 189.969 31.3392 189.969C32.7221 189.969 33.7299 189.062 33.7299 187.859V187.094L31.4799 187.234C30.1986 187.312 29.6361 187.766 29.6361 188.602V188.617ZM39.0691 187.164H38.6394V191H37.2801V182.578H38.6394V186.102H39.0691L42.3269 182.578H43.9597L40.1707 186.547L44.1082 191H42.366L39.0691 187.164ZM51.2521 182.578V183.703H48.5256V191H47.1662V183.703H44.4396V182.578H51.2521Z" fill="black"/>
<path d="M158.354 192V190.117L162.668 185.858C164.552 184.031 165.062 183.354 165.062 182.417V182.389C165.062 181.248 164.283 180.45 163.002 180.45C161.694 180.45 160.794 181.322 160.794 182.593V182.639H158.206L158.197 182.602C158.197 180.032 160.201 178.27 163.132 178.27C165.888 178.27 167.817 179.847 167.817 182.157V182.185C167.817 183.706 167.029 184.968 164.589 187.222L162.112 189.532V189.746H168.012V192H158.354ZM175.475 192.343C172.367 192.343 169.945 190.145 169.945 185.432V185.413C169.945 180.932 172.06 178.27 175.484 178.27C178.072 178.27 180.002 179.8 180.41 181.897L180.429 181.99H177.692L177.655 181.906C177.339 181.071 176.579 180.505 175.493 180.505C173.554 180.505 172.71 182.407 172.608 184.838C172.599 184.94 172.599 185.042 172.599 185.144H172.784C173.266 184.105 174.389 183.187 176.235 183.187C178.842 183.187 180.605 185.042 180.605 187.575V187.593C180.605 190.33 178.49 192.343 175.475 192.343ZM173.016 187.63C173.016 189.041 174.092 190.126 175.456 190.126C176.81 190.126 177.896 189.059 177.896 187.686V187.667C177.896 186.267 176.875 185.246 175.475 185.246C174.092 185.246 173.016 186.239 173.016 187.621V187.63ZM187.835 192.343C184.533 192.343 182.519 189.634 182.519 185.311V185.292C182.519 180.96 184.533 178.27 187.835 178.27C191.147 178.27 193.151 180.96 193.151 185.292V185.311C193.151 189.634 191.147 192.343 187.835 192.343ZM187.835 190.126C189.422 190.126 190.322 188.335 190.322 185.311V185.292C190.322 182.259 189.422 180.487 187.835 180.487C186.258 180.487 185.358 182.259 185.358 185.292V185.311C185.358 188.335 186.258 190.126 187.835 190.126Z" fill="black"/>
</svg>
