<svg width="211" height="211" viewBox="0 0 211 211" fill="none" xmlns="http://www.w3.org/2000/svg">
<rect width="211" height="211" rx="8" fill="#5FD86B"/>
<path d="M20.2305 29.1553V27.2163H22.021C23.5146 27.2163 24.4609 26.3999 24.4609 25.1846V25.166C24.4609 24.0342 23.5796 23.3198 22.0859 23.3198C20.6294 23.3198 19.6738 24.0156 19.5625 25.1938L19.5532 25.2495H17.2988L17.3081 25.1289C17.4658 22.7632 19.3306 21.2788 22.1602 21.2788C24.8784 21.2788 26.7896 22.7539 26.7896 24.897V24.9155C26.7896 26.3906 25.7598 27.6152 24.2754 27.9492V28.1069C26.0288 28.2832 27.2627 29.4893 27.2627 31.3262V31.3447C27.2627 33.6548 25.0269 35.334 22.1045 35.334C19.145 35.334 17.104 33.7476 16.9741 31.3911L16.9648 31.3076H19.2842L19.2935 31.3633C19.4048 32.5693 20.4995 33.293 22.1138 33.293C23.7373 33.293 24.8228 32.4673 24.8228 31.2056V31.187C24.8228 29.9346 23.8115 29.1553 22.0581 29.1553H20.2305ZM33.6859 35.2041C30.6708 35.2041 28.8432 33.1816 28.8432 29.9531V29.9438C28.8432 26.7524 30.6893 24.665 33.5746 24.665C36.4599 24.665 38.2411 26.6875 38.2411 29.749V30.5098H31.1532C31.181 32.3281 32.1644 33.3857 33.7323 33.3857C34.9848 33.3857 35.6991 32.7549 35.9218 32.291L35.9496 32.2261H38.1483L38.1205 32.3096C37.7958 33.6177 36.4413 35.2041 33.6859 35.2041ZM33.6024 26.4741C32.3129 26.4741 31.348 27.3462 31.1718 28.9604H35.9867C35.829 27.2998 34.892 26.4741 33.6024 26.4741ZM42.4934 35H40.2854V24.8599H43.2264L46.2229 31.9199H46.3899L49.3958 24.8599H52.281V35H50.073V28.0791H49.8968L47.1043 34.5454H45.4529L42.6697 28.0791H42.4934V35ZM59.1867 35.2041C56.1716 35.2041 54.3439 33.1816 54.3439 29.9531V29.9438C54.3439 26.7524 56.1901 24.665 59.0754 24.665C61.9606 24.665 63.7419 26.6875 63.7419 29.749V30.5098H56.654C56.6818 32.3281 57.6652 33.3857 59.2331 33.3857C60.4855 33.3857 61.1999 32.7549 61.4225 32.291L61.4504 32.2261H63.6491L63.6213 32.3096C63.2966 33.6177 61.9421 35.2041 59.1867 35.2041ZM59.1032 26.4741C57.8136 26.4741 56.8488 27.3462 56.6725 28.9604H61.4875C61.3298 27.2998 60.3927 26.4741 59.1032 26.4741ZM68.4766 30.6118C68.2818 33.5342 67.3819 35.0928 65.3223 35.0928C64.9049 35.0928 64.5987 35.0278 64.4503 34.9814V32.9961C64.5523 33.0239 64.8028 33.061 65.0626 33.061C65.9903 33.061 66.315 31.8828 66.4078 30.4263L66.7603 24.8599H74.0338V35H71.7237V26.6504H68.7642L68.4766 30.6118ZM76.5883 35V24.8599H78.8984V27.9214H80.9023C83.268 27.9214 84.7802 29.3037 84.7802 31.4561V31.4746C84.7802 33.627 83.268 35 80.9023 35H76.5883ZM80.6054 29.7026H78.8984V33.2188H80.6054C81.7373 33.2188 82.4516 32.5044 82.4516 31.4653V31.4468C82.4516 30.3984 81.728 29.7026 80.6054 29.7026ZM93.3094 35V30.6675H89.0326V35H86.7225V24.8599H89.0326V28.877H93.3094V24.8599H95.6195V35H93.3094ZM98.1741 35V24.8599H100.484V27.9214H102.488C104.854 27.9214 106.366 29.3037 106.366 31.4561V31.4746C106.366 33.627 104.854 35 102.488 35H98.1741ZM108.027 35V24.8599H110.337V35H108.027ZM102.191 29.7026H100.484V33.2188H102.191C103.323 33.2188 104.037 32.5044 104.037 31.4653V31.4468C104.037 30.3984 103.314 29.7026 102.191 29.7026ZM117.409 23.4775C115.359 23.4775 114.005 22.1509 114.005 20.314H115.814C115.832 21.3066 116.435 22.1323 117.409 22.1323C118.383 22.1323 118.977 21.3066 118.996 20.314H120.814C120.814 22.1509 119.45 23.4775 117.409 23.4775ZM112.891 35V24.8599H115.173V31.6509H115.359L119.636 24.8599H121.918V35H119.636V28.1719H119.441L115.173 35H112.891ZM135.683 35V30.6675H131.406V35H129.096V24.8599H131.406V28.877H135.683V24.8599H137.993V35H135.683ZM143.322 35.167C141.392 35.167 139.991 33.9795 139.991 32.1333V32.1147C139.991 30.3057 141.373 29.248 143.841 29.0996L146.448 28.9419V28.0698C146.448 27.0586 145.789 26.502 144.546 26.502C143.489 26.502 142.802 26.8823 142.57 27.5503L142.561 27.5874H140.381L140.39 27.5039C140.613 25.7969 142.245 24.665 144.658 24.665C147.264 24.665 148.73 25.9268 148.73 28.0698V35H146.448V33.6084H146.29C145.734 34.5918 144.658 35.167 143.322 35.167ZM142.273 32.022C142.273 32.8848 143.006 33.395 144.027 33.395C145.418 33.395 146.448 32.4858 146.448 31.2798V30.4634L144.166 30.6118C142.876 30.6953 142.273 31.1685 142.273 32.0034V32.022ZM154.189 30.6118C153.994 33.5342 153.094 35.0928 151.034 35.0928C150.617 35.0928 150.311 35.0278 150.162 34.9814V32.9961C150.264 33.0239 150.515 33.061 150.775 33.061C151.702 33.061 152.027 31.8828 152.12 30.4263L152.472 24.8599H159.746V35H157.436V26.6504H154.476L154.189 30.6118ZM166.689 35.2041C163.646 35.2041 161.809 33.2188 161.809 29.9346V29.916C161.809 26.6597 163.673 24.665 166.689 24.665C169.713 24.665 171.568 26.6504 171.568 29.916V29.9346C171.568 33.2188 169.722 35.2041 166.689 35.2041ZM166.689 33.3301C168.294 33.3301 169.203 32.0776 169.203 29.9438V29.9253C169.203 27.7915 168.284 26.5298 166.689 26.5298C165.084 26.5298 164.165 27.7915 164.165 29.9253V29.9438C164.165 32.0776 165.084 33.3301 166.689 33.3301ZM180.459 26.6504H175.932V35H173.622V24.8599H180.459V26.6504ZM21.854 59.2041C18.8018 59.2041 17.002 57.228 17.002 53.916V53.8975C17.002 50.6226 18.7925 48.665 21.8447 48.665C24.4517 48.665 26.0103 50.1123 26.27 52.209V52.2461H24.0898L24.0806 52.2183C23.8672 51.2349 23.1157 50.5298 21.854 50.5298C20.2769 50.5298 19.3491 51.7729 19.3491 53.8975V53.916C19.3491 56.0684 20.2861 57.3301 21.854 57.3301C23.0508 57.3301 23.7837 56.7827 24.0713 55.7158L24.0898 55.6787L26.27 55.6694L26.2515 55.7437C25.9175 57.8218 24.4238 59.2041 21.854 59.2041ZM37.7063 62.3677V59.1392C34.45 59.0649 32.3348 57.0981 32.3348 53.9346V53.916C32.3348 50.7803 34.4593 48.7856 37.7063 48.73V45.5386H39.9607V48.73C43.2171 48.7949 45.3323 50.7524 45.3323 53.9253V53.9438C45.3323 57.0796 43.1985 59.0742 39.9607 59.1392V62.3677H37.7063ZM37.7249 57.3301V50.5298C35.8601 50.5762 34.6634 51.8472 34.6634 53.9253V53.9438C34.6634 56.022 35.8509 57.2744 37.7249 57.3301ZM39.9422 57.3301C41.7976 57.2837 42.9944 56.0127 42.9944 53.9438V53.9253C42.9944 51.8379 41.8069 50.5854 39.9422 50.5298V57.3301ZM47.3766 59V48.8599H49.6589V55.6509H49.8444L54.1213 48.8599H56.4035V59H54.1213V52.1719H53.9264L49.6589 59H47.3766ZM62.7618 59.2134C60.461 59.2134 58.6334 58.1743 58.4107 56.2075L58.4014 56.124H60.6465L60.6651 56.189C60.8785 56.9683 61.6485 57.4229 62.734 57.4229C63.9957 57.4229 64.7379 56.8384 64.7379 56.0034V55.9849C64.7379 55.085 64.0328 54.6304 62.7247 54.6304H61.2681V53.0718H62.7154C63.8936 53.0718 64.4503 52.5894 64.4503 51.7544V51.7358C64.4503 51.0029 63.8843 50.4463 62.7432 50.4463C61.7042 50.4463 61.0084 50.9194 60.8692 51.6523L60.8599 51.6987H58.6705L58.6798 51.6245C58.9117 49.8525 60.3311 48.6558 62.8174 48.6558C65.2203 48.6558 66.7047 49.7412 66.7047 51.4575V51.4761C66.7047 52.543 66.0274 53.3687 64.9327 53.6191V53.7769C66.3428 54.0552 67.0294 54.8716 67.0294 56.0034V56.022C67.0294 57.9053 65.3687 59.2134 62.7618 59.2134ZM70.4096 59.1855C69.5654 59.1855 68.9345 58.5454 68.9345 57.7197C68.9345 56.894 69.5654 56.2539 70.4096 56.2539C71.2631 56.2539 71.8847 56.894 71.8847 57.7197C71.8847 58.5454 71.2631 59.1855 70.4096 59.1855ZM82.1614 54.6118C81.9665 57.5342 81.0666 59.0928 79.0071 59.0928C78.5896 59.0928 78.2834 59.0278 78.135 58.9814V56.9961C78.2371 57.0239 78.4875 57.061 78.7473 57.061C79.675 57.061 79.9997 55.8828 80.0925 54.4263L80.4451 48.8599H87.7185V59H85.4084V50.6504H82.449L82.1614 54.6118ZM90.2731 59V48.8599H92.5553V55.6509H92.7409L97.0177 48.8599H99.2999V59H97.0177V52.1719H96.8229L92.5553 59H90.2731ZM110.074 61.644V59H101.855V48.8599H104.165V57.2188H108.349V48.8599H110.659V57.2188H112.217V61.644H110.074Z" fill="black"/>
<path d="M17.3359 163V154.578H24.1484V163H22.7891V155.703H18.6953V163H17.3359ZM28.3549 159.703C28.1752 162.023 27.4564 163.078 26.0502 163.078C25.7611 163.078 25.5424 163.031 25.433 162.992V161.766C25.5033 161.789 25.7142 161.82 25.9174 161.82C26.6908 161.82 27.0033 160.844 27.0892 159.594L27.4486 154.578H32.9564V163H31.5971V155.703H28.6674L28.3549 159.703ZM37.5066 163.148C35.9051 163.148 34.6941 162.18 34.6941 160.648V160.633C34.6941 159.133 35.8035 158.266 37.7644 158.148L40.1785 158V157.234C40.1785 156.195 39.5457 155.633 38.2879 155.633C37.2801 155.633 36.616 156.008 36.3972 156.664L36.3894 156.688H35.0301L35.0379 156.641C35.2566 155.32 36.5379 154.43 38.3347 154.43C40.3894 154.43 41.5379 155.484 41.5379 157.234V163H40.1785V161.758H40.0535C39.5222 162.656 38.6394 163.148 37.5066 163.148ZM36.0847 160.617C36.0847 161.469 36.8113 161.969 37.7879 161.969C39.1707 161.969 40.1785 161.062 40.1785 159.859V159.094L37.9285 159.234C36.6472 159.312 36.0847 159.766 36.0847 160.602V160.617ZM49.2599 163V159.188H45.0881V163H43.7287V154.578H45.0881V158.062H49.2599V154.578H50.6193V163H49.2599Z" fill="black" fill-opacity="0.6"/>
<path d="M160.354 164V162.117L164.668 157.858C166.552 156.031 167.062 155.354 167.062 154.417V154.389C167.062 153.248 166.283 152.45 165.002 152.45C163.694 152.45 162.794 153.322 162.794 154.593V154.639H160.206L160.197 154.602C160.197 152.032 162.201 150.27 165.132 150.27C167.888 150.27 169.817 151.847 169.817 154.157V154.185C169.817 155.706 169.029 156.968 166.589 159.222L164.112 161.532V161.746H170.012V164H160.354ZM172.734 164L178.439 152.997V152.839H171.685V150.604H181.26V152.867L175.665 164H172.734ZM188.091 164.343C184.788 164.343 182.775 161.634 182.775 157.311V157.292C182.775 152.96 184.788 150.27 188.091 150.27C191.403 150.27 193.407 152.96 193.407 157.292V157.311C193.407 161.634 191.403 164.343 188.091 164.343ZM188.091 162.126C189.678 162.126 190.577 160.335 190.577 157.311V157.292C190.577 154.259 189.678 152.487 188.091 152.487C186.514 152.487 185.614 154.259 185.614 157.292V157.311C185.614 160.335 186.514 162.126 188.091 162.126Z" fill="black" fill-opacity="0.6"/>
<path d="M21.2656 193.812V191.102C18.6562 191.055 16.9219 189.383 16.9219 186.797V186.781C16.9219 184.188 18.6562 182.516 21.2656 182.477V179.727H22.5781V182.477C25.1797 182.523 26.9141 184.188 26.9141 186.781V186.797C26.9141 189.391 25.1797 191.062 22.5781 191.102V193.812H21.2656ZM21.2656 189.938V183.641C19.4453 183.68 18.2891 184.867 18.2891 186.781V186.797C18.2891 188.703 19.4453 189.891 21.2656 189.938ZM22.5781 189.938C24.3906 189.898 25.5469 188.711 25.5469 186.797V186.781C25.5469 184.875 24.3906 183.688 22.5781 183.641V189.938ZM31.058 191.148C29.4564 191.148 28.2455 190.18 28.2455 188.648V188.633C28.2455 187.133 29.3549 186.266 31.3158 186.148L33.7299 186V185.234C33.7299 184.195 33.0971 183.633 31.8392 183.633C30.8314 183.633 30.1674 184.008 29.9486 184.664L29.9408 184.688H28.5814L28.5892 184.641C28.808 183.32 30.0892 182.43 31.8861 182.43C33.9408 182.43 35.0892 183.484 35.0892 185.234V191H33.7299V189.758H33.6049C33.0736 190.656 32.1908 191.148 31.058 191.148ZM29.6361 188.617C29.6361 189.469 30.3627 189.969 31.3392 189.969C32.7221 189.969 33.7299 189.062 33.7299 187.859V187.094L31.4799 187.234C30.1986 187.312 29.6361 187.766 29.6361 188.602V188.617ZM39.0691 187.164H38.6394V191H37.2801V182.578H38.6394V186.102H39.0691L42.3269 182.578H43.9597L40.1707 186.547L44.1082 191H42.366L39.0691 187.164ZM51.2521 182.578V183.703H48.5256V191H47.1662V183.703H44.4396V182.578H51.2521Z" fill="black"/>
<path d="M158.354 192V190.117L162.668 185.858C164.552 184.031 165.062 183.354 165.062 182.417V182.389C165.062 181.248 164.283 180.45 163.002 180.45C161.694 180.45 160.794 181.322 160.794 182.593V182.639H158.206L158.197 182.602C158.197 180.032 160.201 178.27 163.132 178.27C165.888 178.27 167.817 179.847 167.817 182.157V182.185C167.817 183.706 167.029 184.968 164.589 187.222L162.112 189.532V189.746H168.012V192H158.354ZM176.198 192V189.542H169.639V187.343C171.337 184.328 173.155 181.359 174.936 178.613H178.87V187.296H180.614V189.542H178.87V192H176.198ZM172.162 187.371H176.254V180.737H176.105C174.807 182.732 173.369 185.061 172.162 187.222V187.371ZM187.566 178.26C190.665 178.26 193.095 180.468 193.095 185.172V185.19C193.095 189.671 190.98 192.334 187.548 192.334C184.959 192.334 183.039 190.803 182.621 188.707L182.603 188.623H185.349L185.377 188.707C185.701 189.542 186.462 190.107 187.538 190.107C189.477 190.107 190.331 188.206 190.433 185.766C190.433 185.673 190.433 185.571 190.433 185.469H190.247C189.765 186.499 188.652 187.426 186.796 187.426C184.189 187.426 182.436 185.571 182.436 183.038V183.02C182.436 180.283 184.551 178.26 187.566 178.26ZM187.566 185.357C188.949 185.357 190.015 184.374 190.015 182.992V182.973C190.015 181.572 188.949 180.487 187.585 180.487C186.23 180.487 185.145 181.554 185.145 182.917V182.936C185.145 184.346 186.165 185.357 187.566 185.357Z" fill="black"/>
</svg>
