<svg width="1139" height="74" viewBox="0 0 1139 74" fill="none" xmlns="http://www.w3.org/2000/svg">
<g clip-path="url(#clip0_5921_115446)">
<g style="mix-blend-mode:multiply">
<path d="M115 42C115 36.4772 119.477 32 125 32H254C259.523 32 264 36.4772 264 42V74H115V42Z" fill="#EAEEF2"/>
<path d="M140.62 60V47.4H146.272C147.712 47.4 148.846 47.796 149.566 48.516C150.124 49.074 150.412 49.758 150.412 50.64C150.412 52.152 149.548 52.962 148.612 53.448C150.088 53.952 151.114 54.798 151.114 56.544C151.114 58.794 149.26 60 146.452 60H140.62ZM142.798 52.71H145.822C147.244 52.71 148.198 52.152 148.198 50.964C148.198 49.974 147.406 49.362 145.984 49.362H142.798V52.71ZM142.798 58.038H146.47C147.982 58.038 148.9 57.444 148.9 56.274C148.9 55.212 148.054 54.582 146.308 54.582H142.798V58.038ZM152.858 60V50.496H154.982V56.868C156.476 54.744 157.97 52.62 159.482 50.496H161.534V60H159.428V53.664L154.91 60H152.858ZM162.668 62.286V58.128H163.694C164.486 56.544 164.756 54.33 164.756 51.666V50.496H172.118V58.128H173.468L173.18 62.286H171.362V60H164.702L164.486 62.286H162.668ZM165.926 58.128H169.94V52.368H166.808V53.628C166.808 55.356 166.484 56.958 165.926 58.128ZM179.677 60V50.496H181.855V54.348H186.049V50.496H188.227V60H186.049V56.166H181.855V60H179.677ZM198.436 60H196.276V58.83C195.628 59.604 194.638 60.198 193.198 60.198C191.398 60.198 189.814 59.172 189.814 57.228C189.814 55.122 191.452 54.114 193.666 54.114C194.818 54.114 195.556 54.276 196.294 54.51V54.33C196.294 53.016 195.466 52.296 193.954 52.296C192.892 52.296 192.1 52.53 191.236 52.89L190.642 51.144C191.686 50.676 192.712 50.352 194.26 50.352C197.068 50.352 198.436 51.828 198.436 54.366V60ZM196.33 56.562V56.022C195.772 55.806 194.998 55.644 194.152 55.644C192.784 55.644 191.974 56.202 191.974 57.156C191.974 58.056 192.784 58.56 193.81 58.56C195.25 58.56 196.33 57.75 196.33 56.562ZM200.454 60.108C200.112 60.108 199.5 60.036 199.176 59.982L199.338 58.2C199.482 58.236 199.824 58.272 199.968 58.272C201.066 58.272 201.822 57.732 201.822 50.496H209.004V60H206.826V52.368H203.856C203.856 59.262 202.56 60.108 200.454 60.108ZM215.759 60.216C212.861 60.216 210.719 58.002 210.719 55.266C210.719 52.548 212.879 50.298 215.795 50.298C218.711 50.298 220.853 52.512 220.853 55.266C220.853 57.966 218.693 60.216 215.759 60.216ZM215.795 58.326C217.559 58.326 218.675 56.94 218.675 55.266C218.675 53.592 217.469 52.206 215.759 52.206C214.013 52.206 212.897 53.574 212.897 55.266C212.897 56.922 214.103 58.326 215.795 58.326ZM222.571 60V50.496H229.303V52.368H224.749V60H222.571ZM238.5 60H236.34V58.83C235.692 59.604 234.702 60.198 233.262 60.198C231.462 60.198 229.878 59.172 229.878 57.228C229.878 55.122 231.516 54.114 233.73 54.114C234.882 54.114 235.62 54.276 236.358 54.51V54.33C236.358 53.016 235.53 52.296 234.018 52.296C232.956 52.296 232.164 52.53 231.3 52.89L230.706 51.144C231.75 50.676 232.776 50.352 234.324 50.352C237.132 50.352 238.5 51.828 238.5 54.366V60ZM236.394 56.562V56.022C235.836 55.806 235.062 55.644 234.216 55.644C232.848 55.644 232.038 56.202 232.038 57.156C232.038 58.056 232.848 58.56 233.874 58.56C235.314 58.56 236.394 57.75 236.394 56.562Z" fill="#6F849E"/>
</g>
<g filter="url(#filter0_d_5921_115446)">
<path d="M268 34C268 28.4772 272.477 24 278 24H401C406.523 24 411 28.4772 411 34V74H268V34Z" fill="white" shape-rendering="crispEdges"/>
<path d="M293.62 56V43.4H295.834V49.736L301.828 43.4H304.546L299.308 48.818L304.78 56H302.098L297.796 50.33L295.834 52.346V56H293.62ZM313.885 56H311.725V54.83C311.077 55.604 310.087 56.198 308.647 56.198C306.847 56.198 305.263 55.172 305.263 53.228C305.263 51.122 306.901 50.114 309.115 50.114C310.267 50.114 311.005 50.276 311.743 50.51V50.33C311.743 49.016 310.915 48.296 309.403 48.296C308.341 48.296 307.549 48.53 306.685 48.89L306.091 47.144C307.135 46.676 308.161 46.352 309.709 46.352C312.517 46.352 313.885 47.828 313.885 50.366V56ZM311.779 52.562V52.022C311.221 51.806 310.447 51.644 309.601 51.644C308.233 51.644 307.423 52.202 307.423 53.156C307.423 54.056 308.233 54.56 309.259 54.56C310.699 54.56 311.779 53.75 311.779 52.562ZM318.009 56V48.368H314.949V46.496H323.265V48.368H320.205V56H318.009ZM328.849 56.216C326.095 56.216 323.971 54.218 323.971 51.248C323.971 48.53 325.897 46.298 328.615 46.298C331.639 46.298 333.169 48.674 333.169 51.41C333.169 51.554 333.151 51.914 333.133 52.022H326.149C326.383 53.57 327.481 54.434 328.885 54.434C329.947 54.434 330.703 54.038 331.459 53.3L332.737 54.434C331.837 55.514 330.595 56.216 328.849 56.216ZM326.131 50.582H331.009C330.865 49.178 330.037 48.08 328.597 48.08C327.265 48.08 326.329 49.106 326.131 50.582ZM334.856 56V46.496H341.588V48.368H337.034V56H334.856ZM347.329 56.216C344.431 56.216 342.289 54.002 342.289 51.266C342.289 48.548 344.449 46.298 347.365 46.298C350.281 46.298 352.423 48.512 352.423 51.266C352.423 53.966 350.263 56.216 347.329 56.216ZM347.365 54.326C349.129 54.326 350.245 52.94 350.245 51.266C350.245 49.592 349.039 48.206 347.329 48.206C345.583 48.206 344.467 49.574 344.467 51.266C344.467 52.922 345.673 54.326 347.365 54.326ZM354.141 58.88V46.496H356.319V48.08C357.021 47.09 358.011 46.298 359.541 46.298C361.791 46.298 363.969 48.08 363.969 51.266C363.969 54.416 361.809 56.198 359.541 56.198C357.975 56.198 356.985 55.406 356.319 54.524V58.88H354.141ZM359.037 54.308C360.531 54.308 361.755 53.138 361.755 51.23C361.755 49.394 360.513 48.188 359.037 48.188C357.561 48.188 356.265 49.412 356.265 51.266C356.265 53.102 357.561 54.308 359.037 54.308ZM365.7 56V46.496H367.824V52.868C369.318 50.744 370.812 48.62 372.324 46.496H374.376V56H372.27V49.664L367.752 56H365.7ZM376.608 56V46.496H378.732V52.868C380.226 50.744 381.72 48.62 383.232 46.496H385.284V56H383.178V49.664L378.66 56H376.608Z" fill="#2E374D"/>
</g>
<g style="mix-blend-mode:multiply">
<path d="M415 42C415 36.4772 419.477 32 425 32H580C585.523 32 590 36.4772 590 42V74H415V42Z" fill="#EAEEF2"/>
<path d="M440.62 60V47.4H442.978L446.812 53.358L450.646 47.4H453.004V60H450.79V50.964L446.812 56.904H446.74L442.798 51V60H440.62ZM455.495 60V50.496H457.619V56.868C459.113 54.744 460.607 52.62 462.119 50.496H464.171V60H462.065V53.664L457.547 60H455.495ZM466.403 60V50.496H468.581V54.348H472.775V50.496H474.953V60H472.775V56.166H468.581V60H466.403ZM477.188 60V50.496H479.312V56.868C480.806 54.744 482.3 52.62 483.812 50.496H485.864V60H483.758V53.664L479.24 60H477.188ZM492.489 60.216C489.663 60.216 487.575 58.002 487.575 55.302V55.266C487.575 52.566 489.663 50.298 492.507 50.298C494.307 50.298 495.423 50.964 496.305 51.936L494.955 53.394C494.289 52.692 493.587 52.206 492.489 52.206C490.905 52.206 489.753 53.574 489.753 55.23V55.266C489.753 56.958 490.923 58.326 492.597 58.326C493.623 58.326 494.379 57.84 495.063 57.138L496.377 58.434C495.441 59.478 494.343 60.216 492.489 60.216ZM499.826 60V52.368H496.766V50.496H505.082V52.368H502.022V60H499.826ZM510.665 60.216C507.911 60.216 505.787 58.218 505.787 55.248C505.787 52.53 507.713 50.298 510.431 50.298C513.455 50.298 514.985 52.674 514.985 55.41C514.985 55.554 514.967 55.914 514.949 56.022H507.965C508.199 57.57 509.297 58.434 510.701 58.434C511.763 58.434 512.519 58.038 513.275 57.3L514.553 58.434C513.653 59.514 512.411 60.216 510.665 60.216ZM507.947 54.582H512.825C512.681 53.178 511.853 52.08 510.413 52.08C509.081 52.08 508.145 53.106 507.947 54.582ZM516.673 62.88V50.496H518.851V52.08C519.553 51.09 520.543 50.298 522.073 50.298C524.323 50.298 526.501 52.08 526.501 55.266C526.501 58.416 524.341 60.198 522.073 60.198C520.507 60.198 519.517 59.406 518.851 58.524V62.88H516.673ZM521.569 58.308C523.063 58.308 524.287 57.138 524.287 55.23C524.287 53.394 523.045 52.188 521.569 52.188C520.093 52.188 518.797 53.412 518.797 55.266C518.797 57.102 520.093 58.308 521.569 58.308ZM532.623 60.216C529.797 60.216 527.709 58.002 527.709 55.302V55.266C527.709 52.566 529.797 50.298 532.641 50.298C534.441 50.298 535.557 50.964 536.439 51.936L535.089 53.394C534.423 52.692 533.721 52.206 532.623 52.206C531.039 52.206 529.887 53.574 529.887 55.23V55.266C529.887 56.958 531.057 58.326 532.731 58.326C533.757 58.326 534.513 57.84 535.197 57.138L536.511 58.434C535.575 59.478 534.477 60.216 532.623 60.216ZM539.961 60V52.368H536.901V50.496H545.217V52.368H542.157V60H539.961ZM546.444 60V50.496H551.322C553.212 50.496 554.454 51.414 554.454 52.872C554.454 54.078 553.734 54.69 552.924 55.05C554.076 55.374 554.886 56.076 554.886 57.426C554.886 59.028 553.536 60 551.376 60H546.444ZM548.586 58.272H551.052C552.114 58.272 552.672 57.786 552.672 57.048C552.672 56.364 552.114 55.896 550.944 55.896H548.586V58.272ZM548.586 54.42H550.818C551.736 54.42 552.24 53.934 552.24 53.25C552.24 52.638 551.826 52.17 550.854 52.17H548.586V54.42ZM564.535 60H562.375V58.83C561.727 59.604 560.737 60.198 559.297 60.198C557.497 60.198 555.913 59.172 555.913 57.228C555.913 55.122 557.551 54.114 559.765 54.114C560.917 54.114 561.655 54.276 562.393 54.51V54.33C562.393 53.016 561.565 52.296 560.053 52.296C558.991 52.296 558.199 52.53 557.335 52.89L556.741 51.144C557.785 50.676 558.811 50.352 560.359 50.352C563.167 50.352 564.535 51.828 564.535 54.366V60ZM562.429 56.562V56.022C561.871 55.806 561.097 55.644 560.251 55.644C558.883 55.644 558.073 56.202 558.073 57.156C558.073 58.056 558.883 58.56 559.909 58.56C561.349 58.56 562.429 57.75 562.429 56.562Z" fill="#6F849E"/>
</g>
<g style="mix-blend-mode:multiply">
<path d="M594 42C594 36.4772 598.477 32 604 32H701C706.523 32 711 36.4772 711 42V74H594V42Z" fill="#EAEEF2"/>
<path d="M619.62 60V47.4H624.588C627.522 47.4 629.376 49.074 629.376 51.648C629.376 54.474 627.108 55.95 624.336 55.95H621.834V60H619.62ZM621.834 53.952H624.408C626.082 53.952 627.126 53.016 627.126 51.666C627.126 50.19 626.064 49.416 624.408 49.416H621.834V53.952ZM638.865 60H636.705V58.83C636.057 59.604 635.067 60.198 633.627 60.198C631.827 60.198 630.243 59.172 630.243 57.228C630.243 55.122 631.881 54.114 634.095 54.114C635.247 54.114 635.985 54.276 636.723 54.51V54.33C636.723 53.016 635.895 52.296 634.383 52.296C633.321 52.296 632.529 52.53 631.665 52.89L631.071 51.144C632.115 50.676 633.141 50.352 634.689 50.352C637.497 50.352 638.865 51.828 638.865 54.366V60ZM636.759 56.562V56.022C636.201 55.806 635.427 55.644 634.581 55.644C633.213 55.644 632.403 56.202 632.403 57.156C632.403 58.056 633.213 58.56 634.239 58.56C635.679 58.56 636.759 57.75 636.759 56.562ZM645.312 49.398C643.782 49.398 642.72 48.426 642.486 46.896L643.818 46.644C644.052 47.4 644.502 47.868 645.312 47.868C646.122 47.868 646.572 47.4 646.806 46.644L648.12 46.896C647.886 48.426 646.842 49.398 645.312 49.398ZM640.956 60V50.496H643.08V56.868C644.574 54.744 646.068 52.62 647.58 50.496H649.632V60H647.526V53.664L643.008 60H640.956ZM656.382 60.216C653.484 60.216 651.342 58.002 651.342 55.266C651.342 52.548 653.502 50.298 656.418 50.298C659.334 50.298 661.476 52.512 661.476 55.266C661.476 57.966 659.316 60.216 656.382 60.216ZM656.418 58.326C658.182 58.326 659.298 56.94 659.298 55.266C659.298 53.592 658.092 52.206 656.382 52.206C654.636 52.206 653.52 53.574 653.52 55.266C653.52 56.922 654.726 58.326 656.418 58.326ZM663.194 60V50.496H665.372V54.348H669.566V50.496H671.744V60H669.566V56.166H665.372V60H663.194ZM673.979 60V50.496H676.157V53.826H678.155C680.297 53.826 681.935 54.762 681.935 56.832C681.935 58.794 680.549 60 678.317 60H673.979ZM676.157 58.236H678.029C679.127 58.236 679.757 57.75 679.757 56.832C679.757 55.986 679.109 55.518 677.993 55.518H676.157V58.236ZM683.375 60V50.496H685.553V60H683.375Z" fill="#6F849E"/>
</g>
<g style="mix-blend-mode:multiply">
<path d="M715 42C715 36.4772 719.477 32 725 32H893C898.523 32 903 36.4772 903 42V74H715V42Z" fill="#EAEEF2"/>
<path d="M743.716 60V49.452H739.72V47.4H749.944V49.452H745.948V60H743.716ZM751.54 60V50.496H753.664V56.868C755.158 54.744 756.652 52.62 758.164 50.496H760.216V60H758.11V53.664L753.592 60H751.54ZM762.448 60V50.496H770.926V60H768.748V52.368H764.626V60H762.448ZM776.961 62.286V58.128H777.987C778.779 56.544 779.049 54.33 779.049 51.666V50.496H786.411V58.128H787.761L787.473 62.286H785.655V60H778.995L778.779 62.286H776.961ZM780.219 58.128H784.233V52.368H781.101V53.628C781.101 55.356 780.777 56.958 780.219 58.128ZM793.591 60.216C790.693 60.216 788.551 58.002 788.551 55.266C788.551 52.548 790.711 50.298 793.627 50.298C796.543 50.298 798.685 52.512 798.685 55.266C798.685 57.966 796.525 60.216 793.591 60.216ZM793.627 58.326C795.391 58.326 796.507 56.94 796.507 55.266C796.507 53.592 795.301 52.206 793.591 52.206C791.845 52.206 790.729 53.574 790.729 55.266C790.729 56.922 791.935 58.326 793.627 58.326ZM800.331 60.108C799.989 60.108 799.377 60.036 799.053 59.982L799.215 58.2C799.359 58.236 799.701 58.272 799.845 58.272C800.943 58.272 801.699 57.732 801.699 50.496H808.881V60H806.703V52.368H803.733C803.733 59.262 802.437 60.108 800.331 60.108ZM809.912 60L813.638 54.492L810.056 50.496H812.594L816.536 55.158V50.496H818.714V55.158L822.674 50.496H825.212L821.63 54.492L825.338 60H822.89L820.172 55.95L818.714 57.606V60H816.536V57.606L815.078 55.95L812.36 60H809.912ZM826.368 60V50.496H828.546V54.348H832.74V50.496H834.918V60H832.74V56.166H828.546V60H826.368ZM837.153 60V50.496H839.277V56.868C840.771 54.744 842.265 52.62 843.777 50.496H845.829V60H843.723V53.664L839.205 60H837.153ZM848.061 60V50.496H850.221V55.05L854.361 50.496H856.917L853.227 54.492L857.223 60H854.649L851.769 56.076L850.221 57.714V60H848.061ZM862.749 60.216C859.851 60.216 857.709 58.002 857.709 55.266C857.709 52.548 859.869 50.298 862.785 50.298C865.701 50.298 867.843 52.512 867.843 55.266C867.843 57.966 865.683 60.216 862.749 60.216ZM862.785 58.326C864.549 58.326 865.665 56.94 865.665 55.266C865.665 53.592 864.459 52.206 862.749 52.206C861.003 52.206 859.887 53.574 859.887 55.266C859.887 56.922 861.093 58.326 862.785 58.326ZM869.561 60V50.496H874.439C876.329 50.496 877.571 51.414 877.571 52.872C877.571 54.078 876.851 54.69 876.041 55.05C877.193 55.374 878.003 56.076 878.003 57.426C878.003 59.028 876.653 60 874.493 60H869.561ZM871.703 58.272H874.169C875.231 58.272 875.789 57.786 875.789 57.048C875.789 56.364 875.231 55.896 874.061 55.896H871.703V58.272ZM871.703 54.42H873.935C874.853 54.42 875.357 53.934 875.357 53.25C875.357 52.638 874.943 52.17 873.971 52.17H871.703V54.42Z" fill="#6F849E"/>
</g>
</g>
<defs>
<filter id="filter0_d_5921_115446" x="248" y="4" width="183" height="90" filterUnits="userSpaceOnUse" color-interpolation-filters="sRGB">
<feFlood flood-opacity="0" result="BackgroundImageFix"/>
<feColorMatrix in="SourceAlpha" type="matrix" values="0 0 0 0 0 0 0 0 0 0 0 0 0 0 0 0 0 0 127 0" result="hardAlpha"/>
<feOffset/>
<feGaussianBlur stdDeviation="10"/>
<feComposite in2="hardAlpha" operator="out"/>
<feColorMatrix type="matrix" values="0 0 0 0 0 0 0 0 0 0 0 0 0 0 0 0 0 0 0.1 0"/>
<feBlend mode="normal" in2="BackgroundImageFix" result="effect1_dropShadow_5921_115446"/>
<feBlend mode="normal" in="SourceGraphic" in2="effect1_dropShadow_5921_115446" result="shape"/>
</filter>
<clipPath id="clip0_5921_115446">
<rect width="1139" height="74" fill="white"/>
</clipPath>
</defs>
</svg>