<svg width="304" height="136" viewBox="0 0 304 136" fill="none" xmlns="http://www.w3.org/2000/svg">
<rect width="304" height="136" rx="10" fill="#F4F7F8"/>
<path fill-rule="evenodd" clip-rule="evenodd" d="M35.874 28C35.4299 29.7252 33.8638 31 32 31C30.1362 31 28.5701 29.7252 28.126 28H23V26H28.126C28.5701 24.2748 30.1362 23 32 23C33.8638 23 35.4299 24.2748 35.874 26H41V28H35.874Z" fill="#4A5A75"/>
<path d="M62.3594 33H60.9531V22.9922H54.9219V33H53.5156V21.7266H62.3594V33ZM66.8675 29.7031C66.6878 32.0234 65.9691 33.0781 64.5628 33.0781C64.2738 33.0781 64.055 33.0312 63.9456 32.9922V31.7656C64.0159 31.7891 64.2269 31.8203 64.43 31.8203C65.2034 31.8203 65.5159 30.8438 65.6019 29.5938L65.9613 24.5781H71.4691V33H70.1097V25.7031H67.18L66.8675 29.7031ZM76.1413 33.1484C74.5397 33.1484 73.3288 32.1797 73.3288 30.6484V30.6328C73.3288 29.1328 74.4381 28.2656 76.3991 28.1484L78.8131 28V27.2344C78.8131 26.1953 78.1803 25.6328 76.9225 25.6328C75.9147 25.6328 75.2506 26.0078 75.0319 26.6641L75.0241 26.6875H73.6647L73.6725 26.6406C73.8913 25.3203 75.1725 24.4297 76.9694 24.4297C79.0241 24.4297 80.1725 25.4844 80.1725 27.2344V33H78.8131V31.7578H78.6881C78.1569 32.6562 77.2741 33.1484 76.1413 33.1484ZM74.7194 30.6172C74.7194 31.4688 75.4459 31.9688 76.4225 31.9688C77.8053 31.9688 78.8131 31.0625 78.8131 29.8594V29.0938L76.5631 29.2344C75.2819 29.3125 74.7194 29.7656 74.7194 30.6016V30.6172ZM88.0166 33V29.1875H83.8447V33H82.4853V24.5781H83.8447V28.0625H88.0166V24.5781H89.3759V33H88.0166ZM101.439 33V29.1875H97.2672V33H95.9078V24.5781H97.2672V28.0625H101.439V24.5781H102.798V33H101.439ZM107.471 33.1484C105.869 33.1484 104.658 32.1797 104.658 30.6484V30.6328C104.658 29.1328 105.768 28.2656 107.728 28.1484L110.143 28V27.2344C110.143 26.1953 109.51 25.6328 108.252 25.6328C107.244 25.6328 106.58 26.0078 106.361 26.6641L106.353 26.6875H104.994L105.002 26.6406C105.221 25.3203 106.502 24.4297 108.299 24.4297C110.353 24.4297 111.502 25.4844 111.502 27.2344V33H110.143V31.7578H110.018C109.486 32.6562 108.603 33.1484 107.471 33.1484ZM106.049 30.6172C106.049 31.4688 106.775 31.9688 107.752 31.9688C109.135 31.9688 110.143 31.0625 110.143 29.8594V29.0938L107.893 29.2344C106.611 29.3125 106.049 29.7656 106.049 30.6016V30.6172ZM120.315 33.1484C118.713 33.1484 117.503 32.1797 117.503 30.6484V30.6328C117.503 29.1328 118.612 28.2656 120.573 28.1484L122.987 28V27.2344C122.987 26.1953 122.354 25.6328 121.096 25.6328C120.088 25.6328 119.424 26.0078 119.206 26.6641L119.198 26.6875H117.838L117.846 26.6406C118.065 25.3203 119.346 24.4297 121.143 24.4297C123.198 24.4297 124.346 25.4844 124.346 27.2344V33H122.987V31.7578H122.862C122.331 32.6562 121.448 33.1484 120.315 33.1484ZM118.893 30.6172C118.893 31.4688 119.62 31.9688 120.596 31.9688C121.979 31.9688 122.987 31.0625 122.987 29.8594V29.0938L120.737 29.2344C119.456 29.3125 118.893 29.7656 118.893 30.6016V30.6172ZM126.659 33V24.5781H133.472V33H132.112V25.7031H128.018V33H126.659ZM135.831 35.8125V24.5781H137.191V25.9219H137.316C137.831 24.9844 138.769 24.4297 139.941 24.4297C142.073 24.4297 143.472 26.1562 143.472 28.7812V28.7969C143.472 31.4375 142.081 33.1484 139.941 33.1484C138.784 33.1484 137.777 32.5703 137.316 31.6719H137.191V35.8125H135.831ZM139.628 31.9453C141.167 31.9453 142.081 30.7578 142.081 28.7969V28.7812C142.081 26.8203 141.167 25.6328 139.628 25.6328C138.097 25.6328 137.159 26.8359 137.159 28.7812V28.7969C137.159 30.7422 138.097 31.9453 139.628 31.9453ZM148.871 33.1484C146.464 33.1484 145.011 31.4609 145.011 28.8203V28.8125C145.011 26.2109 146.496 24.4297 148.785 24.4297C151.074 24.4297 152.464 26.1328 152.464 28.6484V29.1797H146.402C146.441 30.9219 147.402 31.9375 148.902 31.9375C150.043 31.9375 150.746 31.3984 150.972 30.8906L151.003 30.8203H152.363L152.347 30.8828C152.058 32.0234 150.855 33.1484 148.871 33.1484ZM148.777 25.6406C147.527 25.6406 146.574 26.4922 146.425 28.0938H151.082C150.941 26.4297 150.019 25.6406 148.777 25.6406ZM156.144 29.7031C155.965 32.0234 155.246 33.0781 153.84 33.0781C153.551 33.0781 153.332 33.0312 153.223 32.9922V31.7656C153.293 31.7891 153.504 31.8203 153.707 31.8203C154.48 31.8203 154.793 30.8438 154.879 29.5938L155.238 24.5781H160.746V33H159.387V25.7031H156.457L156.144 29.7031ZM163.098 33V24.5781H164.457V27.2812H166.106C168.035 27.2812 169.27 28.3906 169.27 30.1328V30.1484C169.27 31.8906 168.035 33 166.106 33H163.098ZM166.106 28.4062H164.457V31.875H166.106C167.215 31.875 167.91 31.1875 167.91 30.1484V30.1328C167.91 29.0859 167.207 28.4062 166.106 28.4062Z" fill="#2E374D"/>
<path d="M226.368 34V22.6133H226.309L222.715 25.0547V22.4375L226.358 19.9082H229.287V34H226.368ZM238.398 34.2441C234.824 34.2441 232.656 31.4414 232.656 26.959V26.9395C232.656 22.457 234.824 19.6641 238.398 19.6641C241.972 19.6641 244.14 22.457 244.14 26.9395V26.959C244.14 31.4414 241.972 34.2441 238.398 34.2441ZM238.398 31.8809C240.156 31.8809 241.162 30.0547 241.162 26.959V26.9395C241.162 23.8438 240.156 22.0273 238.398 22.0273C236.64 22.0273 235.634 23.8438 235.634 26.9395V26.959C235.634 30.0547 236.64 31.8809 238.398 31.8809ZM251.414 34L257.478 22.3105V22.252H250.31V19.9082H260.388V22.2812L254.51 34H251.414ZM266.032 34V22.6133H265.974L262.38 25.0547V22.4375L266.022 19.9082H268.952V34H266.032ZM277.906 34.2441C274.84 34.2441 272.809 32.457 272.633 30.1035L272.623 29.957H275.348L275.367 30.0254C275.572 31.0898 276.559 31.9102 277.916 31.9102C279.459 31.9102 280.543 30.8555 280.543 29.3516V29.332C280.533 27.8477 279.449 26.8027 277.926 26.8027C277.203 26.8027 276.588 27.0176 276.109 27.3984C275.826 27.6133 275.602 27.8867 275.436 28.1797H272.867L273.512 19.9082H282.506V22.252H275.855L275.514 26.2168H275.572C276.158 25.2695 277.32 24.6934 278.746 24.6934C281.422 24.6934 283.355 26.6172 283.355 29.2734V29.293C283.355 32.2422 281.129 34.2441 277.906 34.2441Z" fill="#2E374D"/>
<rect x="20" y="47" width="264" height="1" fill="#CEDBE6"/>
<g clip-path="url(#clip0_5908_5585)">
<rect x="23" y="66" width="18" height="4" fill="#FF7B67"/>
<g filter="url(#filter0_d_5908_5585)">
<path fill-rule="evenodd" clip-rule="evenodd" d="M32 73C34.7614 73 37 70.7614 37 68C37 65.2386 34.7614 63 32 63C29.2386 63 27 65.2386 27 68C27 70.7614 29.2386 73 32 73Z" fill="white"/>
<path fill-rule="evenodd" clip-rule="evenodd" d="M32 73C34.7614 73 37 70.7614 37 68C37 65.2386 34.7614 63 32 63C29.2386 63 27 65.2386 27 68C27 70.7614 29.2386 73 32 73Z" stroke="#FF7B67" stroke-width="2"/>
</g>
</g>
<path d="M57.9453 74.1562V72.9766C54.9609 72.9062 52.9609 71.1719 52.9609 68.3281V68.3125C52.9609 65.4688 54.9844 63.7578 57.9453 63.6719V62.5703H59.3359V63.6719C62.3203 63.7422 64.3125 65.4844 64.3125 68.3203V68.3359C64.3125 71.1953 62.2812 72.8906 59.3359 72.9766V74.1562H57.9453ZM54.3984 68.3281C54.3984 70.3672 55.7656 71.6484 57.9453 71.7188V64.9297C55.7891 65.0156 54.3984 66.2656 54.3984 68.3125V68.3281ZM59.3359 64.9297V71.7188C61.4766 71.6328 62.875 70.3906 62.875 68.3359V68.3203C62.875 66.2891 61.5156 65 59.3359 64.9297ZM68.6175 74.1484C67.0159 74.1484 65.805 73.1797 65.805 71.6484V71.6328C65.805 70.1328 66.9144 69.2656 68.8753 69.1484L71.2894 69V68.2344C71.2894 67.1953 70.6566 66.6328 69.3988 66.6328C68.3909 66.6328 67.7269 67.0078 67.5081 67.6641L67.5003 67.6875H66.1409L66.1488 67.6406C66.3675 66.3203 67.6488 65.4297 69.4456 65.4297C71.5003 65.4297 72.6488 66.4844 72.6488 68.2344V74H71.2894V72.7578H71.1644C70.6331 73.6562 69.7503 74.1484 68.6175 74.1484ZM67.1956 71.6172C67.1956 72.4688 67.9222 72.9688 68.8988 72.9688C70.2816 72.9688 71.2894 72.0625 71.2894 70.8594V70.0938L69.0394 70.2344C67.7581 70.3125 67.1956 70.7656 67.1956 71.6016V71.6172ZM76.7506 70.1641H76.3209V74H74.9616V65.5781H76.3209V69.1016H76.7506L80.0084 65.5781H81.6413L77.8522 69.5469L81.7897 74H80.0475L76.7506 70.1641ZM89.0556 65.5781V66.7031H86.3291V74H84.9697V66.7031H82.2431V65.5781H89.0556ZM100.408 74V70.1875H96.2359V74H94.8766V65.5781H96.2359V69.0625H100.408V65.5781H101.767V74H100.408ZM106.439 74.1484C104.838 74.1484 103.627 73.1797 103.627 71.6484V71.6328C103.627 70.1328 104.736 69.2656 106.697 69.1484L109.111 69V68.2344C109.111 67.1953 108.478 66.6328 107.221 66.6328C106.213 66.6328 105.549 67.0078 105.33 67.6641L105.322 67.6875H103.963L103.971 67.6406C104.189 66.3203 105.471 65.4297 107.268 65.4297C109.322 65.4297 110.471 66.4844 110.471 68.2344V74H109.111V72.7578H108.986C108.455 73.6562 107.572 74.1484 106.439 74.1484ZM105.018 71.6172C105.018 72.4688 105.744 72.9688 106.721 72.9688C108.103 72.9688 109.111 72.0625 109.111 70.8594V70.0938L106.861 70.2344C105.58 70.3125 105.018 70.7656 105.018 71.6016V71.6172ZM119.284 74.1484C117.682 74.1484 116.471 73.1797 116.471 71.6484V71.6328C116.471 70.1328 117.581 69.2656 119.542 69.1484L121.956 69V68.2344C121.956 67.1953 121.323 66.6328 120.065 66.6328C119.057 66.6328 118.393 67.0078 118.174 67.6641L118.167 67.6875H116.807L116.815 67.6406C117.034 66.3203 118.315 65.4297 120.112 65.4297C122.167 65.4297 123.315 66.4844 123.315 68.2344V74H121.956V72.7578H121.831C121.299 73.6562 120.417 74.1484 119.284 74.1484ZM117.862 71.6172C117.862 72.4688 118.588 72.9688 119.565 72.9688C120.948 72.9688 121.956 72.0625 121.956 70.8594V70.0938L119.706 70.2344C118.424 70.3125 117.862 70.7656 117.862 71.6016V71.6172ZM125.628 74V65.5781H132.44V74H131.081V66.7031H126.987V74H125.628ZM134.8 76.8125V65.5781H136.159V66.9219H136.284C136.8 65.9844 137.738 65.4297 138.909 65.4297C141.042 65.4297 142.441 67.1562 142.441 69.7812V69.7969C142.441 72.4375 141.05 74.1484 138.909 74.1484C137.753 74.1484 136.745 73.5703 136.284 72.6719H136.159V76.8125H134.8ZM138.597 72.9453C140.136 72.9453 141.05 71.7578 141.05 69.7969V69.7812C141.05 67.8203 140.136 66.6328 138.597 66.6328C137.066 66.6328 136.128 67.8359 136.128 69.7812V69.7969C136.128 71.7422 137.066 72.9453 138.597 72.9453ZM147.839 74.1484C145.433 74.1484 143.98 72.4609 143.98 69.8203V69.8125C143.98 67.2109 145.464 65.4297 147.753 65.4297C150.043 65.4297 151.433 67.1328 151.433 69.6484V70.1797H145.371C145.41 71.9219 146.371 72.9375 147.871 72.9375C149.011 72.9375 149.714 72.3984 149.941 71.8906L149.972 71.8203H151.332L151.316 71.8828C151.027 73.0234 149.824 74.1484 147.839 74.1484ZM147.746 66.6406C146.496 66.6406 145.543 67.4922 145.394 69.0938H150.05C149.91 67.4297 148.988 66.6406 147.746 66.6406ZM155.113 70.7031C154.933 73.0234 154.215 74.0781 152.808 74.0781C152.519 74.0781 152.301 74.0312 152.191 73.9922V72.7656C152.262 72.7891 152.473 72.8203 152.676 72.8203C153.449 72.8203 153.762 71.8438 153.848 70.5938L154.207 65.5781H159.715V74H158.355V66.7031H155.426L155.113 70.7031ZM162.067 74V65.5781H163.426V68.2812H165.074C167.004 68.2812 168.238 69.3906 168.238 71.1328V71.1484C168.238 72.8906 167.004 74 165.074 74H162.067ZM165.074 69.4062H163.426V72.875H165.074C166.184 72.875 166.879 72.1875 166.879 71.1484V71.1328C166.879 70.0859 166.176 69.4062 165.074 69.4062Z" fill="#2E374D"/>
<path d="M222.989 75V63.6133H222.93L219.336 66.0547V63.4375L222.979 60.9082H225.909V75H222.989ZM234.697 75.2441C231.503 75.2441 229.414 73.5645 229.218 71.1328L229.209 71.0059H232.021L232.041 71.1133C232.167 72.1191 233.164 72.8711 234.687 72.8711C236.201 72.8711 237.177 72.0605 237.177 70.9082V70.8887C237.177 69.541 236.171 68.7988 234.472 68.7988H232.861V66.6992H234.433C235.908 66.6992 236.865 65.918 236.865 64.7754V64.7559C236.865 63.6133 236.054 62.9297 234.667 62.9297C233.291 62.9297 232.353 63.6426 232.236 64.7363L232.226 64.8242H229.521L229.531 64.707C229.726 62.2656 231.709 60.6641 234.667 60.6641C237.705 60.6641 239.658 62.1484 239.658 64.3652V64.3848C239.658 66.1426 238.369 67.2852 236.718 67.627V67.6855C238.808 67.8809 240.175 69.0918 240.175 71.0059V71.0254C240.175 73.5449 237.988 75.2441 234.697 75.2441ZM247.508 75L253.572 63.3105V63.252H246.404V60.9082H256.482V63.2812L250.603 75H247.508ZM264.128 75.2441C260.729 75.2441 258.249 72.8516 258.249 68.0762V68.0566C258.249 63.4375 260.485 60.6641 264.157 60.6641C266.882 60.6641 268.932 62.2363 269.352 64.4141L269.372 64.5117H266.462L266.432 64.4238C266.081 63.5742 265.3 62.998 264.147 62.998C262.087 62.998 261.188 64.9609 261.081 67.4512C261.071 67.6465 261.061 67.8418 261.061 67.9883H261.12C261.677 66.6797 263.063 65.7227 264.968 65.7227C267.692 65.7227 269.557 67.6562 269.557 70.293V70.3125C269.557 73.1934 267.263 75.2441 264.128 75.2441ZM261.511 70.3809C261.511 71.7969 262.643 72.9004 264.089 72.9004C265.524 72.9004 266.686 71.8066 266.686 70.4199V70.4004C266.686 68.9355 265.583 67.9004 264.118 67.9004C262.643 67.9004 261.511 68.9258 261.511 70.3613V70.3809ZM277.438 75.2441C273.863 75.2441 271.695 72.4414 271.695 67.959V67.9395C271.695 63.457 273.863 60.6641 277.438 60.6641C281.012 60.6641 283.18 63.457 283.18 67.9395V67.959C283.18 72.4414 281.012 75.2441 277.438 75.2441ZM277.438 72.8809C279.195 72.8809 280.201 71.0547 280.201 67.959V67.9395C280.201 64.8438 279.195 63.0273 277.438 63.0273C275.68 63.0273 274.674 64.8438 274.674 67.9395V67.959C274.674 71.0547 275.68 72.8809 277.438 72.8809Z" fill="#FF7B67"/>
<rect x="20" y="88" width="264" height="1" fill="#CEDBE6"/>
<path d="M33.9417 115.667H33.7667C33.0429 115.595 32.4493 115.062 32.3001 114.35L30.0667 104L27.7667 109.333C27.6338 109.638 27.3325 109.834 27.0001 109.833H24.5001C24.0398 109.833 23.6667 109.46 23.6667 109C23.6667 108.54 24.0398 108.167 24.5001 108.167H26.4501L28.5417 103.342C28.8306 102.677 29.5156 102.276 30.2364 102.348C30.9572 102.42 31.5488 102.95 31.7001 103.658L33.9334 114L36.2334 108.683C36.3613 108.372 36.6637 108.168 37.0001 108.167H39.5001C39.9603 108.167 40.3334 108.54 40.3334 109C40.3334 109.46 39.9603 109.833 39.5001 109.833H37.5501L35.4584 114.658C35.1974 115.265 34.6025 115.661 33.9417 115.667Z" fill="#6F849E"/>
<path d="M58.25 115.266C55.0156 115.266 53.0781 112.969 53.0781 109.367V109.352C53.0781 105.734 55.0625 103.461 58.25 103.461C61.4531 103.461 63.4219 105.742 63.4219 109.352V109.367C63.4219 112.961 61.4688 115.266 58.25 115.266ZM58.25 113.969C60.5625 113.969 61.9844 112.156 61.9844 109.367V109.352C61.9844 106.539 60.5547 104.758 58.25 104.758C55.9531 104.758 54.5156 106.539 54.5156 109.352V109.367C54.5156 112.156 55.9062 113.969 58.25 113.969ZM71.6175 106.578V107.703H68.8909V115H67.5316V107.703H64.805V106.578H71.6175ZM75.0475 111.164H74.6178V115H73.2584V106.578H74.6178V110.102H75.0475L78.3053 106.578H79.9381L76.1491 110.547L80.0866 115H78.3444L75.0475 111.164ZM83.4619 111.703C83.2822 114.023 82.5634 115.078 81.1572 115.078C80.8681 115.078 80.6494 115.031 80.54 114.992V113.766C80.6103 113.789 80.8213 113.82 81.0244 113.82C81.7978 113.82 82.1103 112.844 82.1963 111.594L82.5556 106.578H88.0634V115H86.7041V107.703H83.7744L83.4619 111.703ZM93.8841 115.148C91.4856 115.148 90.0013 113.492 90.0013 110.797V110.781C90.0013 108.078 91.4856 106.43 93.8841 106.43C96.2825 106.43 97.7669 108.078 97.7669 110.781V110.797C97.7669 113.492 96.2825 115.148 93.8841 115.148ZM93.8841 113.945C95.4778 113.945 96.3763 112.781 96.3763 110.797V110.781C96.3763 108.789 95.4778 107.633 93.8841 107.633C92.2903 107.633 91.3919 108.789 91.3919 110.781V110.797C91.3919 112.781 92.2903 113.945 93.8841 113.945ZM105.236 115V111.188H101.064V115H99.7047V106.578H101.064V110.062H105.236V106.578H106.595V115H105.236ZM112.393 115.148C109.986 115.148 108.533 113.461 108.533 110.82V110.812C108.533 108.211 110.018 106.43 112.307 106.43C114.596 106.43 115.986 108.133 115.986 110.648V111.18H109.924C109.963 112.922 110.924 113.938 112.424 113.938C113.564 113.938 114.268 113.398 114.494 112.891L114.525 112.82H115.885L115.869 112.883C115.58 114.023 114.377 115.148 112.393 115.148ZM112.299 107.641C111.049 107.641 110.096 108.492 109.947 110.094H114.603C114.463 108.43 113.541 107.641 112.299 107.641ZM123.455 115V111.188H119.283V115H117.924V106.578H119.283V110.062H123.455V106.578H124.815V115H123.455ZM127.167 115V106.578H128.526V112.859H128.651L132.815 106.578H134.174V115H132.815V108.719H132.69L128.526 115H127.167ZM139.979 115.148C137.573 115.148 136.12 113.461 136.12 110.82V110.812C136.12 108.211 137.604 106.43 139.893 106.43C142.183 106.43 143.573 108.133 143.573 110.648V111.18H137.511C137.55 112.922 138.511 113.938 140.011 113.938C141.151 113.938 141.854 113.398 142.081 112.891L142.112 112.82H143.472L143.456 112.883C143.167 114.023 141.964 115.148 139.979 115.148ZM139.886 107.641C138.636 107.641 137.683 108.492 137.534 110.094H142.19C142.05 108.43 141.128 107.641 139.886 107.641Z" fill="#2E374D"/>
<path d="M215.186 111.518V109.027H219.239V105.268H221.729V109.027H225.791V111.518H221.729V115.268H219.239V111.518H215.186ZM233.584 116.244C230.39 116.244 228.3 114.564 228.105 112.133L228.095 112.006H230.908L230.927 112.113C231.054 113.119 232.05 113.871 233.574 113.871C235.087 113.871 236.064 113.061 236.064 111.908V111.889C236.064 110.541 235.058 109.799 233.359 109.799H231.748V107.699H233.32C234.794 107.699 235.751 106.918 235.751 105.775V105.756C235.751 104.613 234.941 103.93 233.554 103.93C232.177 103.93 231.24 104.643 231.123 105.736L231.113 105.824H228.408L228.417 105.707C228.613 103.266 230.595 101.664 233.554 101.664C236.591 101.664 238.544 103.148 238.544 105.365V105.385C238.544 107.143 237.255 108.285 235.605 108.627V108.686C237.695 108.881 239.062 110.092 239.062 112.006V112.025C239.062 114.545 236.875 116.244 233.584 116.244ZM251.228 116.244C247.654 116.244 245.486 113.441 245.486 108.959V108.939C245.486 104.457 247.654 101.664 251.228 101.664C254.802 101.664 256.97 104.457 256.97 108.939V108.959C256.97 113.441 254.802 116.244 251.228 116.244ZM251.228 113.881C252.986 113.881 253.992 112.055 253.992 108.959V108.939C253.992 105.844 252.986 104.027 251.228 104.027C249.47 104.027 248.465 105.844 248.465 108.939V108.959C248.465 112.055 249.47 113.881 251.228 113.881ZM265.886 116V113.412H258.874V110.951L264.528 101.908H268.688V111.059H270.544V113.412H268.688V116H265.886ZM261.442 111.137H265.944V104.037H265.876L261.442 111.059V111.137ZM277.906 116.244C274.84 116.244 272.809 114.457 272.633 112.104L272.623 111.957H275.348L275.367 112.025C275.572 113.09 276.559 113.91 277.916 113.91C279.459 113.91 280.543 112.855 280.543 111.352V111.332C280.533 109.848 279.449 108.803 277.926 108.803C277.203 108.803 276.588 109.018 276.109 109.398C275.826 109.613 275.602 109.887 275.436 110.18H272.867L273.512 101.908H282.506V104.252H275.855L275.514 108.217H275.572C276.158 107.27 277.32 106.693 278.746 106.693C281.422 106.693 283.355 108.617 283.355 111.273V111.293C283.355 114.242 281.129 116.244 277.906 116.244Z" fill="#6F849E"/>
<defs>
<filter id="filter0_d_5908_5585" x="21" y="59" width="22" height="22" filterUnits="userSpaceOnUse" color-interpolation-filters="sRGB">
<feFlood flood-opacity="0" result="BackgroundImageFix"/>
<feColorMatrix in="SourceAlpha" type="matrix" values="0 0 0 0 0 0 0 0 0 0 0 0 0 0 0 0 0 0 127 0" result="hardAlpha"/>
<feOffset dy="2"/>
<feGaussianBlur stdDeviation="2.5"/>
<feColorMatrix type="matrix" values="0 0 0 0 0 0 0 0 0 0 0 0 0 0 0 0 0 0 0.2 0"/>
<feBlend mode="normal" in2="BackgroundImageFix" result="effect1_dropShadow_5908_5585"/>
<feBlend mode="normal" in="SourceGraphic" in2="effect1_dropShadow_5908_5585" result="shape"/>
</filter>
<clipPath id="clip0_5908_5585">
<rect width="24" height="24" fill="white" transform="translate(20 56)"/>
</clipPath>
</defs>
</svg>
