<svg width="20" height="22" viewBox="0 0 20 22" fill="none" xmlns="http://www.w3.org/2000/svg">
<path d="M0.86 1.95388L13.43 0.158875C13.5009 0.148699 13.5732 0.153891 13.642 0.1741C13.7108 0.19431 13.7744 0.229064 13.8285 0.276008C13.8827 0.322951 13.9261 0.380987 13.9559 0.446183C13.9856 0.511378 14.001 0.582209 14.001 0.653875V21.4999C14.001 21.5714 13.9856 21.6422 13.9559 21.7073C13.9262 21.7724 13.8829 21.8304 13.8288 21.8773C13.7748 21.9242 13.7113 21.959 13.6427 21.9793C13.5741 21.9996 13.5019 22.0049 13.431 21.9949L0.859 20.1999C0.620619 20.1659 0.402492 20.0471 0.244689 19.8652C0.0868852 19.6834 2.31057e-06 19.4507 0 19.2099V2.94388C2.31057e-06 2.70309 0.0868852 2.47039 0.244689 2.28852C0.402492 2.10665 0.620619 1.98783 0.859 1.95388H0.86ZM2.001 3.81188V18.3419L12.001 19.7709V2.38288L2.001 3.81188ZM15.001 18.0769H18.001V4.07688H15.001V2.07688H19.001C19.2662 2.07688 19.5206 2.18223 19.7081 2.36977C19.8956 2.5573 20.001 2.81166 20.001 3.07688V19.0769C20.001 19.3421 19.8956 19.5964 19.7081 19.784C19.5206 19.9715 19.2662 20.0769 19.001 20.0769H15.001V18.0769ZM8.201 11.0769L11.001 15.0769H8.601L7.001 12.7909L5.401 15.0769H3.001L5.801 11.0769L3.001 7.07688H5.401L7.001 9.36288L8.601 7.07688H11.001L8.201 11.0769Z" fill="#5776E2"/>
</svg>
